G04*
G04 #@! TF.GenerationSoftware,Altium Limited,Altium Designer,22.1.2 (22)*
G04*
G04 Layer_Color=8421504*
%FSLAX44Y44*%
%MOMM*%
G71*
G04*
G04 #@! TF.SameCoordinates,E4277ABF-2EF0-4229-B20A-5B57AAE43606*
G04*
G04*
G04 #@! TF.FilePolarity,Positive*
G04*
G01*
G75*
%ADD17R,1.2000X0.3000*%
%ADD18R,0.3000X1.2000*%
%ADD19R,1.1500X1.1500*%
%ADD20R,1.2000X1.2000*%
%ADD21R,0.5500X0.3000*%
%ADD22R,0.3000X0.5500*%
%ADD23R,1.1781X1.3562*%
%ADD24R,0.9500X1.3500*%
%ADD25R,1.1000X1.0000*%
%ADD26R,1.4000X1.0000*%
%ADD27R,1.4500X1.1500*%
%ADD28R,1.1500X1.4500*%
%ADD29R,0.9062X0.8549*%
%ADD30R,1.0000X1.1000*%
%ADD31R,1.7000X0.9500*%
%ADD32R,1.4500X1.3000*%
%ADD33R,1.4500X1.3500*%
%ADD34R,0.6500X1.5250*%
%ADD35R,0.6500X1.5000*%
%ADD36R,0.9581X2.6062*%
%ADD37R,1.1500X1.4000*%
%ADD38R,0.9500X1.7000*%
%ADD39R,1.2621X0.9578*%
%ADD40R,2.5000X1.2500*%
G04:AMPARAMS|DCode=41|XSize=0.65mm|YSize=1.2mm|CornerRadius=0.0488mm|HoleSize=0mm|Usage=FLASHONLY|Rotation=270.000|XOffset=0mm|YOffset=0mm|HoleType=Round|Shape=RoundedRectangle|*
%AMROUNDEDRECTD41*
21,1,0.6500,1.1025,0,0,270.0*
21,1,0.5525,1.2000,0,0,270.0*
1,1,0.0975,-0.5513,-0.2763*
1,1,0.0975,-0.5513,0.2763*
1,1,0.0975,0.5513,0.2763*
1,1,0.0975,0.5513,-0.2763*
%
%ADD41ROUNDEDRECTD41*%
G04:AMPARAMS|DCode=42|XSize=0.55mm|YSize=1.25mm|CornerRadius=0.0495mm|HoleSize=0mm|Usage=FLASHONLY|Rotation=270.000|XOffset=0mm|YOffset=0mm|HoleType=Round|Shape=RoundedRectangle|*
%AMROUNDEDRECTD42*
21,1,0.5500,1.1510,0,0,270.0*
21,1,0.4510,1.2500,0,0,270.0*
1,1,0.0990,-0.5755,-0.2255*
1,1,0.0990,-0.5755,0.2255*
1,1,0.0990,0.5755,0.2255*
1,1,0.0990,0.5755,-0.2255*
%
%ADD42ROUNDEDRECTD42*%
%ADD43R,2.0000X4.0000*%
%ADD44R,1.0000X0.7000*%
%ADD45R,0.7000X0.6000*%
%ADD46R,1.3562X1.1781*%
%ADD47R,1.3500X0.9500*%
%ADD48R,1.2500X0.6000*%
%ADD49R,1.0000X0.5000*%
%ADD50R,0.8549X0.9062*%
%ADD51R,2.4000X2.0000*%
%ADD52R,1.2000X1.2000*%
%ADD53R,1.4500X1.0000*%
%ADD54R,1.5000X1.5000*%
%ADD55R,1.1500X1.1500*%
D17*
X52500Y-475500D02*
D03*
Y-470500D02*
D03*
Y-465500D02*
D03*
Y-460500D02*
D03*
Y-455500D02*
D03*
Y-450500D02*
D03*
Y-445500D02*
D03*
Y-440500D02*
D03*
Y-435500D02*
D03*
Y-430500D02*
D03*
Y-425500D02*
D03*
Y-420500D02*
D03*
Y-415500D02*
D03*
Y-410500D02*
D03*
Y-405500D02*
D03*
Y-400500D02*
D03*
X-62500D02*
D03*
Y-405500D02*
D03*
Y-410500D02*
D03*
Y-415500D02*
D03*
Y-420500D02*
D03*
Y-425500D02*
D03*
Y-430500D02*
D03*
Y-435500D02*
D03*
Y-440500D02*
D03*
Y-445500D02*
D03*
Y-450500D02*
D03*
Y-455500D02*
D03*
Y-460500D02*
D03*
Y-465500D02*
D03*
Y-470500D02*
D03*
Y-475500D02*
D03*
D18*
X32500Y-380500D02*
D03*
X27500D02*
D03*
X22500D02*
D03*
X17500D02*
D03*
X12500D02*
D03*
X7500D02*
D03*
X2500D02*
D03*
X-2500D02*
D03*
X-7500D02*
D03*
X-12500D02*
D03*
X-17500D02*
D03*
X-22500D02*
D03*
X-27500D02*
D03*
X-32500D02*
D03*
X-37500D02*
D03*
X-42500D02*
D03*
Y-495500D02*
D03*
X-37500D02*
D03*
X-32500D02*
D03*
X-27500D02*
D03*
X-22500D02*
D03*
X-17500D02*
D03*
X-12500D02*
D03*
X-7500D02*
D03*
X-2500D02*
D03*
X2500D02*
D03*
X7500D02*
D03*
X12500D02*
D03*
X17500D02*
D03*
X22500D02*
D03*
X27500D02*
D03*
X32500D02*
D03*
D19*
X261478Y-834250D02*
D03*
X284978D02*
D03*
X-284977Y-834250D02*
D03*
X-261477D02*
D03*
X411978Y-390250D02*
D03*
X388478D02*
D03*
X-417977D02*
D03*
X-394477D02*
D03*
D20*
X343000Y-834000D02*
D03*
X323000D02*
D03*
X450000Y-390000D02*
D03*
X470000D02*
D03*
X-323000Y-834000D02*
D03*
X-343000D02*
D03*
X-456000Y-390000D02*
D03*
X-476000D02*
D03*
D21*
X-9000Y-181000D02*
D03*
Y-186000D02*
D03*
Y-191000D02*
D03*
Y-196000D02*
D03*
Y-201000D02*
D03*
X15000D02*
D03*
Y-196000D02*
D03*
Y-191000D02*
D03*
Y-186000D02*
D03*
Y-181000D02*
D03*
D22*
X-2000Y-203000D02*
D03*
X3000D02*
D03*
X8000D02*
D03*
Y-179000D02*
D03*
X3000D02*
D03*
X-2000D02*
D03*
D23*
X-24359Y-333500D02*
D03*
X-37641D02*
D03*
D24*
X32000Y-334000D02*
D03*
X17000D02*
D03*
X257500Y-414000D02*
D03*
X272500D02*
D03*
X-265500D02*
D03*
X-280500D02*
D03*
X111000Y-538295D02*
D03*
X96000D02*
D03*
X165273Y-513522D02*
D03*
X150272D02*
D03*
X165273Y-456022D02*
D03*
X150272D02*
D03*
D25*
X159000Y-987000D02*
D03*
Y-973000D02*
D03*
X265000Y-556000D02*
D03*
Y-542000D02*
D03*
X-263000Y-556000D02*
D03*
Y-542000D02*
D03*
D26*
X191000Y-968500D02*
D03*
Y-987500D02*
D03*
X213000Y-978000D02*
D03*
D27*
X-40545Y-231772D02*
D03*
Y-249772D02*
D03*
X41000Y-231772D02*
D03*
Y-249772D02*
D03*
D28*
X9228Y-152728D02*
D03*
X-8773D02*
D03*
X9228Y-298273D02*
D03*
X-8773D02*
D03*
X9228Y-263545D02*
D03*
X-8773D02*
D03*
X9228Y-229273D02*
D03*
X-8773D02*
D03*
X-108290Y-905022D02*
D03*
X-126291D02*
D03*
X291000Y-947000D02*
D03*
X309000D02*
D03*
D29*
X363000Y-441775D02*
D03*
Y-454288D02*
D03*
X339000Y-407744D02*
D03*
Y-420257D02*
D03*
X-356000Y-441775D02*
D03*
Y-454288D02*
D03*
X-338000Y-420257D02*
D03*
Y-407744D02*
D03*
X156000Y-418774D02*
D03*
Y-431287D02*
D03*
D30*
X312000Y-413000D02*
D03*
X298000D02*
D03*
X-301250D02*
D03*
X-315250D02*
D03*
X447000Y-1075000D02*
D03*
X461000D02*
D03*
X422250Y-483522D02*
D03*
X436250D02*
D03*
D31*
X233000Y-487000D02*
D03*
Y-515000D02*
D03*
X-229250Y-487000D02*
D03*
Y-515000D02*
D03*
X-252978Y-926750D02*
D03*
Y-898750D02*
D03*
X-228000Y-926750D02*
D03*
Y-898750D02*
D03*
X-210250Y-994061D02*
D03*
Y-966061D02*
D03*
X-186000Y-994061D02*
D03*
Y-966061D02*
D03*
D32*
X233000Y-446000D02*
D03*
Y-462000D02*
D03*
X-230000Y-446000D02*
D03*
Y-462000D02*
D03*
D33*
X267000Y-445750D02*
D03*
Y-462250D02*
D03*
Y-492750D02*
D03*
Y-509250D02*
D03*
X-263000Y-445750D02*
D03*
Y-462250D02*
D03*
Y-492750D02*
D03*
Y-509250D02*
D03*
D34*
X-286950Y-500120D02*
D03*
X-299650D02*
D03*
X-312350D02*
D03*
X-325050D02*
D03*
Y-445880D02*
D03*
X-312350D02*
D03*
X-299650D02*
D03*
X-286950D02*
D03*
X330050Y-500120D02*
D03*
X317350D02*
D03*
X304650D02*
D03*
X291950D02*
D03*
Y-445880D02*
D03*
X304650D02*
D03*
X317350D02*
D03*
X330050D02*
D03*
D35*
X-287200Y-538000D02*
D03*
X-299900D02*
D03*
X-312600D02*
D03*
X-325300D02*
D03*
Y-592000D02*
D03*
X-312600D02*
D03*
X-299900D02*
D03*
X-287200D02*
D03*
X330300Y-538000D02*
D03*
X317600D02*
D03*
X304900D02*
D03*
X292200D02*
D03*
Y-592000D02*
D03*
X304900D02*
D03*
X317600D02*
D03*
X330300D02*
D03*
D36*
X-83730Y-933000D02*
D03*
X-128270D02*
D03*
D37*
X-119000Y-876000D02*
D03*
X-95500D02*
D03*
D38*
X-282000Y-955250D02*
D03*
X-310000D02*
D03*
D39*
X-339000Y-959461D02*
D03*
Y-944918D02*
D03*
X-161000Y-994272D02*
D03*
Y-979728D02*
D03*
D40*
X-369000Y-924000D02*
D03*
Y-958000D02*
D03*
X-239000Y-958811D02*
D03*
Y-992811D02*
D03*
D41*
X-315750Y-922000D02*
D03*
Y-903000D02*
D03*
X-286250D02*
D03*
Y-912500D02*
D03*
Y-922000D02*
D03*
D42*
X-203250Y-898950D02*
D03*
Y-911650D02*
D03*
Y-924350D02*
D03*
Y-937050D02*
D03*
X-150750Y-898950D02*
D03*
Y-911650D02*
D03*
Y-924350D02*
D03*
Y-937050D02*
D03*
D43*
X-322000Y-1070400D02*
D03*
Y-999400D02*
D03*
D44*
X396000Y-1004500D02*
D03*
X456000D02*
D03*
X396000Y-1041500D02*
D03*
X456000D02*
D03*
D45*
X426000Y-998000D02*
D03*
Y-1048000D02*
D03*
D46*
X129375Y-433671D02*
D03*
Y-420390D02*
D03*
X112000Y-594110D02*
D03*
Y-580829D02*
D03*
X-106000Y-492281D02*
D03*
Y-479000D02*
D03*
D47*
X100000Y-435000D02*
D03*
Y-420000D02*
D03*
X-108000Y-600500D02*
D03*
Y-585500D02*
D03*
X-81167Y-600500D02*
D03*
Y-585500D02*
D03*
X84667Y-594500D02*
D03*
Y-579500D02*
D03*
D48*
X-451719Y-434000D02*
D03*
X-419219D02*
D03*
X-451719Y-454000D02*
D03*
X-419219D02*
D03*
X428750Y-432000D02*
D03*
X461250D02*
D03*
X428750Y-452000D02*
D03*
X461250D02*
D03*
D49*
X-435469Y-427500D02*
D03*
Y-460500D02*
D03*
X445000Y-425500D02*
D03*
Y-458500D02*
D03*
D50*
X-421256Y-484773D02*
D03*
X-408744D02*
D03*
D51*
X115000Y-504773D02*
D03*
Y-464772D02*
D03*
D52*
X112622Y-1057000D02*
D03*
Y-1077000D02*
D03*
X76169Y-1057000D02*
D03*
Y-1077000D02*
D03*
X39716Y-1057000D02*
D03*
Y-1077000D02*
D03*
X3264Y-1057000D02*
D03*
Y-1077000D02*
D03*
X-33189Y-1057000D02*
D03*
Y-1077000D02*
D03*
X-69642Y-1057000D02*
D03*
Y-1077000D02*
D03*
X-106094Y-1057000D02*
D03*
Y-1077000D02*
D03*
D53*
X-387000Y-1079250D02*
D03*
Y-1060250D02*
D03*
D54*
X-411000Y-1077500D02*
D03*
Y-1042500D02*
D03*
D55*
X112200Y-1018977D02*
D03*
Y-995477D02*
D03*
X75800Y-1018977D02*
D03*
Y-995477D02*
D03*
X39400Y-1018977D02*
D03*
Y-995477D02*
D03*
X3000Y-1018977D02*
D03*
Y-995477D02*
D03*
X-33400Y-1018977D02*
D03*
Y-995477D02*
D03*
X-69800Y-1018977D02*
D03*
Y-995477D02*
D03*
X-106200Y-1018977D02*
D03*
Y-995477D02*
D03*
M02*
