G04*
G04 #@! TF.GenerationSoftware,Altium Limited,Altium Designer,22.1.2 (22)*
G04*
G04 Layer_Color=32896*
%FSLAX44Y44*%
%MOMM*%
G71*
G04*
G04 #@! TF.SameCoordinates,E4277ABF-2EF0-4229-B20A-5B57AAE43606*
G04*
G04*
G04 #@! TF.FilePolarity,Positive*
G04*
G01*
G75*
%ADD110C,0.6000*%
D110*
X41000Y-355000D02*
D03*
X3270Y-215270D02*
D03*
X11000Y-364082D02*
D03*
X9000Y-244000D02*
D03*
X41000Y-259000D02*
D03*
X-39000Y-261000D02*
D03*
X-29000Y-231000D02*
D03*
X-35000Y-217000D02*
D03*
X-37000Y-188000D02*
D03*
Y-199000D02*
D03*
X-25000Y-174000D02*
D03*
X-33000Y-180000D02*
D03*
X-408000Y-425000D02*
D03*
X407000Y-485000D02*
D03*
X241000Y-539000D02*
D03*
X437000Y-1027000D02*
D03*
X67000Y-540000D02*
D03*
X62000Y-548000D02*
D03*
X247000Y-783000D02*
D03*
X27230Y-520000D02*
D03*
X24000Y-532000D02*
D03*
X-57000Y-493000D02*
D03*
X-79000Y-904000D02*
D03*
X33000Y-538000D02*
D03*
X73000Y-568000D02*
D03*
X43000Y-513000D02*
D03*
X59000D02*
D03*
X24000Y-703000D02*
D03*
X19000Y-709000D02*
D03*
X49000Y-504000D02*
D03*
X20273Y-448274D02*
D03*
X17000Y-459000D02*
D03*
X10000Y-298000D02*
D03*
X-84000Y-340000D02*
D03*
X-85000Y-351000D02*
D03*
X-17000Y-397000D02*
D03*
X-9000Y-403000D02*
D03*
X33000Y-464000D02*
D03*
X366000Y-376000D02*
D03*
X-50000Y-363000D02*
D03*
X-28000Y-352000D02*
D03*
X-35000Y-363270D02*
D03*
X70000Y-908000D02*
D03*
X10000Y-520000D02*
D03*
X-397000Y-480000D02*
D03*
X-43000Y-516000D02*
D03*
X-45730Y-528000D02*
D03*
X-11000Y-918000D02*
D03*
X48000Y-578000D02*
D03*
X-198000Y-955000D02*
D03*
X-318000Y-933000D02*
D03*
X-335000Y-907000D02*
D03*
X-322000Y-942000D02*
D03*
X-67000Y-812000D02*
D03*
X-260000Y-652000D02*
D03*
X-240000Y-542000D02*
D03*
X-325000Y-465000D02*
D03*
X-287000Y-553000D02*
D03*
X-326000Y-557000D02*
D03*
X-287000Y-612000D02*
D03*
X-325000Y-614000D02*
D03*
X-88000Y-325000D02*
D03*
X-245000Y-503000D02*
D03*
X-294000Y-461000D02*
D03*
X69000Y-483000D02*
D03*
X75000Y-465000D02*
D03*
X282000Y-520000D02*
D03*
X292000Y-554000D02*
D03*
X293000Y-465000D02*
D03*
X187000Y-524000D02*
D03*
X59000Y-622000D02*
D03*
X-82000Y-573000D02*
D03*
X-145000Y-609000D02*
D03*
X-47000Y-618000D02*
D03*
X-66000Y-683000D02*
D03*
X-12000Y-572000D02*
D03*
X-99000Y-835000D02*
D03*
X5000Y-837000D02*
D03*
X52000Y-833000D02*
D03*
X60000Y-806000D02*
D03*
X317000Y-465000D02*
D03*
X165774Y-431774D02*
D03*
X292000Y-612000D02*
D03*
X331000Y-555000D02*
D03*
Y-612000D02*
D03*
X-12000Y-593000D02*
D03*
X-41961Y-601961D02*
D03*
X-126259Y-618000D02*
D03*
X-83410Y-913802D02*
D03*
X2000Y-340000D02*
D03*
X7000Y-355000D02*
D03*
X35000Y-440000D02*
D03*
X15000Y-402000D02*
D03*
X45000Y-314000D02*
D03*
X6751Y-321249D02*
D03*
X78000Y-339000D02*
D03*
X79000Y-369000D02*
D03*
X72000Y-387000D02*
D03*
X80000Y-411000D02*
D03*
X70000Y-400000D02*
D03*
X166774Y-416226D02*
D03*
X304000Y-925000D02*
D03*
X-187000Y-564000D02*
D03*
X-68000Y-307000D02*
D03*
X-28000Y-471000D02*
D03*
X-165000Y-924000D02*
D03*
X-132000Y-888000D02*
D03*
X326000Y-384000D02*
D03*
X356000Y-412000D02*
D03*
X278158Y-431199D02*
D03*
X304000Y-427000D02*
D03*
X-244000Y-811000D02*
D03*
X79970Y-443599D02*
D03*
X74000Y-436000D02*
D03*
X67620Y-429419D02*
D03*
X-158000Y-400000D02*
D03*
X-144000Y-426000D02*
D03*
Y-434000D02*
D03*
X-140648Y-416352D02*
D03*
X-86000Y-411000D02*
D03*
X-84000Y-400000D02*
D03*
X-76000Y-390000D02*
D03*
X-11000Y-516000D02*
D03*
X3000Y-514000D02*
D03*
X17000Y-526000D02*
D03*
X-88000Y-419000D02*
D03*
X-45000Y-471000D02*
D03*
X-28000Y-445000D02*
D03*
X-218000Y-125000D02*
D03*
X-239500D02*
D03*
X-250250D02*
D03*
X-261000D02*
D03*
D03*
X-228750D02*
D03*
D03*
Y-134000D02*
D03*
X-218000D02*
D03*
X-239500D02*
D03*
X-250250D02*
D03*
X-261000D02*
D03*
X-23365Y-47751D02*
D03*
X-12615D02*
D03*
X-1865D02*
D03*
X19635D02*
D03*
X8885D02*
D03*
Y-38750D02*
D03*
D03*
X-23365D02*
D03*
D03*
X-12615D02*
D03*
X-1865D02*
D03*
X19635D02*
D03*
X203636Y-154750D02*
D03*
X214386D02*
D03*
X225135D02*
D03*
X246635D02*
D03*
X235885D02*
D03*
Y-145750D02*
D03*
D03*
X203636D02*
D03*
D03*
X214386D02*
D03*
X225135D02*
D03*
X246635D02*
D03*
X-333364Y-710750D02*
D03*
X-322615D02*
D03*
X-311864D02*
D03*
X-290365D02*
D03*
X-301115D02*
D03*
Y-701750D02*
D03*
D03*
X-333364D02*
D03*
D03*
X-322615D02*
D03*
X-311864D02*
D03*
X-290365D02*
D03*
X277635Y-732750D02*
D03*
X288386D02*
D03*
X299135D02*
D03*
X320635D02*
D03*
X309885D02*
D03*
Y-723750D02*
D03*
D03*
X277635D02*
D03*
D03*
X288386D02*
D03*
X299135D02*
D03*
X320635D02*
D03*
X182636Y-901750D02*
D03*
X193386D02*
D03*
X204135D02*
D03*
X225635D02*
D03*
X214885D02*
D03*
Y-892750D02*
D03*
D03*
X182636D02*
D03*
D03*
X193386D02*
D03*
X204135D02*
D03*
X225635D02*
D03*
X406636Y-950750D02*
D03*
X417385D02*
D03*
X428135D02*
D03*
X449635D02*
D03*
X438885D02*
D03*
Y-941750D02*
D03*
D03*
X406636D02*
D03*
D03*
X417385D02*
D03*
X428135D02*
D03*
X449635D02*
D03*
X83636Y-678750D02*
D03*
X94385D02*
D03*
X105135D02*
D03*
X126635D02*
D03*
X115885D02*
D03*
Y-669750D02*
D03*
D03*
X83636D02*
D03*
D03*
X94385D02*
D03*
X105135D02*
D03*
X126635D02*
D03*
X-117000Y-711000D02*
D03*
X-107121D02*
D03*
X-87365D02*
D03*
X-97243D02*
D03*
Y-701000D02*
D03*
D03*
X-117000D02*
D03*
X-107121D02*
D03*
X-87365D02*
D03*
X-435364Y-294750D02*
D03*
X-424614D02*
D03*
X-413865D02*
D03*
X-392365D02*
D03*
X-403115D02*
D03*
Y-285750D02*
D03*
D03*
X-435364D02*
D03*
D03*
X-424614D02*
D03*
X-413865D02*
D03*
X-392365D02*
D03*
X391636Y-305750D02*
D03*
X402385D02*
D03*
X413135D02*
D03*
X434635D02*
D03*
X423885D02*
D03*
Y-296750D02*
D03*
D03*
X391636D02*
D03*
D03*
X402385D02*
D03*
X413135D02*
D03*
X434635D02*
D03*
X-158364Y-292750D02*
D03*
X-147614D02*
D03*
X-136865D02*
D03*
X-115365D02*
D03*
X-126115D02*
D03*
Y-283750D02*
D03*
D03*
X-158364D02*
D03*
D03*
X-147614D02*
D03*
X-136865D02*
D03*
X-115365D02*
D03*
X99635Y-309750D02*
D03*
X110386D02*
D03*
X121136D02*
D03*
X142635D02*
D03*
X131885D02*
D03*
Y-300750D02*
D03*
D03*
X99635D02*
D03*
D03*
X110386D02*
D03*
X121136D02*
D03*
X142635D02*
D03*
X189636Y-570750D02*
D03*
X200385D02*
D03*
X211136D02*
D03*
X232635D02*
D03*
X221885D02*
D03*
Y-561750D02*
D03*
D03*
X189636D02*
D03*
D03*
X200385D02*
D03*
X211136D02*
D03*
X232635D02*
D03*
X2750Y-440864D02*
D03*
Y-419365D02*
D03*
Y-430115D02*
D03*
X-6250D02*
D03*
D03*
Y-451614D02*
D03*
Y-440864D02*
D03*
Y-419365D02*
D03*
X-359249Y-483365D02*
D03*
Y-504865D02*
D03*
Y-515615D02*
D03*
Y-526365D02*
D03*
D03*
Y-494115D02*
D03*
D03*
X-350249D02*
D03*
Y-483365D02*
D03*
Y-504865D02*
D03*
Y-515615D02*
D03*
Y-526365D02*
D03*
X-401250Y-935365D02*
D03*
Y-956864D02*
D03*
Y-967615D02*
D03*
Y-978364D02*
D03*
D03*
Y-946115D02*
D03*
D03*
X-392250D02*
D03*
Y-935365D02*
D03*
Y-956864D02*
D03*
Y-967615D02*
D03*
Y-978364D02*
D03*
M02*
