G04*
G04 #@! TF.GenerationSoftware,Altium Limited,Altium Designer,22.1.2 (22)*
G04*
G04 Layer_Color=2752767*
%FSLAX44Y44*%
%MOMM*%
G71*
G04*
G04 #@! TF.SameCoordinates,E4277ABF-2EF0-4229-B20A-5B57AAE43606*
G04*
G04*
G04 #@! TF.FilePolarity,Positive*
G04*
G01*
G75*
%ADD113C,0.0508*%
%ADD114C,0.0677*%
D113*
X330990Y-358032D02*
Y-353968D01*
X335054D01*
Y-358032D01*
X330990D01*
X305991D02*
Y-353968D01*
X310055D01*
Y-358032D01*
X305991D01*
X280991D02*
Y-353968D01*
X285054D01*
Y-358032D01*
X280991D01*
X217968D02*
Y-353968D01*
X222032D01*
Y-358032D01*
X217968D01*
X192968D02*
Y-353968D01*
X197032D01*
Y-358032D01*
X192968D01*
X167968D02*
Y-353968D01*
X172032D01*
Y-358032D01*
X167968D01*
X-177010D02*
Y-353968D01*
X-172946D01*
Y-358032D01*
X-177010D01*
X-202009D02*
Y-353968D01*
X-197945D01*
Y-358032D01*
X-202009D01*
X-227010D02*
Y-353968D01*
X-222945D01*
Y-358032D01*
X-227010D01*
X-290032D02*
Y-353968D01*
X-285968D01*
Y-358032D01*
X-290032D01*
X-315032D02*
Y-353968D01*
X-310968D01*
Y-358032D01*
X-315032D01*
X-340032D02*
Y-353968D01*
X-335968D01*
Y-358032D01*
X-340032D01*
X42000Y-642232D02*
X39968Y-638168D01*
X44032D01*
X42000Y-642232D01*
Y-667632D02*
X39968Y-663568D01*
X44032D01*
X42000Y-667632D01*
Y-693032D02*
X39968Y-688968D01*
X44032D01*
X42000Y-693032D01*
Y-718432D02*
X39968Y-714368D01*
X44032D01*
X42000Y-718432D01*
Y-743832D02*
X39968Y-739768D01*
X44032D01*
X42000Y-743832D01*
Y-769232D02*
X39968Y-765168D01*
X44032D01*
X42000Y-769232D01*
X-48000Y-642232D02*
X-50032Y-638168D01*
X-45968D01*
X-48000Y-642232D01*
Y-667632D02*
X-50032Y-663568D01*
X-45968D01*
X-48000Y-667632D01*
Y-693032D02*
X-50032Y-688968D01*
X-45968D01*
X-48000Y-693032D01*
Y-718432D02*
X-50032Y-714368D01*
X-45968D01*
X-48000Y-718432D01*
Y-743832D02*
X-50032Y-739768D01*
X-45968D01*
X-48000Y-743832D01*
Y-769232D02*
X-50032Y-765168D01*
X-45968D01*
X-48000Y-769232D01*
X299000Y-1069032D02*
X300016Y-1068016D01*
X301032D01*
X300016Y-1067000D01*
X301032Y-1065984D01*
X300016D01*
X299000Y-1064968D01*
X297984Y-1065984D01*
X296968D01*
X297984Y-1067000D01*
X296968Y-1068016D01*
X297984D01*
X299000Y-1069032D01*
Y-993032D02*
X300016Y-992016D01*
X301032D01*
X300016Y-991000D01*
X301032Y-989984D01*
X300016D01*
X299000Y-988968D01*
X297984Y-989984D01*
X296968D01*
X297984Y-991000D01*
X296968Y-992016D01*
X297984D01*
X299000Y-993032D01*
X-184032Y-425032D02*
X-183016Y-423000D01*
X-184032Y-420968D01*
X-182000Y-421984D01*
X-179968Y-420968D01*
X-180984Y-423000D01*
X-179968Y-425032D01*
X-182000Y-424016D01*
X-184032Y-425032D01*
Y-445032D02*
X-183016Y-443000D01*
X-184032Y-440968D01*
X-182000Y-441984D01*
X-179968Y-440968D01*
X-180984Y-443000D01*
X-179968Y-445032D01*
X-182000Y-444016D01*
X-184032Y-445032D01*
Y-465032D02*
X-183016Y-463000D01*
X-184032Y-460968D01*
X-182000Y-461984D01*
X-179968Y-460968D01*
X-180984Y-463000D01*
X-179968Y-465032D01*
X-182000Y-464016D01*
X-184032Y-465032D01*
Y-485032D02*
X-183016Y-483000D01*
X-184032Y-480968D01*
X-182000Y-481984D01*
X-179968Y-480968D01*
X-180984Y-483000D01*
X-179968Y-485032D01*
X-182000Y-484016D01*
X-184032Y-485032D01*
Y-505032D02*
X-183016Y-503000D01*
X-184032Y-500968D01*
X-182000Y-501984D01*
X-179968Y-500968D01*
X-180984Y-503000D01*
X-179968Y-505032D01*
X-182000Y-504016D01*
X-184032Y-505032D01*
Y-525032D02*
X-183016Y-523000D01*
X-184032Y-520968D01*
X-182000Y-521984D01*
X-179968Y-520968D01*
X-180984Y-523000D01*
X-179968Y-525032D01*
X-182000Y-524016D01*
X-184032Y-525032D01*
Y-545032D02*
X-183016Y-543000D01*
X-184032Y-540968D01*
X-182000Y-541984D01*
X-179968Y-540968D01*
X-180984Y-543000D01*
X-179968Y-545032D01*
X-182000Y-544016D01*
X-184032Y-545032D01*
X-461032Y-1033532D02*
Y-1029468D01*
X-456968D01*
Y-1033532D01*
X-461032D01*
Y-1008532D02*
Y-1004468D01*
X-456968D01*
Y-1008532D01*
X-461032D01*
Y-983532D02*
Y-979468D01*
X-456968D01*
Y-983532D01*
X-461032D01*
X-84600Y-531632D02*
X-86632Y-527568D01*
X-82568D01*
X-84600Y-531632D01*
Y-557032D02*
X-86632Y-552968D01*
X-82568D01*
X-84600Y-557032D01*
X-110000Y-531632D02*
X-112032Y-527568D01*
X-107968D01*
X-110000Y-531632D01*
Y-557032D02*
X-112032Y-552968D01*
X-107968D01*
X-110000Y-557032D01*
X-135400Y-531632D02*
X-137432Y-527568D01*
X-133368D01*
X-135400Y-531632D01*
Y-557032D02*
X-137432Y-552968D01*
X-133368D01*
X-135400Y-557032D01*
X-110016Y-422816D02*
Y-423832D01*
X-107984D01*
Y-422816D01*
X-106968D01*
Y-420784D01*
X-107984D01*
Y-419768D01*
X-110016D01*
Y-420784D01*
X-111032D01*
Y-422816D01*
X-110016D01*
Y-397416D02*
Y-398432D01*
X-107984D01*
Y-397416D01*
X-106968D01*
Y-395384D01*
X-107984D01*
Y-394368D01*
X-110016D01*
Y-395384D01*
X-111032D01*
Y-397416D01*
X-110016D01*
Y-372016D02*
Y-373032D01*
X-107984D01*
Y-372016D01*
X-106968D01*
Y-369984D01*
X-107984D01*
Y-368968D01*
X-110016D01*
Y-369984D01*
X-111032D01*
Y-372016D01*
X-110016D01*
Y-346616D02*
Y-347632D01*
X-107984D01*
Y-346616D01*
X-106968D01*
Y-344584D01*
X-107984D01*
Y-343568D01*
X-110016D01*
Y-344584D01*
X-111032D01*
Y-346616D01*
X-110016D01*
X-194532Y-612032D02*
X-193516D01*
X-192500Y-611016D01*
X-191484Y-612032D01*
X-190468D01*
Y-611016D01*
X-191484Y-610000D01*
X-190468Y-608984D01*
Y-607968D01*
X-191484D01*
X-192500Y-608984D01*
X-193516Y-607968D01*
X-194532D01*
Y-608984D01*
X-193516Y-610000D01*
X-194532Y-611016D01*
Y-612032D01*
Y-792032D02*
X-193516D01*
X-192500Y-791016D01*
X-191484Y-792032D01*
X-190468D01*
Y-791016D01*
X-191484Y-790000D01*
X-190468Y-788984D01*
Y-787968D01*
X-191484D01*
X-192500Y-788984D01*
X-193516Y-787968D01*
X-194532D01*
Y-788984D01*
X-193516Y-790000D01*
X-194532Y-791016D01*
Y-792032D01*
X190468D02*
X191484D01*
X192500Y-791016D01*
X193516Y-792032D01*
X194532D01*
Y-791016D01*
X193516Y-790000D01*
X194532Y-788984D01*
Y-787968D01*
X193516D01*
X192500Y-788984D01*
X191484Y-787968D01*
X190468D01*
Y-788984D01*
X191484Y-790000D01*
X190468Y-791016D01*
Y-792032D01*
Y-612032D02*
X191484D01*
X192500Y-611016D01*
X193516Y-612032D01*
X194532D01*
Y-611016D01*
X193516Y-610000D01*
X194532Y-608984D01*
Y-607968D01*
X193516D01*
X192500Y-608984D01*
X191484Y-607968D01*
X190468D01*
Y-608984D01*
X191484Y-610000D01*
X190468Y-611016D01*
Y-612032D01*
X-394282Y-978364D02*
X-392250Y-976332D01*
X-390218Y-978364D01*
X-392250Y-980396D01*
X-394282Y-978364D01*
Y-967615D02*
X-392250Y-965583D01*
X-390218Y-967615D01*
X-392250Y-969647D01*
X-394282Y-967615D01*
Y-956864D02*
X-392250Y-954833D01*
X-390218Y-956864D01*
X-392250Y-958896D01*
X-394282Y-956864D01*
Y-935365D02*
X-392250Y-933333D01*
X-390218Y-935365D01*
X-392250Y-937397D01*
X-394282Y-935365D01*
Y-946115D02*
X-392250Y-944082D01*
X-390218Y-946115D01*
X-392250Y-948147D01*
X-394282Y-946115D01*
X-403282D02*
X-401250Y-944082D01*
X-399218Y-946115D01*
X-401250Y-948147D01*
X-403282Y-946115D01*
X-401250Y-944082D01*
X-399218Y-946115D01*
X-401250Y-948147D01*
X-403282Y-946115D01*
Y-978364D02*
X-401250Y-976332D01*
X-399218Y-978364D01*
X-401250Y-980396D01*
X-403282Y-978364D01*
X-401250Y-976332D01*
X-399218Y-978364D01*
X-401250Y-980396D01*
X-403282Y-978364D01*
Y-967615D02*
X-401250Y-965583D01*
X-399218Y-967615D01*
X-401250Y-969647D01*
X-403282Y-967615D01*
Y-956864D02*
X-401250Y-954833D01*
X-399218Y-956864D01*
X-401250Y-958896D01*
X-403282Y-956864D01*
Y-935365D02*
X-401250Y-933333D01*
X-399218Y-935365D01*
X-401250Y-937397D01*
X-403282Y-935365D01*
X-352281Y-526365D02*
X-350249Y-524333D01*
X-348218Y-526365D01*
X-350249Y-528396D01*
X-352281Y-526365D01*
Y-515615D02*
X-350249Y-513582D01*
X-348218Y-515615D01*
X-350249Y-517646D01*
X-352281Y-515615D01*
Y-504865D02*
X-350249Y-502832D01*
X-348218Y-504865D01*
X-350249Y-506897D01*
X-352281Y-504865D01*
Y-483365D02*
X-350249Y-481333D01*
X-348218Y-483365D01*
X-350249Y-485397D01*
X-352281Y-483365D01*
Y-494115D02*
X-350249Y-492083D01*
X-348218Y-494115D01*
X-350249Y-496147D01*
X-352281Y-494115D01*
X-361282D02*
X-359249Y-492083D01*
X-357217Y-494115D01*
X-359249Y-496147D01*
X-361282Y-494115D01*
X-359249Y-492083D01*
X-357217Y-494115D01*
X-359249Y-496147D01*
X-361282Y-494115D01*
Y-526365D02*
X-359249Y-524333D01*
X-357217Y-526365D01*
X-359249Y-528396D01*
X-361282Y-526365D01*
X-359249Y-524333D01*
X-357217Y-526365D01*
X-359249Y-528396D01*
X-361282Y-526365D01*
Y-515615D02*
X-359249Y-513582D01*
X-357217Y-515615D01*
X-359249Y-517646D01*
X-361282Y-515615D01*
Y-504865D02*
X-359249Y-502832D01*
X-357217Y-504865D01*
X-359249Y-506897D01*
X-361282Y-504865D01*
Y-483365D02*
X-359249Y-481333D01*
X-357217Y-483365D01*
X-359249Y-485397D01*
X-361282Y-483365D01*
X-8282Y-419365D02*
X-6250Y-417333D01*
X-4218Y-419365D01*
X-6250Y-421397D01*
X-8282Y-419365D01*
Y-440864D02*
X-6250Y-438833D01*
X-4218Y-440864D01*
X-6250Y-442896D01*
X-8282Y-440864D01*
Y-451614D02*
X-6250Y-449582D01*
X-4218Y-451614D01*
X-6250Y-453647D01*
X-8282Y-451614D01*
Y-430115D02*
X-6250Y-428083D01*
X-4218Y-430115D01*
X-6250Y-432147D01*
X-8282Y-430115D01*
X-6250Y-428083D01*
X-4218Y-430115D01*
X-6250Y-432147D01*
X-8282Y-430115D01*
X718D02*
X2750Y-428083D01*
X4782Y-430115D01*
X2750Y-432147D01*
X718Y-430115D01*
Y-419365D02*
X2750Y-417333D01*
X4782Y-419365D01*
X2750Y-421397D01*
X718Y-419365D01*
Y-440864D02*
X2750Y-438833D01*
X4782Y-440864D01*
X2750Y-442896D01*
X718Y-440864D01*
X230603Y-561750D02*
X232635Y-559718D01*
X234667Y-561750D01*
X232635Y-563782D01*
X230603Y-561750D01*
X209104D02*
X211136Y-559718D01*
X213167Y-561750D01*
X211136Y-563782D01*
X209104Y-561750D01*
X198354D02*
X200385Y-559718D01*
X202418Y-561750D01*
X200385Y-563782D01*
X198354Y-561750D01*
X187603D02*
X189636Y-559718D01*
X191667Y-561750D01*
X189636Y-563782D01*
X187603Y-561750D01*
X189636Y-559718D01*
X191667Y-561750D01*
X189636Y-563782D01*
X187603Y-561750D01*
X219853D02*
X221885Y-559718D01*
X223917Y-561750D01*
X221885Y-563782D01*
X219853Y-561750D01*
X221885Y-559718D01*
X223917Y-561750D01*
X221885Y-563782D01*
X219853Y-561750D01*
Y-570750D02*
X221885Y-568718D01*
X223917Y-570750D01*
X221885Y-572782D01*
X219853Y-570750D01*
X230603D02*
X232635Y-568718D01*
X234667Y-570750D01*
X232635Y-572782D01*
X230603Y-570750D01*
X209104D02*
X211136Y-568718D01*
X213167Y-570750D01*
X211136Y-572782D01*
X209104Y-570750D01*
X198354D02*
X200385Y-568718D01*
X202418Y-570750D01*
X200385Y-572782D01*
X198354Y-570750D01*
X187603D02*
X189636Y-568718D01*
X191667Y-570750D01*
X189636Y-572782D01*
X187603Y-570750D01*
X140603Y-300750D02*
X142635Y-298718D01*
X144667Y-300750D01*
X142635Y-302782D01*
X140603Y-300750D01*
X119103D02*
X121136Y-298718D01*
X123167Y-300750D01*
X121136Y-302782D01*
X119103Y-300750D01*
X108354D02*
X110386Y-298718D01*
X112417Y-300750D01*
X110386Y-302782D01*
X108354Y-300750D01*
X97604D02*
X99635Y-298718D01*
X101667Y-300750D01*
X99635Y-302782D01*
X97604Y-300750D01*
X99635Y-298718D01*
X101667Y-300750D01*
X99635Y-302782D01*
X97604Y-300750D01*
X129853D02*
X131885Y-298718D01*
X133917Y-300750D01*
X131885Y-302782D01*
X129853Y-300750D01*
X131885Y-298718D01*
X133917Y-300750D01*
X131885Y-302782D01*
X129853Y-300750D01*
Y-309750D02*
X131885Y-307718D01*
X133917Y-309750D01*
X131885Y-311782D01*
X129853Y-309750D01*
X140603D02*
X142635Y-307718D01*
X144667Y-309750D01*
X142635Y-311782D01*
X140603Y-309750D01*
X119103D02*
X121136Y-307718D01*
X123167Y-309750D01*
X121136Y-311782D01*
X119103Y-309750D01*
X108354D02*
X110386Y-307718D01*
X112417Y-309750D01*
X110386Y-311782D01*
X108354Y-309750D01*
X97604D02*
X99635Y-307718D01*
X101667Y-309750D01*
X99635Y-311782D01*
X97604Y-309750D01*
X-117397Y-283750D02*
X-115365Y-281718D01*
X-113333Y-283750D01*
X-115365Y-285782D01*
X-117397Y-283750D01*
X-138897D02*
X-136865Y-281718D01*
X-134832Y-283750D01*
X-136865Y-285782D01*
X-138897Y-283750D01*
X-149647D02*
X-147614Y-281718D01*
X-145583Y-283750D01*
X-147614Y-285782D01*
X-149647Y-283750D01*
X-160396D02*
X-158364Y-281718D01*
X-156333Y-283750D01*
X-158364Y-285782D01*
X-160396Y-283750D01*
X-158364Y-281718D01*
X-156333Y-283750D01*
X-158364Y-285782D01*
X-160396Y-283750D01*
X-128147D02*
X-126115Y-281718D01*
X-124083Y-283750D01*
X-126115Y-285782D01*
X-128147Y-283750D01*
X-126115Y-281718D01*
X-124083Y-283750D01*
X-126115Y-285782D01*
X-128147Y-283750D01*
Y-292750D02*
X-126115Y-290718D01*
X-124083Y-292750D01*
X-126115Y-294782D01*
X-128147Y-292750D01*
X-117397D02*
X-115365Y-290718D01*
X-113333Y-292750D01*
X-115365Y-294782D01*
X-117397Y-292750D01*
X-138897D02*
X-136865Y-290718D01*
X-134832Y-292750D01*
X-136865Y-294782D01*
X-138897Y-292750D01*
X-149647D02*
X-147614Y-290718D01*
X-145583Y-292750D01*
X-147614Y-294782D01*
X-149647Y-292750D01*
X-160396D02*
X-158364Y-290718D01*
X-156333Y-292750D01*
X-158364Y-294782D01*
X-160396Y-292750D01*
X432603Y-296750D02*
X434635Y-294718D01*
X436667Y-296750D01*
X434635Y-298782D01*
X432603Y-296750D01*
X411104D02*
X413135Y-294718D01*
X415168Y-296750D01*
X413135Y-298782D01*
X411104Y-296750D01*
X400354D02*
X402385Y-294718D01*
X404417Y-296750D01*
X402385Y-298782D01*
X400354Y-296750D01*
X389604D02*
X391636Y-294718D01*
X393667Y-296750D01*
X391636Y-298782D01*
X389604Y-296750D01*
X391636Y-294718D01*
X393667Y-296750D01*
X391636Y-298782D01*
X389604Y-296750D01*
X421853D02*
X423885Y-294718D01*
X425917Y-296750D01*
X423885Y-298782D01*
X421853Y-296750D01*
X423885Y-294718D01*
X425917Y-296750D01*
X423885Y-298782D01*
X421853Y-296750D01*
Y-305750D02*
X423885Y-303718D01*
X425917Y-305750D01*
X423885Y-307782D01*
X421853Y-305750D01*
X432603D02*
X434635Y-303718D01*
X436667Y-305750D01*
X434635Y-307782D01*
X432603Y-305750D01*
X411104D02*
X413135Y-303718D01*
X415168Y-305750D01*
X413135Y-307782D01*
X411104Y-305750D01*
X400354D02*
X402385Y-303718D01*
X404417Y-305750D01*
X402385Y-307782D01*
X400354Y-305750D01*
X389604D02*
X391636Y-303718D01*
X393667Y-305750D01*
X391636Y-307782D01*
X389604Y-305750D01*
X-394397Y-285750D02*
X-392365Y-283718D01*
X-390333Y-285750D01*
X-392365Y-287782D01*
X-394397Y-285750D01*
X-415896D02*
X-413865Y-283718D01*
X-411833Y-285750D01*
X-413865Y-287782D01*
X-415896Y-285750D01*
X-426646D02*
X-424614Y-283718D01*
X-422583Y-285750D01*
X-424614Y-287782D01*
X-426646Y-285750D01*
X-437397D02*
X-435364Y-283718D01*
X-433332Y-285750D01*
X-435364Y-287782D01*
X-437397Y-285750D01*
X-435364Y-283718D01*
X-433332Y-285750D01*
X-435364Y-287782D01*
X-437397Y-285750D01*
X-405147D02*
X-403115Y-283718D01*
X-401083Y-285750D01*
X-403115Y-287782D01*
X-405147Y-285750D01*
X-403115Y-283718D01*
X-401083Y-285750D01*
X-403115Y-287782D01*
X-405147Y-285750D01*
Y-294750D02*
X-403115Y-292718D01*
X-401083Y-294750D01*
X-403115Y-296782D01*
X-405147Y-294750D01*
X-394397D02*
X-392365Y-292718D01*
X-390333Y-294750D01*
X-392365Y-296782D01*
X-394397Y-294750D01*
X-415896D02*
X-413865Y-292718D01*
X-411833Y-294750D01*
X-413865Y-296782D01*
X-415896Y-294750D01*
X-426646D02*
X-424614Y-292718D01*
X-422583Y-294750D01*
X-424614Y-296782D01*
X-426646Y-294750D01*
X-437397D02*
X-435364Y-292718D01*
X-433332Y-294750D01*
X-435364Y-296782D01*
X-437397Y-294750D01*
X-89397Y-701000D02*
X-87365Y-698968D01*
X-85333Y-701000D01*
X-87365Y-703032D01*
X-89397Y-701000D01*
X-109153D02*
X-107121Y-698968D01*
X-105090Y-701000D01*
X-107121Y-703032D01*
X-109153Y-701000D01*
X-119032D02*
X-117000Y-698968D01*
X-114968Y-701000D01*
X-117000Y-703032D01*
X-119032Y-701000D01*
X-99275D02*
X-97243Y-698968D01*
X-95211Y-701000D01*
X-97243Y-703032D01*
X-99275Y-701000D01*
X-97243Y-698968D01*
X-95211Y-701000D01*
X-97243Y-703032D01*
X-99275Y-701000D01*
Y-711000D02*
X-97243Y-708968D01*
X-95211Y-711000D01*
X-97243Y-713032D01*
X-99275Y-711000D01*
X-89397D02*
X-87365Y-708968D01*
X-85333Y-711000D01*
X-87365Y-713032D01*
X-89397Y-711000D01*
X-109153D02*
X-107121Y-708968D01*
X-105090Y-711000D01*
X-107121Y-713032D01*
X-109153Y-711000D01*
X-119032D02*
X-117000Y-708968D01*
X-114968Y-711000D01*
X-117000Y-713032D01*
X-119032Y-711000D01*
X124603Y-669750D02*
X126635Y-667718D01*
X128667Y-669750D01*
X126635Y-671782D01*
X124603Y-669750D01*
X103104D02*
X105135Y-667718D01*
X107168Y-669750D01*
X105135Y-671782D01*
X103104Y-669750D01*
X92353D02*
X94385Y-667718D01*
X96418Y-669750D01*
X94385Y-671782D01*
X92353Y-669750D01*
X81603D02*
X83636Y-667718D01*
X85667Y-669750D01*
X83636Y-671782D01*
X81603Y-669750D01*
X83636Y-667718D01*
X85667Y-669750D01*
X83636Y-671782D01*
X81603Y-669750D01*
X113853D02*
X115885Y-667718D01*
X117917Y-669750D01*
X115885Y-671782D01*
X113853Y-669750D01*
X115885Y-667718D01*
X117917Y-669750D01*
X115885Y-671782D01*
X113853Y-669750D01*
Y-678750D02*
X115885Y-676718D01*
X117917Y-678750D01*
X115885Y-680782D01*
X113853Y-678750D01*
X124603D02*
X126635Y-676718D01*
X128667Y-678750D01*
X126635Y-680782D01*
X124603Y-678750D01*
X103104D02*
X105135Y-676718D01*
X107168Y-678750D01*
X105135Y-680782D01*
X103104Y-678750D01*
X92353D02*
X94385Y-676718D01*
X96418Y-678750D01*
X94385Y-680782D01*
X92353Y-678750D01*
X81603D02*
X83636Y-676718D01*
X85667Y-678750D01*
X83636Y-680782D01*
X81603Y-678750D01*
X447603Y-941750D02*
X449635Y-939718D01*
X451667Y-941750D01*
X449635Y-943782D01*
X447603Y-941750D01*
X426104D02*
X428135Y-939718D01*
X430168Y-941750D01*
X428135Y-943782D01*
X426104Y-941750D01*
X415354D02*
X417385Y-939718D01*
X419417Y-941750D01*
X417385Y-943782D01*
X415354Y-941750D01*
X404604D02*
X406636Y-939718D01*
X408667Y-941750D01*
X406636Y-943782D01*
X404604Y-941750D01*
X406636Y-939718D01*
X408667Y-941750D01*
X406636Y-943782D01*
X404604Y-941750D01*
X436853D02*
X438885Y-939718D01*
X440917Y-941750D01*
X438885Y-943782D01*
X436853Y-941750D01*
X438885Y-939718D01*
X440917Y-941750D01*
X438885Y-943782D01*
X436853Y-941750D01*
Y-950750D02*
X438885Y-948718D01*
X440917Y-950750D01*
X438885Y-952782D01*
X436853Y-950750D01*
X447603D02*
X449635Y-948718D01*
X451667Y-950750D01*
X449635Y-952782D01*
X447603Y-950750D01*
X426104D02*
X428135Y-948718D01*
X430168Y-950750D01*
X428135Y-952782D01*
X426104Y-950750D01*
X415354D02*
X417385Y-948718D01*
X419417Y-950750D01*
X417385Y-952782D01*
X415354Y-950750D01*
X404604D02*
X406636Y-948718D01*
X408667Y-950750D01*
X406636Y-952782D01*
X404604Y-950750D01*
X223603Y-892750D02*
X225635Y-890718D01*
X227667Y-892750D01*
X225635Y-894782D01*
X223603Y-892750D01*
X202104D02*
X204135Y-890718D01*
X206168Y-892750D01*
X204135Y-894782D01*
X202104Y-892750D01*
X191353D02*
X193386Y-890718D01*
X195417Y-892750D01*
X193386Y-894782D01*
X191353Y-892750D01*
X180604D02*
X182636Y-890718D01*
X184668Y-892750D01*
X182636Y-894782D01*
X180604Y-892750D01*
X182636Y-890718D01*
X184668Y-892750D01*
X182636Y-894782D01*
X180604Y-892750D01*
X212853D02*
X214885Y-890718D01*
X216917Y-892750D01*
X214885Y-894782D01*
X212853Y-892750D01*
X214885Y-890718D01*
X216917Y-892750D01*
X214885Y-894782D01*
X212853Y-892750D01*
Y-901750D02*
X214885Y-899718D01*
X216917Y-901750D01*
X214885Y-903782D01*
X212853Y-901750D01*
X223603D02*
X225635Y-899718D01*
X227667Y-901750D01*
X225635Y-903782D01*
X223603Y-901750D01*
X202104D02*
X204135Y-899718D01*
X206168Y-901750D01*
X204135Y-903782D01*
X202104Y-901750D01*
X191353D02*
X193386Y-899718D01*
X195417Y-901750D01*
X193386Y-903782D01*
X191353Y-901750D01*
X180604D02*
X182636Y-899718D01*
X184668Y-901750D01*
X182636Y-903782D01*
X180604Y-901750D01*
X318603Y-723750D02*
X320635Y-721718D01*
X322667Y-723750D01*
X320635Y-725782D01*
X318603Y-723750D01*
X297104D02*
X299135Y-721718D01*
X301168Y-723750D01*
X299135Y-725782D01*
X297104Y-723750D01*
X286353D02*
X288386Y-721718D01*
X290417Y-723750D01*
X288386Y-725782D01*
X286353Y-723750D01*
X275604D02*
X277635Y-721718D01*
X279667Y-723750D01*
X277635Y-725782D01*
X275604Y-723750D01*
X277635Y-721718D01*
X279667Y-723750D01*
X277635Y-725782D01*
X275604Y-723750D01*
X307853D02*
X309885Y-721718D01*
X311917Y-723750D01*
X309885Y-725782D01*
X307853Y-723750D01*
X309885Y-721718D01*
X311917Y-723750D01*
X309885Y-725782D01*
X307853Y-723750D01*
Y-732750D02*
X309885Y-730719D01*
X311917Y-732750D01*
X309885Y-734782D01*
X307853Y-732750D01*
X318603D02*
X320635Y-730719D01*
X322667Y-732750D01*
X320635Y-734782D01*
X318603Y-732750D01*
X297104D02*
X299135Y-730719D01*
X301168Y-732750D01*
X299135Y-734782D01*
X297104Y-732750D01*
X286353D02*
X288386Y-730719D01*
X290417Y-732750D01*
X288386Y-734782D01*
X286353Y-732750D01*
X275604D02*
X277635Y-730719D01*
X279667Y-732750D01*
X277635Y-734782D01*
X275604Y-732750D01*
X-292397Y-701750D02*
X-290365Y-699718D01*
X-288333Y-701750D01*
X-290365Y-703782D01*
X-292397Y-701750D01*
X-313897D02*
X-311864Y-699718D01*
X-309832Y-701750D01*
X-311864Y-703782D01*
X-313897Y-701750D01*
X-324646D02*
X-322615Y-699718D01*
X-320583Y-701750D01*
X-322615Y-703782D01*
X-324646Y-701750D01*
X-335396D02*
X-333364Y-699718D01*
X-331333Y-701750D01*
X-333364Y-703782D01*
X-335396Y-701750D01*
X-333364Y-699718D01*
X-331333Y-701750D01*
X-333364Y-703782D01*
X-335396Y-701750D01*
X-303147D02*
X-301115Y-699718D01*
X-299083Y-701750D01*
X-301115Y-703782D01*
X-303147Y-701750D01*
X-301115Y-699718D01*
X-299083Y-701750D01*
X-301115Y-703782D01*
X-303147Y-701750D01*
Y-710750D02*
X-301115Y-708718D01*
X-299083Y-710750D01*
X-301115Y-712782D01*
X-303147Y-710750D01*
X-292397D02*
X-290365Y-708718D01*
X-288333Y-710750D01*
X-290365Y-712782D01*
X-292397Y-710750D01*
X-313897D02*
X-311864Y-708718D01*
X-309832Y-710750D01*
X-311864Y-712782D01*
X-313897Y-710750D01*
X-324646D02*
X-322615Y-708718D01*
X-320583Y-710750D01*
X-322615Y-712782D01*
X-324646Y-710750D01*
X-335396D02*
X-333364Y-708718D01*
X-331333Y-710750D01*
X-333364Y-712782D01*
X-335396Y-710750D01*
X244603Y-145750D02*
X246635Y-143718D01*
X248667Y-145750D01*
X246635Y-147782D01*
X244603Y-145750D01*
X223104D02*
X225135Y-143718D01*
X227167Y-145750D01*
X225135Y-147782D01*
X223104Y-145750D01*
X212353D02*
X214386Y-143718D01*
X216418Y-145750D01*
X214386Y-147782D01*
X212353Y-145750D01*
X201604D02*
X203636Y-143718D01*
X205667Y-145750D01*
X203636Y-147782D01*
X201604Y-145750D01*
X203636Y-143718D01*
X205667Y-145750D01*
X203636Y-147782D01*
X201604Y-145750D01*
X233853D02*
X235885Y-143718D01*
X237917Y-145750D01*
X235885Y-147782D01*
X233853Y-145750D01*
X235885Y-143718D01*
X237917Y-145750D01*
X235885Y-147782D01*
X233853Y-145750D01*
Y-154750D02*
X235885Y-152718D01*
X237917Y-154750D01*
X235885Y-156782D01*
X233853Y-154750D01*
X244603D02*
X246635Y-152718D01*
X248667Y-154750D01*
X246635Y-156782D01*
X244603Y-154750D01*
X223104D02*
X225135Y-152718D01*
X227167Y-154750D01*
X225135Y-156782D01*
X223104Y-154750D01*
X212353D02*
X214386Y-152718D01*
X216418Y-154750D01*
X214386Y-156782D01*
X212353Y-154750D01*
X201604D02*
X203636Y-152718D01*
X205667Y-154750D01*
X203636Y-156782D01*
X201604Y-154750D01*
X17603Y-38750D02*
X19635Y-36718D01*
X21667Y-38750D01*
X19635Y-40782D01*
X17603Y-38750D01*
X-3896D02*
X-1865Y-36718D01*
X168Y-38750D01*
X-1865Y-40782D01*
X-3896Y-38750D01*
X-14647D02*
X-12615Y-36718D01*
X-10582Y-38750D01*
X-12615Y-40782D01*
X-14647Y-38750D01*
X-25396D02*
X-23365Y-36718D01*
X-21332Y-38750D01*
X-23365Y-40782D01*
X-25396Y-38750D01*
X-23365Y-36718D01*
X-21332Y-38750D01*
X-23365Y-40782D01*
X-25396Y-38750D01*
X6853D02*
X8885Y-36718D01*
X10917Y-38750D01*
X8885Y-40782D01*
X6853Y-38750D01*
X8885Y-36718D01*
X10917Y-38750D01*
X8885Y-40782D01*
X6853Y-38750D01*
Y-47751D02*
X8885Y-45718D01*
X10917Y-47751D01*
X8885Y-49783D01*
X6853Y-47751D01*
X17603D02*
X19635Y-45718D01*
X21667Y-47751D01*
X19635Y-49783D01*
X17603Y-47751D01*
X-3896D02*
X-1865Y-45718D01*
X168Y-47751D01*
X-1865Y-49783D01*
X-3896Y-47751D01*
X-14647D02*
X-12615Y-45718D01*
X-10582Y-47751D01*
X-12615Y-49783D01*
X-14647Y-47751D01*
X-25396D02*
X-23365Y-45718D01*
X-21332Y-47751D01*
X-23365Y-49783D01*
X-25396Y-47751D01*
X-263032Y-134000D02*
X-261000Y-131968D01*
X-258968Y-134000D01*
X-261000Y-136032D01*
X-263032Y-134000D01*
X-252282D02*
X-250250Y-131968D01*
X-248218Y-134000D01*
X-250250Y-136032D01*
X-252282Y-134000D01*
X-241532D02*
X-239500Y-131968D01*
X-237468Y-134000D01*
X-239500Y-136032D01*
X-241532Y-134000D01*
X-220032D02*
X-218000Y-131968D01*
X-215968Y-134000D01*
X-218000Y-136032D01*
X-220032Y-134000D01*
X-230782D02*
X-228750Y-131968D01*
X-226718Y-134000D01*
X-228750Y-136032D01*
X-230782Y-134000D01*
Y-125000D02*
X-228750Y-122968D01*
X-226718Y-125000D01*
X-228750Y-127032D01*
X-230782Y-125000D01*
X-228750Y-122968D01*
X-226718Y-125000D01*
X-228750Y-127032D01*
X-230782Y-125000D01*
X-263032D02*
X-261000Y-122968D01*
X-258968Y-125000D01*
X-261000Y-127032D01*
X-263032Y-125000D01*
X-261000Y-122968D01*
X-258968Y-125000D01*
X-261000Y-127032D01*
X-263032Y-125000D01*
X-252282D02*
X-250250Y-122968D01*
X-248218Y-125000D01*
X-250250Y-127032D01*
X-252282Y-125000D01*
X-241532D02*
X-239500Y-122968D01*
X-237468Y-125000D01*
X-239500Y-127032D01*
X-241532Y-125000D01*
X-220032D02*
X-218000Y-122968D01*
X-215968Y-125000D01*
X-218000Y-127032D01*
X-220032Y-125000D01*
X-250032Y-574000D02*
X-248000Y-571968D01*
X-245968Y-574000D01*
X-248000Y-576032D01*
X-250032Y-574000D01*
X-30032Y-445000D02*
X-28000Y-442968D01*
X-25968Y-445000D01*
X-28000Y-447032D01*
X-30032Y-445000D01*
X-47032Y-471000D02*
X-45000Y-468968D01*
X-42968Y-471000D01*
X-45000Y-473032D01*
X-47032Y-471000D01*
X-90032Y-419000D02*
X-88000Y-416968D01*
X-85968Y-419000D01*
X-88000Y-421032D01*
X-90032Y-419000D01*
X14968Y-526000D02*
X17000Y-523968D01*
X19032Y-526000D01*
X17000Y-528032D01*
X14968Y-526000D01*
X968Y-514000D02*
X3000Y-511968D01*
X5032Y-514000D01*
X3000Y-516032D01*
X968Y-514000D01*
X-13032Y-516000D02*
X-11000Y-513968D01*
X-8968Y-516000D01*
X-11000Y-518032D01*
X-13032Y-516000D01*
X-78032Y-390000D02*
X-76000Y-387968D01*
X-73968Y-390000D01*
X-76000Y-392032D01*
X-78032Y-390000D01*
X-86032Y-400000D02*
X-84000Y-397968D01*
X-81968Y-400000D01*
X-84000Y-402032D01*
X-86032Y-400000D01*
X-88032Y-411000D02*
X-86000Y-408968D01*
X-83968Y-411000D01*
X-86000Y-413032D01*
X-88032Y-411000D01*
X-142680Y-416352D02*
X-140648Y-414320D01*
X-138616Y-416352D01*
X-140648Y-418384D01*
X-142680Y-416352D01*
X-146032Y-434000D02*
X-144000Y-431968D01*
X-141968Y-434000D01*
X-144000Y-436032D01*
X-146032Y-434000D01*
Y-426000D02*
X-144000Y-423968D01*
X-141968Y-426000D01*
X-144000Y-428032D01*
X-146032Y-426000D01*
X-160032Y-400000D02*
X-158000Y-397968D01*
X-155968Y-400000D01*
X-158000Y-402032D01*
X-160032Y-400000D01*
X-185032Y-385000D02*
X-183000Y-382968D01*
X-180968Y-385000D01*
X-183000Y-387032D01*
X-185032Y-385000D01*
X-126032Y-598000D02*
X-124000Y-595968D01*
X-121968Y-598000D01*
X-124000Y-600032D01*
X-126032Y-598000D01*
X-99032Y-563000D02*
X-97000Y-560968D01*
X-94968Y-563000D01*
X-97000Y-565032D01*
X-99032Y-563000D01*
X65588Y-429419D02*
X67620Y-427387D01*
X69652Y-429419D01*
X67620Y-431451D01*
X65588Y-429419D01*
X71968Y-436000D02*
X74000Y-433968D01*
X76032Y-436000D01*
X74000Y-438032D01*
X71968Y-436000D01*
X77938Y-443599D02*
X79970Y-441567D01*
X82002Y-443599D01*
X79970Y-445631D01*
X77938Y-443599D01*
X-246032Y-811000D02*
X-244000Y-808968D01*
X-241968Y-811000D01*
X-244000Y-813032D01*
X-246032Y-811000D01*
X301968Y-427000D02*
X304000Y-424968D01*
X306032Y-427000D01*
X304000Y-429032D01*
X301968Y-427000D01*
X276126Y-431199D02*
X278158Y-429167D01*
X280190Y-431199D01*
X278158Y-433231D01*
X276126Y-431199D01*
X353968Y-412000D02*
X356000Y-409968D01*
X358032Y-412000D01*
X356000Y-414032D01*
X353968Y-412000D01*
X323968Y-384000D02*
X326000Y-381968D01*
X328032Y-384000D01*
X326000Y-386032D01*
X323968Y-384000D01*
X-134032Y-888000D02*
X-132000Y-885968D01*
X-129968Y-888000D01*
X-132000Y-890032D01*
X-134032Y-888000D01*
X-167032Y-924000D02*
X-165000Y-921968D01*
X-162968Y-924000D01*
X-165000Y-926032D01*
X-167032Y-924000D01*
X-30032Y-471000D02*
X-28000Y-468968D01*
X-25968Y-471000D01*
X-28000Y-473032D01*
X-30032Y-471000D01*
X-70032Y-307000D02*
X-68000Y-304968D01*
X-65968Y-307000D01*
X-68000Y-309032D01*
X-70032Y-307000D01*
X-189032Y-564000D02*
X-187000Y-561968D01*
X-184968Y-564000D01*
X-187000Y-566032D01*
X-189032Y-564000D01*
X301968Y-925000D02*
X304000Y-922968D01*
X306032Y-925000D01*
X304000Y-927032D01*
X301968Y-925000D01*
X164742Y-416226D02*
X166774Y-414194D01*
X168806Y-416226D01*
X166774Y-418258D01*
X164742Y-416226D01*
X67968Y-400000D02*
X70000Y-397968D01*
X72032Y-400000D01*
X70000Y-402032D01*
X67968Y-400000D01*
X77968Y-411000D02*
X80000Y-408968D01*
X82032Y-411000D01*
X80000Y-413032D01*
X77968Y-411000D01*
X69968Y-387000D02*
X72000Y-384968D01*
X74032Y-387000D01*
X72000Y-389032D01*
X69968Y-387000D01*
X76968Y-369000D02*
X79000Y-366968D01*
X81032Y-369000D01*
X79000Y-371032D01*
X76968Y-369000D01*
X75968Y-339000D02*
X78000Y-336968D01*
X80032Y-339000D01*
X78000Y-341032D01*
X75968Y-339000D01*
X4719Y-321249D02*
X6751Y-319217D01*
X8783Y-321249D01*
X6751Y-323281D01*
X4719Y-321249D01*
X42968Y-314000D02*
X45000Y-311968D01*
X47032Y-314000D01*
X45000Y-316032D01*
X42968Y-314000D01*
X12968Y-402000D02*
X15000Y-399968D01*
X17032Y-402000D01*
X15000Y-404032D01*
X12968Y-402000D01*
X32968Y-440000D02*
X35000Y-437968D01*
X37032Y-440000D01*
X35000Y-442032D01*
X32968Y-440000D01*
X4968Y-355000D02*
X7000Y-352968D01*
X9032Y-355000D01*
X7000Y-357032D01*
X4968Y-355000D01*
X-32Y-340000D02*
X2000Y-337968D01*
X4032Y-340000D01*
X2000Y-342032D01*
X-32Y-340000D01*
X-85442Y-913802D02*
X-83410Y-911770D01*
X-81378Y-913802D01*
X-83410Y-915834D01*
X-85442Y-913802D01*
X-128291Y-618000D02*
X-126259Y-615968D01*
X-124227Y-618000D01*
X-126259Y-620032D01*
X-128291Y-618000D01*
X-43993Y-601961D02*
X-41961Y-599929D01*
X-39929Y-601961D01*
X-41961Y-603993D01*
X-43993Y-601961D01*
X-14032Y-593000D02*
X-12000Y-590968D01*
X-9968Y-593000D01*
X-12000Y-595032D01*
X-14032Y-593000D01*
X328968Y-612000D02*
X331000Y-609968D01*
X333032Y-612000D01*
X331000Y-614032D01*
X328968Y-612000D01*
Y-555000D02*
X331000Y-552968D01*
X333032Y-555000D01*
X331000Y-557032D01*
X328968Y-555000D01*
X289968Y-612000D02*
X292000Y-609968D01*
X294032Y-612000D01*
X292000Y-614032D01*
X289968Y-612000D01*
X163742Y-431774D02*
X165774Y-429742D01*
X167806Y-431774D01*
X165774Y-433806D01*
X163742Y-431774D01*
X314968Y-465000D02*
X317000Y-462968D01*
X319032Y-465000D01*
X317000Y-467032D01*
X314968Y-465000D01*
X57968Y-806000D02*
X60000Y-803968D01*
X62032Y-806000D01*
X60000Y-808032D01*
X57968Y-806000D01*
X49968Y-833000D02*
X52000Y-830968D01*
X54032Y-833000D01*
X52000Y-835032D01*
X49968Y-833000D01*
X2968Y-837000D02*
X5000Y-834968D01*
X7032Y-837000D01*
X5000Y-839032D01*
X2968Y-837000D01*
X-101032Y-835000D02*
X-99000Y-832968D01*
X-96968Y-835000D01*
X-99000Y-837032D01*
X-101032Y-835000D01*
X-14032Y-572000D02*
X-12000Y-569968D01*
X-9968Y-572000D01*
X-12000Y-574032D01*
X-14032Y-572000D01*
X-68032Y-683000D02*
X-66000Y-680968D01*
X-63968Y-683000D01*
X-66000Y-685032D01*
X-68032Y-683000D01*
X-49032Y-618000D02*
X-47000Y-615968D01*
X-44968Y-618000D01*
X-47000Y-620032D01*
X-49032Y-618000D01*
X-147032Y-609000D02*
X-145000Y-606968D01*
X-142968Y-609000D01*
X-145000Y-611032D01*
X-147032Y-609000D01*
X-84032Y-573000D02*
X-82000Y-570968D01*
X-79968Y-573000D01*
X-82000Y-575032D01*
X-84032Y-573000D01*
X56968Y-622000D02*
X59000Y-619968D01*
X61032Y-622000D01*
X59000Y-624032D01*
X56968Y-622000D01*
X184968Y-524000D02*
X187000Y-521968D01*
X189032Y-524000D01*
X187000Y-526032D01*
X184968Y-524000D01*
X290968Y-465000D02*
X293000Y-462968D01*
X295032Y-465000D01*
X293000Y-467032D01*
X290968Y-465000D01*
X289968Y-554000D02*
X292000Y-551968D01*
X294032Y-554000D01*
X292000Y-556032D01*
X289968Y-554000D01*
X279968Y-520000D02*
X282000Y-517968D01*
X284032Y-520000D01*
X282000Y-522032D01*
X279968Y-520000D01*
X72968Y-465000D02*
X75000Y-462968D01*
X77032Y-465000D01*
X75000Y-467032D01*
X72968Y-465000D01*
X66968Y-483000D02*
X69000Y-480968D01*
X71032Y-483000D01*
X69000Y-485032D01*
X66968Y-483000D01*
X-296032Y-461000D02*
X-294000Y-458968D01*
X-291968Y-461000D01*
X-294000Y-463032D01*
X-296032Y-461000D01*
X-247032Y-503000D02*
X-245000Y-500968D01*
X-242968Y-503000D01*
X-245000Y-505032D01*
X-247032Y-503000D01*
X-90032Y-325000D02*
X-88000Y-322968D01*
X-85968Y-325000D01*
X-88000Y-327032D01*
X-90032Y-325000D01*
X-327032Y-614000D02*
X-325000Y-611968D01*
X-322968Y-614000D01*
X-325000Y-616032D01*
X-327032Y-614000D01*
X-289032Y-612000D02*
X-287000Y-609968D01*
X-284968Y-612000D01*
X-287000Y-614032D01*
X-289032Y-612000D01*
X-328032Y-557000D02*
X-326000Y-554968D01*
X-323968Y-557000D01*
X-326000Y-559032D01*
X-328032Y-557000D01*
X-289032Y-553000D02*
X-287000Y-550968D01*
X-284968Y-553000D01*
X-287000Y-555032D01*
X-289032Y-553000D01*
X-327032Y-465000D02*
X-325000Y-462968D01*
X-322968Y-465000D01*
X-325000Y-467032D01*
X-327032Y-465000D01*
X-242032Y-542000D02*
X-240000Y-539968D01*
X-237968Y-542000D01*
X-240000Y-544032D01*
X-242032Y-542000D01*
X-262032Y-652000D02*
X-260000Y-649968D01*
X-257968Y-652000D01*
X-260000Y-654032D01*
X-262032Y-652000D01*
X-69032Y-812000D02*
X-67000Y-809968D01*
X-64968Y-812000D01*
X-67000Y-814032D01*
X-69032Y-812000D01*
X-324032Y-942000D02*
X-322000Y-939968D01*
X-319968Y-942000D01*
X-322000Y-944032D01*
X-324032Y-942000D01*
X-337032Y-907000D02*
X-335000Y-904968D01*
X-332968Y-907000D01*
X-335000Y-909032D01*
X-337032Y-907000D01*
X-320032Y-933000D02*
X-318000Y-930968D01*
X-315968Y-933000D01*
X-318000Y-935032D01*
X-320032Y-933000D01*
X-200032Y-955000D02*
X-198000Y-952968D01*
X-195968Y-955000D01*
X-198000Y-957032D01*
X-200032Y-955000D01*
X45968Y-578000D02*
X48000Y-575968D01*
X50032Y-578000D01*
X48000Y-580032D01*
X45968Y-578000D01*
X-13032Y-918000D02*
X-11000Y-915968D01*
X-8968Y-918000D01*
X-11000Y-920032D01*
X-13032Y-918000D01*
X-47762Y-528000D02*
X-45730Y-525968D01*
X-43698Y-528000D01*
X-45730Y-530032D01*
X-47762Y-528000D01*
X-45032Y-516000D02*
X-43000Y-513968D01*
X-40968Y-516000D01*
X-43000Y-518032D01*
X-45032Y-516000D01*
X-399032Y-480000D02*
X-397000Y-477968D01*
X-394968Y-480000D01*
X-397000Y-482032D01*
X-399032Y-480000D01*
X7968Y-520000D02*
X10000Y-517968D01*
X12032Y-520000D01*
X10000Y-522032D01*
X7968Y-520000D01*
X67968Y-908000D02*
X70000Y-905968D01*
X72032Y-908000D01*
X70000Y-910032D01*
X67968Y-908000D01*
X-37032Y-363270D02*
X-35000Y-361238D01*
X-32968Y-363270D01*
X-35000Y-365302D01*
X-37032Y-363270D01*
X-30032Y-352000D02*
X-28000Y-349968D01*
X-25968Y-352000D01*
X-28000Y-354032D01*
X-30032Y-352000D01*
X-52032Y-363000D02*
X-50000Y-360968D01*
X-47968Y-363000D01*
X-50000Y-365032D01*
X-52032Y-363000D01*
X363968Y-376000D02*
X366000Y-373968D01*
X368032Y-376000D01*
X366000Y-378032D01*
X363968Y-376000D01*
X30968Y-464000D02*
X33000Y-461968D01*
X35032Y-464000D01*
X33000Y-466032D01*
X30968Y-464000D01*
X-11032Y-403000D02*
X-9000Y-400968D01*
X-6968Y-403000D01*
X-9000Y-405032D01*
X-11032Y-403000D01*
X-19032Y-397000D02*
X-17000Y-394968D01*
X-14968Y-397000D01*
X-17000Y-399032D01*
X-19032Y-397000D01*
X-87032Y-351000D02*
X-85000Y-348968D01*
X-82968Y-351000D01*
X-85000Y-353032D01*
X-87032Y-351000D01*
X-86032Y-340000D02*
X-84000Y-337968D01*
X-81968Y-340000D01*
X-84000Y-342032D01*
X-86032Y-340000D01*
X7968Y-298000D02*
X10000Y-295968D01*
X12032Y-298000D01*
X10000Y-300032D01*
X7968Y-298000D01*
X14968Y-459000D02*
X17000Y-456968D01*
X19032Y-459000D01*
X17000Y-461032D01*
X14968Y-459000D01*
X18241Y-448274D02*
X20273Y-446242D01*
X22306Y-448274D01*
X20273Y-450306D01*
X18241Y-448274D01*
X46968Y-504000D02*
X49000Y-501968D01*
X51032Y-504000D01*
X49000Y-506032D01*
X46968Y-504000D01*
X16968Y-709000D02*
X19000Y-706968D01*
X21032Y-709000D01*
X19000Y-711032D01*
X16968Y-709000D01*
X21968Y-703000D02*
X24000Y-700968D01*
X26032Y-703000D01*
X24000Y-705032D01*
X21968Y-703000D01*
X56968Y-513000D02*
X59000Y-510968D01*
X61032Y-513000D01*
X59000Y-515032D01*
X56968Y-513000D01*
X40968D02*
X43000Y-510968D01*
X45032Y-513000D01*
X43000Y-515032D01*
X40968Y-513000D01*
X70968Y-568000D02*
X73000Y-565968D01*
X75032Y-568000D01*
X73000Y-570032D01*
X70968Y-568000D01*
X30968Y-538000D02*
X33000Y-535968D01*
X35032Y-538000D01*
X33000Y-540032D01*
X30968Y-538000D01*
X-81032Y-904000D02*
X-79000Y-901968D01*
X-76968Y-904000D01*
X-79000Y-906032D01*
X-81032Y-904000D01*
X-59032Y-493000D02*
X-57000Y-490968D01*
X-54968Y-493000D01*
X-57000Y-495032D01*
X-59032Y-493000D01*
X21968Y-532000D02*
X24000Y-529968D01*
X26032Y-532000D01*
X24000Y-534032D01*
X21968Y-532000D01*
X25198Y-520000D02*
X27230Y-517968D01*
X29262Y-520000D01*
X27230Y-522032D01*
X25198Y-520000D01*
X244968Y-783000D02*
X247000Y-780968D01*
X249032Y-783000D01*
X247000Y-785032D01*
X244968Y-783000D01*
X59968Y-548000D02*
X62000Y-545968D01*
X64032Y-548000D01*
X62000Y-550032D01*
X59968Y-548000D01*
X64968Y-540000D02*
X67000Y-537968D01*
X69032Y-540000D01*
X67000Y-542032D01*
X64968Y-540000D01*
X434968Y-1027000D02*
X437000Y-1024968D01*
X439032Y-1027000D01*
X437000Y-1029032D01*
X434968Y-1027000D01*
X238968Y-539000D02*
X241000Y-536968D01*
X243032Y-539000D01*
X241000Y-541032D01*
X238968Y-539000D01*
X404968Y-485000D02*
X407000Y-482968D01*
X409032Y-485000D01*
X407000Y-487032D01*
X404968Y-485000D01*
X-410032Y-425000D02*
X-408000Y-422968D01*
X-405968Y-425000D01*
X-408000Y-427032D01*
X-410032Y-425000D01*
X-35032Y-180000D02*
X-33000Y-177968D01*
X-30968Y-180000D01*
X-33000Y-182032D01*
X-35032Y-180000D01*
X-27032Y-174000D02*
X-25000Y-171968D01*
X-22968Y-174000D01*
X-25000Y-176032D01*
X-27032Y-174000D01*
X-39032Y-199000D02*
X-37000Y-196968D01*
X-34968Y-199000D01*
X-37000Y-201032D01*
X-39032Y-199000D01*
Y-188000D02*
X-37000Y-185968D01*
X-34968Y-188000D01*
X-37000Y-190032D01*
X-39032Y-188000D01*
X-37032Y-217000D02*
X-35000Y-214968D01*
X-32968Y-217000D01*
X-35000Y-219032D01*
X-37032Y-217000D01*
X-31032Y-231000D02*
X-29000Y-228968D01*
X-26968Y-231000D01*
X-29000Y-233032D01*
X-31032Y-231000D01*
X-41032Y-261000D02*
X-39000Y-258968D01*
X-36968Y-261000D01*
X-39000Y-263032D01*
X-41032Y-261000D01*
X38968Y-259000D02*
X41000Y-256968D01*
X43032Y-259000D01*
X41000Y-261032D01*
X38968Y-259000D01*
X6968Y-244000D02*
X9000Y-241968D01*
X11032Y-244000D01*
X9000Y-246032D01*
X6968Y-244000D01*
X8968Y-364082D02*
X11000Y-362050D01*
X13032Y-364082D01*
X11000Y-366114D01*
X8968Y-364082D01*
X1238Y-215270D02*
X3270Y-213238D01*
X5302Y-215270D01*
X3270Y-217302D01*
X1238Y-215270D01*
X38968Y-355000D02*
X41000Y-352968D01*
X43032Y-355000D01*
X41000Y-357032D01*
X38968Y-355000D01*
D114*
X-170968Y-1066650D02*
G03*
X-170968Y-1066650I-2032J0D01*
G01*
Y-1041650D02*
G03*
X-170968Y-1041650I-2032J0D01*
G01*
X188282Y-1066650D02*
G03*
X188282Y-1066650I-2032J0D01*
G01*
Y-1041650D02*
G03*
X188282Y-1041650I-2032J0D01*
G01*
X-235945Y-1066650D02*
G03*
X-235945Y-1066650I-2032J0D01*
G01*
Y-1041650D02*
G03*
X-235945Y-1041650I-2032J0D01*
G01*
M02*
