G04*
G04 #@! TF.GenerationSoftware,Altium Limited,Altium Designer,22.1.2 (22)*
G04*
G04 Layer_Color=255*
%FSLAX44Y44*%
%MOMM*%
G71*
G04*
G04 #@! TF.SameCoordinates,E4277ABF-2EF0-4229-B20A-5B57AAE43606*
G04*
G04*
G04 #@! TF.FilePolarity,Positive*
G04*
G01*
G75*
%ADD88C,1.3500*%
%ADD89R,1.3500X1.3500*%
%ADD99C,1.5080*%
%ADD100R,1.5080X1.5080*%
%ADD101C,1.5750*%
%ADD102R,1.5750X1.5750*%
%ADD103R,1.6500X1.6500*%
%ADD104C,1.6500*%
%ADD105C,1.5000*%
%ADD106R,1.6500X1.6500*%
%ADD107R,0.9850X0.9850*%
%ADD108C,0.9850*%
%ADD109C,1.5240*%
D88*
X299000Y-1067000D02*
D03*
X-182000Y-443000D02*
D03*
Y-463000D02*
D03*
Y-483000D02*
D03*
Y-503000D02*
D03*
Y-523000D02*
D03*
Y-543000D02*
D03*
D89*
X299000Y-991000D02*
D03*
X-182000Y-423000D02*
D03*
D99*
X333022Y-356000D02*
D03*
X308023D02*
D03*
X220000D02*
D03*
X195000D02*
D03*
X-174978D02*
D03*
X-199977D02*
D03*
X-288000D02*
D03*
X-313000D02*
D03*
D100*
X283022D02*
D03*
X170000D02*
D03*
X-224977D02*
D03*
X-338000D02*
D03*
D101*
X-173000Y-1066650D02*
D03*
X186250D02*
D03*
X-237977D02*
D03*
D102*
X-173000Y-1041650D02*
D03*
X186250D02*
D03*
X-237977D02*
D03*
D103*
X42000Y-640200D02*
D03*
X-48000D02*
D03*
D104*
X42000Y-665600D02*
D03*
Y-691000D02*
D03*
Y-716400D02*
D03*
Y-741800D02*
D03*
Y-767200D02*
D03*
X-48000Y-665600D02*
D03*
Y-691000D02*
D03*
Y-716400D02*
D03*
Y-741800D02*
D03*
Y-767200D02*
D03*
X-84600Y-555000D02*
D03*
X-110000Y-529600D02*
D03*
Y-555000D02*
D03*
X-135400Y-529600D02*
D03*
Y-555000D02*
D03*
D105*
X-459000Y-1031500D02*
D03*
Y-1006500D02*
D03*
Y-981500D02*
D03*
D106*
X-84600Y-529600D02*
D03*
D107*
X-109000Y-421800D02*
D03*
D108*
Y-396400D02*
D03*
Y-371000D02*
D03*
Y-345600D02*
D03*
D109*
X-192500Y-610000D02*
D03*
Y-790000D02*
D03*
X192500D02*
D03*
Y-610000D02*
D03*
M02*
