G04*
G04 #@! TF.GenerationSoftware,Altium Limited,Altium Designer,22.1.2 (22)*
G04*
G04 Layer_Color=8388736*
%FSLAX44Y44*%
%MOMM*%
G71*
G04*
G04 #@! TF.SameCoordinates,E4277ABF-2EF0-4229-B20A-5B57AAE43606*
G04*
G04*
G04 #@! TF.FilePolarity,Negative*
G04*
G01*
G75*
%ADD23R,1.1781X1.3562*%
%ADD24R,0.9500X1.3500*%
%ADD29R,0.9062X0.8549*%
%ADD31R,1.7000X0.9500*%
%ADD36R,0.9581X2.6062*%
%ADD38R,0.9500X1.7000*%
%ADD39R,1.2621X0.9578*%
%ADD40R,2.5000X1.2500*%
%ADD43R,2.0000X4.0000*%
%ADD46R,1.3562X1.1781*%
%ADD47R,1.3500X0.9500*%
%ADD50R,0.8549X0.9062*%
%ADD54R,1.5000X1.5000*%
%ADD56R,1.3500X0.4500*%
%ADD57R,0.4500X1.3500*%
%ADD58R,1.3000X1.3000*%
%ADD59R,1.3500X1.3500*%
%ADD60R,0.7000X0.4500*%
%ADD61R,0.4500X0.7000*%
%ADD62R,1.2500X1.1500*%
%ADD63R,1.5500X1.1500*%
%ADD64R,1.6000X1.3000*%
%ADD65R,1.3000X1.6000*%
%ADD66R,1.1500X1.2500*%
%ADD67R,1.6000X1.4500*%
%ADD68R,1.6000X1.5000*%
%ADD69R,0.8000X1.6750*%
%ADD70R,0.8000X1.6500*%
%ADD71R,1.3000X1.5500*%
G04:AMPARAMS|DCode=72|XSize=0.8mm|YSize=1.35mm|CornerRadius=0.1238mm|HoleSize=0mm|Usage=FLASHONLY|Rotation=270.000|XOffset=0mm|YOffset=0mm|HoleType=Round|Shape=RoundedRectangle|*
%AMROUNDEDRECTD72*
21,1,0.8000,1.1025,0,0,270.0*
21,1,0.5525,1.3500,0,0,270.0*
1,1,0.2475,-0.5513,-0.2763*
1,1,0.2475,-0.5513,0.2763*
1,1,0.2475,0.5513,0.2763*
1,1,0.2475,0.5513,-0.2763*
%
%ADD72ROUNDEDRECTD72*%
G04:AMPARAMS|DCode=73|XSize=0.7mm|YSize=1.4mm|CornerRadius=0.1245mm|HoleSize=0mm|Usage=FLASHONLY|Rotation=270.000|XOffset=0mm|YOffset=0mm|HoleType=Round|Shape=RoundedRectangle|*
%AMROUNDEDRECTD73*
21,1,0.7000,1.1510,0,0,270.0*
21,1,0.4510,1.4000,0,0,270.0*
1,1,0.2490,-0.5755,-0.2255*
1,1,0.2490,-0.5755,0.2255*
1,1,0.2490,0.5755,0.2255*
1,1,0.2490,0.5755,-0.2255*
%
%ADD73ROUNDEDRECTD73*%
%ADD74R,1.1500X0.8500*%
%ADD75R,0.8500X0.7500*%
%ADD76R,1.4000X0.7500*%
%ADD77R,1.1500X0.6500*%
%ADD78R,2.5500X2.1500*%
%ADD79R,1.3500X1.3500*%
%ADD80R,1.6000X1.1500*%
%ADD81R,1.3000X1.3000*%
%ADD82C,1.6580*%
%ADD83R,1.6580X1.6580*%
%ADD84C,1.7250*%
%ADD85R,1.7250X1.7250*%
%ADD86R,1.8000X1.8000*%
%ADD87C,1.8000*%
%ADD88C,1.3500*%
%ADD89R,1.3500X1.3500*%
%ADD90R,1.5000X1.5000*%
%ADD91C,1.5000*%
%ADD92C,1.6500*%
%ADD93R,1.8000X1.8000*%
%ADD94R,1.1350X1.1350*%
%ADD95C,1.1350*%
%ADD96C,1.6740*%
%ADD97C,0.7500*%
D23*
X-24359Y-333500D02*
D03*
X-37641D02*
D03*
D24*
X32000Y-334000D02*
D03*
X17000D02*
D03*
X257500Y-414000D02*
D03*
X272500D02*
D03*
X-265500D02*
D03*
X-280500D02*
D03*
X111000Y-538295D02*
D03*
X96000D02*
D03*
X165273Y-513522D02*
D03*
X150272D02*
D03*
X165273Y-456022D02*
D03*
X150272D02*
D03*
D29*
X363000Y-441775D02*
D03*
Y-454288D02*
D03*
X339000Y-407744D02*
D03*
Y-420257D02*
D03*
X-356000Y-441775D02*
D03*
Y-454288D02*
D03*
X-338000Y-420257D02*
D03*
Y-407744D02*
D03*
X156000Y-418774D02*
D03*
Y-431287D02*
D03*
D31*
X233000Y-487000D02*
D03*
Y-515000D02*
D03*
X-229250Y-487000D02*
D03*
Y-515000D02*
D03*
X-252978Y-926750D02*
D03*
Y-898750D02*
D03*
X-228000Y-926750D02*
D03*
Y-898750D02*
D03*
X-210250Y-994061D02*
D03*
Y-966061D02*
D03*
X-186000Y-994061D02*
D03*
Y-966061D02*
D03*
D36*
X-83730Y-933000D02*
D03*
X-128270D02*
D03*
D38*
X-282000Y-955250D02*
D03*
X-310000D02*
D03*
D39*
X-339000Y-959461D02*
D03*
Y-944918D02*
D03*
X-161000Y-994272D02*
D03*
Y-979728D02*
D03*
D40*
X-369000Y-924000D02*
D03*
Y-958000D02*
D03*
X-239000Y-958811D02*
D03*
Y-992811D02*
D03*
D43*
X-322000Y-1070400D02*
D03*
Y-999400D02*
D03*
D46*
X129375Y-433671D02*
D03*
Y-420390D02*
D03*
X112000Y-594110D02*
D03*
Y-580829D02*
D03*
X-106000Y-492281D02*
D03*
Y-479000D02*
D03*
D47*
X100000Y-435000D02*
D03*
Y-420000D02*
D03*
X-108000Y-600500D02*
D03*
Y-585500D02*
D03*
X-81167Y-600500D02*
D03*
Y-585500D02*
D03*
X84667Y-594500D02*
D03*
Y-579500D02*
D03*
D50*
X-421256Y-484773D02*
D03*
X-408744D02*
D03*
D54*
X-411000Y-1077500D02*
D03*
Y-1042500D02*
D03*
D56*
X52500Y-475500D02*
D03*
Y-470500D02*
D03*
Y-465500D02*
D03*
Y-460500D02*
D03*
Y-455500D02*
D03*
Y-450500D02*
D03*
Y-445500D02*
D03*
Y-440500D02*
D03*
Y-435500D02*
D03*
Y-430500D02*
D03*
Y-425500D02*
D03*
Y-420500D02*
D03*
Y-415500D02*
D03*
Y-410500D02*
D03*
Y-405500D02*
D03*
Y-400500D02*
D03*
X-62500D02*
D03*
Y-405500D02*
D03*
Y-410500D02*
D03*
Y-415500D02*
D03*
Y-420500D02*
D03*
Y-425500D02*
D03*
Y-430500D02*
D03*
Y-435500D02*
D03*
Y-440500D02*
D03*
Y-445500D02*
D03*
Y-450500D02*
D03*
Y-455500D02*
D03*
Y-460500D02*
D03*
Y-465500D02*
D03*
Y-470500D02*
D03*
Y-475500D02*
D03*
D57*
X32500Y-380500D02*
D03*
X27500D02*
D03*
X22500D02*
D03*
X17500D02*
D03*
X12500D02*
D03*
X7500D02*
D03*
X2500D02*
D03*
X-2500D02*
D03*
X-7500D02*
D03*
X-12500D02*
D03*
X-17500D02*
D03*
X-22500D02*
D03*
X-27500D02*
D03*
X-32500D02*
D03*
X-37500D02*
D03*
X-42500D02*
D03*
Y-495500D02*
D03*
X-37500D02*
D03*
X-32500D02*
D03*
X-27500D02*
D03*
X-22500D02*
D03*
X-17500D02*
D03*
X-12500D02*
D03*
X-7500D02*
D03*
X-2500D02*
D03*
X2500D02*
D03*
X7500D02*
D03*
X12500D02*
D03*
X17500D02*
D03*
X22500D02*
D03*
X27500D02*
D03*
X32500D02*
D03*
D58*
X261478Y-834250D02*
D03*
X284978D02*
D03*
X-284977Y-834250D02*
D03*
X-261477D02*
D03*
X411978Y-390250D02*
D03*
X388478D02*
D03*
X-417977D02*
D03*
X-394477D02*
D03*
D59*
X343000Y-834000D02*
D03*
X323000D02*
D03*
X450000Y-390000D02*
D03*
X470000D02*
D03*
X-323000Y-834000D02*
D03*
X-343000D02*
D03*
X-456000Y-390000D02*
D03*
X-476000D02*
D03*
D60*
X-9000Y-181000D02*
D03*
Y-186000D02*
D03*
Y-191000D02*
D03*
Y-196000D02*
D03*
Y-201000D02*
D03*
X15000D02*
D03*
Y-196000D02*
D03*
Y-191000D02*
D03*
Y-186000D02*
D03*
Y-181000D02*
D03*
D61*
X-2000Y-203000D02*
D03*
X3000D02*
D03*
X8000D02*
D03*
Y-179000D02*
D03*
X3000D02*
D03*
X-2000D02*
D03*
D62*
X159000Y-987000D02*
D03*
Y-973000D02*
D03*
X265000Y-556000D02*
D03*
Y-542000D02*
D03*
X-263000Y-556000D02*
D03*
Y-542000D02*
D03*
D63*
X191000Y-968500D02*
D03*
Y-987500D02*
D03*
X213000Y-978000D02*
D03*
D64*
X-40545Y-231772D02*
D03*
Y-249772D02*
D03*
X41000Y-231772D02*
D03*
Y-249772D02*
D03*
D65*
X9228Y-152728D02*
D03*
X-8773D02*
D03*
X9228Y-298273D02*
D03*
X-8773D02*
D03*
X9228Y-263545D02*
D03*
X-8773D02*
D03*
X9228Y-229273D02*
D03*
X-8773D02*
D03*
X-108290Y-905022D02*
D03*
X-126291D02*
D03*
X291000Y-947000D02*
D03*
X309000D02*
D03*
D66*
X312000Y-413000D02*
D03*
X298000D02*
D03*
X-301250D02*
D03*
X-315250D02*
D03*
X447000Y-1075000D02*
D03*
X461000D02*
D03*
X422250Y-483522D02*
D03*
X436250D02*
D03*
D67*
X233000Y-446000D02*
D03*
Y-462000D02*
D03*
X-230000Y-446000D02*
D03*
Y-462000D02*
D03*
D68*
X267000Y-445750D02*
D03*
Y-462250D02*
D03*
Y-492750D02*
D03*
Y-509250D02*
D03*
X-263000Y-445750D02*
D03*
Y-462250D02*
D03*
Y-492750D02*
D03*
Y-509250D02*
D03*
D69*
X-286950Y-500120D02*
D03*
X-299650D02*
D03*
X-312350D02*
D03*
X-325050D02*
D03*
Y-445880D02*
D03*
X-312350D02*
D03*
X-299650D02*
D03*
X-286950D02*
D03*
X330050Y-500120D02*
D03*
X317350D02*
D03*
X304650D02*
D03*
X291950D02*
D03*
Y-445880D02*
D03*
X304650D02*
D03*
X317350D02*
D03*
X330050D02*
D03*
D70*
X-287200Y-538000D02*
D03*
X-299900D02*
D03*
X-312600D02*
D03*
X-325300D02*
D03*
Y-592000D02*
D03*
X-312600D02*
D03*
X-299900D02*
D03*
X-287200D02*
D03*
X330300Y-538000D02*
D03*
X317600D02*
D03*
X304900D02*
D03*
X292200D02*
D03*
Y-592000D02*
D03*
X304900D02*
D03*
X317600D02*
D03*
X330300D02*
D03*
D71*
X-119000Y-876000D02*
D03*
X-95500D02*
D03*
D72*
X-315750Y-922000D02*
D03*
Y-903000D02*
D03*
X-286250D02*
D03*
Y-912500D02*
D03*
Y-922000D02*
D03*
D73*
X-203250Y-898950D02*
D03*
Y-911650D02*
D03*
Y-924350D02*
D03*
Y-937050D02*
D03*
X-150750Y-898950D02*
D03*
Y-911650D02*
D03*
Y-924350D02*
D03*
Y-937050D02*
D03*
D74*
X396000Y-1004500D02*
D03*
X456000D02*
D03*
X396000Y-1041500D02*
D03*
X456000D02*
D03*
D75*
X426000Y-998000D02*
D03*
Y-1048000D02*
D03*
D76*
X-451719Y-434000D02*
D03*
X-419219D02*
D03*
X-451719Y-454000D02*
D03*
X-419219D02*
D03*
X428750Y-432000D02*
D03*
X461250D02*
D03*
X428750Y-452000D02*
D03*
X461250D02*
D03*
D77*
X-435469Y-427500D02*
D03*
Y-460500D02*
D03*
X445000Y-425500D02*
D03*
Y-458500D02*
D03*
D78*
X115000Y-504773D02*
D03*
Y-464772D02*
D03*
D79*
X112622Y-1057000D02*
D03*
Y-1077000D02*
D03*
X76169Y-1057000D02*
D03*
Y-1077000D02*
D03*
X39716Y-1057000D02*
D03*
Y-1077000D02*
D03*
X3264Y-1057000D02*
D03*
Y-1077000D02*
D03*
X-33189Y-1057000D02*
D03*
Y-1077000D02*
D03*
X-69642Y-1057000D02*
D03*
Y-1077000D02*
D03*
X-106094Y-1057000D02*
D03*
Y-1077000D02*
D03*
D80*
X-387000Y-1079250D02*
D03*
Y-1060250D02*
D03*
D81*
X112200Y-1018977D02*
D03*
Y-995477D02*
D03*
X75800Y-1018977D02*
D03*
Y-995477D02*
D03*
X39400Y-1018977D02*
D03*
Y-995477D02*
D03*
X3000Y-1018977D02*
D03*
Y-995477D02*
D03*
X-33400Y-1018977D02*
D03*
Y-995477D02*
D03*
X-69800Y-1018977D02*
D03*
Y-995477D02*
D03*
X-106200Y-1018977D02*
D03*
Y-995477D02*
D03*
D82*
X333022Y-356000D02*
D03*
X308023D02*
D03*
X220000D02*
D03*
X195000D02*
D03*
X-174978D02*
D03*
X-199977D02*
D03*
X-288000D02*
D03*
X-313000D02*
D03*
D83*
X283022D02*
D03*
X170000D02*
D03*
X-224977D02*
D03*
X-338000D02*
D03*
D84*
X-173000Y-1066650D02*
D03*
X186250D02*
D03*
X-237977D02*
D03*
D85*
X-173000Y-1041650D02*
D03*
X186250D02*
D03*
X-237977D02*
D03*
D86*
X42000Y-640200D02*
D03*
X-48000D02*
D03*
D87*
X42000Y-665600D02*
D03*
Y-691000D02*
D03*
Y-716400D02*
D03*
Y-741800D02*
D03*
Y-767200D02*
D03*
X-48000Y-665600D02*
D03*
Y-691000D02*
D03*
Y-716400D02*
D03*
Y-741800D02*
D03*
Y-767200D02*
D03*
X-84600Y-555000D02*
D03*
X-110000Y-529600D02*
D03*
Y-555000D02*
D03*
X-135400Y-529600D02*
D03*
Y-555000D02*
D03*
D88*
X299000Y-1067000D02*
D03*
D89*
Y-991000D02*
D03*
D90*
X-182000Y-423000D02*
D03*
D91*
Y-443000D02*
D03*
Y-463000D02*
D03*
Y-483000D02*
D03*
Y-503000D02*
D03*
Y-523000D02*
D03*
Y-543000D02*
D03*
D92*
X-459000Y-1031500D02*
D03*
Y-1006500D02*
D03*
Y-981500D02*
D03*
D93*
X-84600Y-529600D02*
D03*
D94*
X-109000Y-421800D02*
D03*
D95*
Y-396400D02*
D03*
Y-371000D02*
D03*
Y-345600D02*
D03*
D96*
X-192500Y-610000D02*
D03*
Y-790000D02*
D03*
X192500D02*
D03*
Y-610000D02*
D03*
D97*
X-248000Y-574000D02*
D03*
X-183000Y-385000D02*
D03*
X-124000Y-598000D02*
D03*
X-97000Y-563000D02*
D03*
M02*
