G04*
G04 #@! TF.GenerationSoftware,Altium Limited,Altium Designer,22.1.2 (22)*
G04*
G04 Layer_Physical_Order=1*
G04 Layer_Color=255*
%FSLAX44Y44*%
%MOMM*%
G71*
G04*
G04 #@! TF.SameCoordinates,E4277ABF-2EF0-4229-B20A-5B57AAE43606*
G04*
G04*
G04 #@! TF.FilePolarity,Positive*
G04*
G01*
G75*
%ADD12C,0.2000*%
%ADD17R,1.2000X0.3000*%
%ADD18R,0.3000X1.2000*%
%ADD19R,1.1500X1.1500*%
%ADD20R,1.2000X1.2000*%
%ADD21R,0.5500X0.3000*%
%ADD22R,0.3000X0.5500*%
%ADD23R,1.1781X1.3562*%
%ADD24R,0.9500X1.3500*%
%ADD25R,1.1000X1.0000*%
%ADD26R,1.4000X1.0000*%
%ADD27R,1.4500X1.1500*%
%ADD28R,1.1500X1.4500*%
%ADD29R,0.9062X0.8549*%
%ADD30R,1.0000X1.1000*%
%ADD31R,1.7000X0.9500*%
%ADD32R,1.4500X1.3000*%
%ADD33R,1.4500X1.3500*%
%ADD34R,0.6500X1.5250*%
%ADD35R,0.6500X1.5000*%
%ADD36R,0.9581X2.6062*%
%ADD37R,1.1500X1.4000*%
%ADD38R,0.9500X1.7000*%
%ADD39R,1.2621X0.9578*%
%ADD40R,2.5000X1.2500*%
G04:AMPARAMS|DCode=41|XSize=0.65mm|YSize=1.2mm|CornerRadius=0.0488mm|HoleSize=0mm|Usage=FLASHONLY|Rotation=270.000|XOffset=0mm|YOffset=0mm|HoleType=Round|Shape=RoundedRectangle|*
%AMROUNDEDRECTD41*
21,1,0.6500,1.1025,0,0,270.0*
21,1,0.5525,1.2000,0,0,270.0*
1,1,0.0975,-0.5513,-0.2763*
1,1,0.0975,-0.5513,0.2763*
1,1,0.0975,0.5513,0.2763*
1,1,0.0975,0.5513,-0.2763*
%
%ADD41ROUNDEDRECTD41*%
G04:AMPARAMS|DCode=42|XSize=0.55mm|YSize=1.25mm|CornerRadius=0.0495mm|HoleSize=0mm|Usage=FLASHONLY|Rotation=270.000|XOffset=0mm|YOffset=0mm|HoleType=Round|Shape=RoundedRectangle|*
%AMROUNDEDRECTD42*
21,1,0.5500,1.1510,0,0,270.0*
21,1,0.4510,1.2500,0,0,270.0*
1,1,0.0990,-0.5755,-0.2255*
1,1,0.0990,-0.5755,0.2255*
1,1,0.0990,0.5755,0.2255*
1,1,0.0990,0.5755,-0.2255*
%
%ADD42ROUNDEDRECTD42*%
%ADD43R,2.0000X4.0000*%
%ADD44R,1.0000X0.7000*%
%ADD45R,0.7000X0.6000*%
%ADD46R,1.3562X1.1781*%
%ADD47R,1.3500X0.9500*%
%ADD48R,1.2500X0.6000*%
%ADD49R,1.0000X0.5000*%
%ADD50R,0.8549X0.9062*%
%ADD51R,2.4000X2.0000*%
%ADD52R,1.2000X1.2000*%
%ADD53R,1.4500X1.0000*%
%ADD54R,1.5000X1.5000*%
%ADD55R,1.1500X1.1500*%
%ADD88C,1.3500*%
%ADD89R,1.3500X1.3500*%
%ADD98C,0.5000*%
%ADD99C,1.5080*%
%ADD100R,1.5080X1.5080*%
%ADD101C,1.5750*%
%ADD102R,1.5750X1.5750*%
%ADD103R,1.6500X1.6500*%
%ADD104C,1.6500*%
%ADD105C,1.5000*%
%ADD106R,1.6500X1.6500*%
%ADD107R,0.9850X0.9850*%
%ADD108C,0.9850*%
%ADD109C,1.5240*%
%ADD110C,0.6000*%
G36*
X257816Y-6848D02*
X275051Y-17721D01*
X291825Y-29290D01*
X308114Y-41536D01*
X323887Y-54438D01*
X339119Y-67975D01*
X353785Y-82123D01*
X367860Y-96859D01*
X381320Y-112159D01*
X394144Y-127997D01*
X406309Y-144345D01*
X417794Y-161178D01*
X428582Y-178466D01*
X438653Y-196182D01*
X447991Y-214294D01*
X456581Y-232773D01*
X464408Y-251589D01*
X471458Y-270708D01*
X477720Y-290100D01*
X483184Y-309732D01*
X487840Y-329571D01*
X491681Y-349583D01*
X494700Y-369737D01*
X496891Y-389996D01*
X497572Y-400162D01*
X497779Y-400931D01*
X497961Y-401167D01*
Y-481000D01*
Y-482671D01*
X497309Y-485947D01*
X496031Y-489034D01*
X494174Y-491812D01*
X491812Y-494174D01*
X489034Y-496031D01*
X485947Y-497309D01*
X482671Y-497961D01*
X440454D01*
X439968Y-496788D01*
X479907Y-456849D01*
X480408Y-456099D01*
X480584Y-455213D01*
Y-383060D01*
X480408Y-382174D01*
X479907Y-381423D01*
X433847Y-335363D01*
X433096Y-334862D01*
X432211Y-334686D01*
X88959D01*
X43314Y-289041D01*
Y-262663D01*
X43419Y-262620D01*
X44620Y-261419D01*
X45270Y-259849D01*
Y-258151D01*
X45145Y-257848D01*
X45850Y-256792D01*
X49520D01*
Y-242752D01*
X32480D01*
Y-256792D01*
X36150D01*
X36855Y-257848D01*
X36730Y-258151D01*
Y-259849D01*
X37380Y-261419D01*
X38581Y-262620D01*
X38686Y-262663D01*
Y-290000D01*
X38862Y-290886D01*
X39363Y-291637D01*
X86363Y-338637D01*
X87114Y-339138D01*
X88000Y-339314D01*
X431252D01*
X473494Y-381556D01*
X473008Y-382730D01*
X470635D01*
Y-390000D01*
X470000D01*
Y-390635D01*
X462730D01*
Y-397270D01*
X467686D01*
Y-427730D01*
X453730D01*
Y-429686D01*
X452368D01*
X451270Y-429270D01*
X451270Y-428416D01*
Y-421730D01*
X438730D01*
X438730Y-429270D01*
X437632Y-429686D01*
X436270D01*
Y-427730D01*
X421230D01*
Y-429686D01*
X394874D01*
X360281Y-395093D01*
X359530Y-394592D01*
X358645Y-394416D01*
X222892D01*
X222407Y-393242D01*
X229334Y-386315D01*
X322337D01*
X322380Y-386419D01*
X323581Y-387620D01*
X325151Y-388270D01*
X326849D01*
X328419Y-387620D01*
X329620Y-386419D01*
X330270Y-384849D01*
Y-383151D01*
X329620Y-381581D01*
X328419Y-380380D01*
X326849Y-379730D01*
X325151D01*
X323581Y-380380D01*
X322380Y-381581D01*
X322337Y-381685D01*
X228375D01*
X227490Y-381862D01*
X226739Y-382363D01*
X195190Y-413912D01*
X170437D01*
X170394Y-413808D01*
X169192Y-412607D01*
X167623Y-411956D01*
X165924D01*
X164355Y-412607D01*
X163154Y-413808D01*
X163111Y-413912D01*
X161801D01*
Y-413230D01*
X150199D01*
Y-424319D01*
X161801D01*
Y-418541D01*
X163111D01*
X163154Y-418645D01*
X164355Y-419846D01*
X165924Y-420496D01*
X167623D01*
X169192Y-419846D01*
X170394Y-418645D01*
X170437Y-418541D01*
X193527D01*
X194013Y-419714D01*
X184268Y-429459D01*
X169437D01*
X169394Y-429355D01*
X168192Y-428154D01*
X166623Y-427504D01*
X164924D01*
X163355Y-428154D01*
X163071Y-428437D01*
X161801Y-427911D01*
Y-425743D01*
X150199D01*
Y-432570D01*
X149026Y-433056D01*
X139614Y-423644D01*
X138863Y-423142D01*
X137978Y-422966D01*
X137426D01*
Y-413230D01*
X121324D01*
Y-417686D01*
X108020D01*
Y-413980D01*
X95253D01*
X90637Y-409363D01*
X89886Y-408862D01*
X89000Y-408685D01*
X83663D01*
X83620Y-408581D01*
X82419Y-407380D01*
X80849Y-406730D01*
X79151D01*
X77581Y-407380D01*
X76380Y-408581D01*
X75730Y-410151D01*
Y-411849D01*
X76380Y-413419D01*
X77581Y-414620D01*
X79151Y-415270D01*
X80849D01*
X82419Y-414620D01*
X83620Y-413419D01*
X83663Y-413315D01*
X88041D01*
X91143Y-416416D01*
X90617Y-417686D01*
X78834D01*
X75012Y-413863D01*
X74261Y-413362D01*
X73375Y-413185D01*
X59770D01*
Y-402854D01*
X66816D01*
X67581Y-403620D01*
X69151Y-404270D01*
X70849D01*
X72419Y-403620D01*
X73620Y-402419D01*
X74270Y-400849D01*
Y-399151D01*
X73620Y-397581D01*
X74149Y-396315D01*
X157000D01*
X157885Y-396138D01*
X158636Y-395637D01*
X190625Y-363647D01*
X191599Y-364209D01*
X193840Y-364810D01*
X196160D01*
X198400Y-364209D01*
X200409Y-363050D01*
X202050Y-361409D01*
X203209Y-359400D01*
X203810Y-357160D01*
Y-354840D01*
X203209Y-352599D01*
X202050Y-350590D01*
X201234Y-349774D01*
X201759Y-348504D01*
X213240D01*
X213766Y-349774D01*
X212950Y-350590D01*
X211790Y-352599D01*
X211190Y-354840D01*
Y-355365D01*
X220000D01*
X228810D01*
Y-354840D01*
X228210Y-352599D01*
X227050Y-350590D01*
X226234Y-349774D01*
X226760Y-348504D01*
X233346D01*
X254478Y-369637D01*
X255229Y-370138D01*
X256115Y-370314D01*
X296022D01*
X296908Y-370138D01*
X297659Y-369637D01*
X303648Y-363647D01*
X304622Y-364209D01*
X306863Y-364810D01*
X309182D01*
X311423Y-364209D01*
X313432Y-363050D01*
X315072Y-361409D01*
X316232Y-359400D01*
X316833Y-357160D01*
Y-354840D01*
X316232Y-352599D01*
X315072Y-350590D01*
X313432Y-348950D01*
X311423Y-347790D01*
X309182Y-347190D01*
X306863D01*
X304622Y-347790D01*
X302613Y-348950D01*
X300973Y-350590D01*
X299813Y-352599D01*
X299213Y-354840D01*
Y-357160D01*
X299813Y-359400D01*
X300375Y-360374D01*
X295064Y-365686D01*
X292740D01*
X291833Y-364810D01*
X291833Y-364416D01*
Y-347190D01*
X274212D01*
Y-364416D01*
X274212Y-364810D01*
X273305Y-365686D01*
X257074D01*
X235941Y-344553D01*
X235191Y-344052D01*
X234305Y-343875D01*
X91476D01*
X90590Y-344052D01*
X89839Y-344553D01*
X42707Y-391685D01*
X21959D01*
X20315Y-390041D01*
Y-387770D01*
X26865D01*
Y-380500D01*
X28135D01*
Y-387770D01*
X35270D01*
Y-373230D01*
X34815D01*
Y-364458D01*
X40046Y-359227D01*
X40151Y-359270D01*
X41849D01*
X43419Y-358620D01*
X44620Y-357419D01*
X45270Y-355849D01*
Y-354151D01*
X44620Y-352581D01*
X43419Y-351380D01*
X41849Y-350730D01*
X40151D01*
X38581Y-351380D01*
X37380Y-352581D01*
X36730Y-354151D01*
Y-354828D01*
X36584Y-354925D01*
X35315Y-354246D01*
Y-342020D01*
X38020D01*
Y-334635D01*
X25980D01*
Y-342020D01*
X30686D01*
Y-356041D01*
X25863Y-360863D01*
X25726Y-361069D01*
X24274Y-361069D01*
X24137Y-360864D01*
X19315Y-356041D01*
Y-342020D01*
X23020D01*
Y-327953D01*
X24193Y-327467D01*
X25980Y-329253D01*
Y-333365D01*
X31365D01*
Y-325980D01*
X29253D01*
X22886Y-319613D01*
X22812Y-319564D01*
X23198Y-318294D01*
X38568D01*
X60911Y-340637D01*
X61661Y-341138D01*
X62547Y-341315D01*
X74337D01*
X74380Y-341419D01*
X75581Y-342620D01*
X77151Y-343270D01*
X78849D01*
X80419Y-342620D01*
X81620Y-341419D01*
X82270Y-339849D01*
Y-338151D01*
X81620Y-336581D01*
X80419Y-335380D01*
X78849Y-334730D01*
X77151D01*
X75581Y-335380D01*
X74380Y-336581D01*
X74337Y-336685D01*
X63506D01*
X46264Y-319443D01*
X46583Y-317966D01*
X47419Y-317620D01*
X48620Y-316419D01*
X49270Y-314849D01*
Y-313151D01*
X48620Y-311581D01*
X47419Y-310380D01*
X45849Y-309730D01*
X44151D01*
X43917Y-309827D01*
X42302Y-308212D01*
X41552Y-307710D01*
X40666Y-307534D01*
X17211D01*
X16248Y-306793D01*
Y-298908D01*
X9228D01*
Y-297638D01*
X16248D01*
Y-289753D01*
X11542D01*
Y-272065D01*
X16248D01*
Y-264180D01*
X9228D01*
Y-262910D01*
X16248D01*
Y-255025D01*
X11542D01*
Y-244228D01*
X11497Y-244000D01*
X11542Y-243772D01*
X11366Y-242887D01*
X11315Y-242809D01*
Y-237793D01*
X16248D01*
Y-231587D01*
X32480D01*
Y-238792D01*
X40365D01*
Y-231772D01*
Y-224753D01*
X32480D01*
Y-226958D01*
X16248D01*
Y-220753D01*
X11542D01*
Y-205478D01*
X11676Y-205314D01*
X12079D01*
X12964Y-205138D01*
X13715Y-204636D01*
X14365Y-203986D01*
Y-201000D01*
X15000D01*
Y-200365D01*
X19020D01*
Y-198770D01*
Y-196635D01*
X10980D01*
Y-197797D01*
X10770Y-198980D01*
X8635D01*
Y-203000D01*
X7365D01*
Y-198980D01*
X-4770D01*
X-4980Y-197797D01*
Y-184203D01*
X-4770Y-183020D01*
X10770D01*
X10980Y-184203D01*
Y-185365D01*
X19020D01*
Y-181635D01*
X15000D01*
Y-180365D01*
X19020D01*
Y-178230D01*
X17315D01*
Y-160000D01*
X17138Y-159114D01*
X16637Y-158364D01*
X16248Y-157975D01*
Y-153363D01*
X9228D01*
X2208D01*
Y-160139D01*
X938Y-160665D01*
X-1753Y-157975D01*
Y-144208D01*
X-15793D01*
Y-161248D01*
X-5026D01*
X363Y-166637D01*
X364Y-166637D01*
X5685Y-171959D01*
Y-174980D01*
X-4770D01*
Y-176685D01*
X-6078D01*
X-6964Y-176862D01*
X-7715Y-177363D01*
X-8581Y-178230D01*
X-13020D01*
Y-178685D01*
X-21041D01*
X-21920Y-177807D01*
Y-176959D01*
X-21380Y-176419D01*
X-20730Y-174849D01*
Y-173151D01*
X-21380Y-171581D01*
X-22581Y-170380D01*
X-24151Y-169730D01*
X-25849D01*
X-27419Y-170380D01*
X-28620Y-171581D01*
X-29270Y-173151D01*
Y-174849D01*
X-28620Y-176419D01*
X-27419Y-177620D01*
X-26549Y-177980D01*
Y-178765D01*
X-26373Y-179651D01*
X-25871Y-180402D01*
X-23858Y-182416D01*
X-24069Y-183275D01*
X-24347Y-183686D01*
X-26959D01*
X-29042Y-181602D01*
X-28730Y-180849D01*
Y-179151D01*
X-29380Y-177581D01*
X-30581Y-176380D01*
X-32151Y-175730D01*
X-33849D01*
X-35419Y-176380D01*
X-36620Y-177581D01*
X-37270Y-179151D01*
Y-180849D01*
X-36620Y-182419D01*
X-36579Y-182460D01*
X-37105Y-183730D01*
X-37849D01*
X-39419Y-184380D01*
X-40620Y-185581D01*
X-41270Y-187151D01*
Y-188849D01*
X-40620Y-190419D01*
X-39419Y-191620D01*
X-37849Y-192270D01*
X-36151D01*
X-35281Y-191910D01*
X-34554Y-192636D01*
X-33804Y-193138D01*
X-32918Y-193314D01*
X-25640D01*
X-25362Y-193725D01*
X-25151Y-194584D01*
X-27252Y-196686D01*
X-33337D01*
X-33380Y-196581D01*
X-34581Y-195380D01*
X-36151Y-194730D01*
X-37849D01*
X-39419Y-195380D01*
X-40620Y-196581D01*
X-41270Y-198151D01*
Y-199849D01*
X-40924Y-200686D01*
X-41743Y-201956D01*
X-46270D01*
X-47156Y-202132D01*
X-47907Y-202633D01*
X-80367Y-235093D01*
X-80868Y-235844D01*
X-81045Y-236730D01*
Y-335257D01*
X-82315Y-336076D01*
X-83151Y-335730D01*
X-84849D01*
X-84954Y-335773D01*
X-87228Y-333498D01*
X-87979Y-332997D01*
X-88865Y-332821D01*
X-129352D01*
X-130237Y-332997D01*
X-130988Y-333498D01*
X-160985Y-363495D01*
X-168218D01*
X-168744Y-362225D01*
X-167928Y-361409D01*
X-166768Y-359400D01*
X-166168Y-357160D01*
Y-356635D01*
X-174978D01*
X-183788D01*
Y-357160D01*
X-183187Y-359400D01*
X-182027Y-361409D01*
X-181211Y-362225D01*
X-181737Y-363495D01*
X-189209D01*
X-192330Y-360374D01*
X-191768Y-359400D01*
X-191167Y-357160D01*
Y-354840D01*
X-191768Y-352599D01*
X-192928Y-350590D01*
X-194568Y-348950D01*
X-196577Y-347790D01*
X-198818Y-347190D01*
X-201137D01*
X-203378Y-347790D01*
X-205387Y-348950D01*
X-207027Y-350590D01*
X-208187Y-352599D01*
X-208787Y-354840D01*
Y-357160D01*
X-208187Y-359400D01*
X-207027Y-361409D01*
X-205387Y-363050D01*
X-203378Y-364209D01*
X-201137Y-364810D01*
X-198818D01*
X-196577Y-364209D01*
X-195603Y-363647D01*
X-193658Y-365592D01*
X-194144Y-366765D01*
X-298962D01*
X-305353Y-360374D01*
X-304791Y-359400D01*
X-304190Y-357160D01*
Y-354840D01*
X-304791Y-352599D01*
X-305951Y-350590D01*
X-307591Y-348950D01*
X-309600Y-347790D01*
X-311840Y-347190D01*
X-314160D01*
X-316401Y-347790D01*
X-318410Y-348950D01*
X-320050Y-350590D01*
X-321210Y-352599D01*
X-321810Y-354840D01*
Y-357160D01*
X-321210Y-359400D01*
X-320050Y-361409D01*
X-318410Y-363050D01*
X-316401Y-364209D01*
X-314160Y-364810D01*
X-311840D01*
X-309600Y-364209D01*
X-308626Y-363647D01*
X-301557Y-370716D01*
X-300806Y-371218D01*
X-299920Y-371394D01*
X-158672D01*
X-157786Y-371218D01*
X-157035Y-370716D01*
X-127038Y-340719D01*
X-114540D01*
X-114054Y-341893D01*
X-114252Y-342091D01*
X-115195Y-344368D01*
Y-346832D01*
X-114252Y-349109D01*
X-112509Y-350852D01*
X-110232Y-351795D01*
X-107768D01*
X-105491Y-350852D01*
X-103748Y-349109D01*
X-102805Y-346832D01*
Y-344368D01*
X-103748Y-342091D01*
X-103946Y-341893D01*
X-103460Y-340719D01*
X-98554D01*
X-89227Y-350046D01*
X-89270Y-350151D01*
Y-351849D01*
X-88620Y-353419D01*
X-87419Y-354620D01*
X-86583Y-354966D01*
X-86264Y-356443D01*
X-99860Y-370039D01*
X-100361Y-370790D01*
X-100537Y-371676D01*
Y-412096D01*
X-101711Y-412582D01*
X-106686Y-407607D01*
Y-402147D01*
X-105491Y-401652D01*
X-103748Y-399909D01*
X-102805Y-397632D01*
Y-395168D01*
X-103748Y-392891D01*
X-105491Y-391148D01*
X-107768Y-390205D01*
X-110232D01*
X-112509Y-391148D01*
X-114252Y-392891D01*
X-115195Y-395168D01*
Y-397632D01*
X-114252Y-399909D01*
X-112509Y-401652D01*
X-111315Y-402147D01*
Y-408565D01*
X-111138Y-409451D01*
X-110637Y-410202D01*
X-106407Y-414432D01*
X-106893Y-415605D01*
X-115195D01*
Y-426283D01*
X-116465Y-426809D01*
X-150181Y-393093D01*
X-150931Y-392592D01*
X-151817Y-392416D01*
X-267809D01*
X-268694Y-392592D01*
X-269445Y-393093D01*
X-271866Y-395514D01*
X-385940D01*
X-387457Y-393997D01*
Y-383230D01*
X-400183D01*
Y-345456D01*
X-382041Y-327314D01*
X-91663D01*
X-91620Y-327419D01*
X-90419Y-328620D01*
X-88849Y-329270D01*
X-87151D01*
X-85581Y-328620D01*
X-84380Y-327419D01*
X-83730Y-325849D01*
Y-324151D01*
X-84380Y-322581D01*
X-85581Y-321380D01*
X-87151Y-320730D01*
X-88849D01*
X-90419Y-321380D01*
X-91620Y-322581D01*
X-91663Y-322686D01*
X-383000D01*
X-383886Y-322862D01*
X-384637Y-323363D01*
X-404134Y-342861D01*
X-404636Y-343612D01*
X-404812Y-344497D01*
Y-396940D01*
X-404636Y-397826D01*
X-404134Y-398577D01*
X-394113Y-408598D01*
X-393362Y-409100D01*
X-392476Y-409276D01*
X-352510D01*
X-343801Y-417985D01*
Y-422785D01*
X-354105Y-433089D01*
X-354607Y-433840D01*
X-354783Y-434726D01*
Y-436230D01*
X-361801D01*
Y-444046D01*
X-369441Y-451686D01*
X-411699D01*
Y-449730D01*
X-426739D01*
Y-458270D01*
X-423571D01*
Y-478972D01*
X-426801D01*
Y-490574D01*
X-415712D01*
Y-478972D01*
X-418942D01*
Y-458270D01*
X-411699D01*
Y-456315D01*
X-368482D01*
X-367596Y-456138D01*
X-366845Y-455637D01*
X-362974Y-451766D01*
X-361801Y-452252D01*
Y-459832D01*
X-350199D01*
Y-456602D01*
X-329083D01*
X-328585Y-456503D01*
X-327559Y-457104D01*
X-327314Y-457364D01*
Y-461337D01*
X-327419Y-461380D01*
X-328620Y-462581D01*
X-329270Y-464151D01*
Y-465849D01*
X-328620Y-467419D01*
X-327419Y-468620D01*
X-325849Y-469270D01*
X-324151D01*
X-322581Y-468620D01*
X-321380Y-467419D01*
X-320730Y-465849D01*
Y-464151D01*
X-321380Y-462581D01*
X-322581Y-461380D01*
X-322686Y-461337D01*
Y-454775D01*
X-320530D01*
Y-440258D01*
X-318140Y-437868D01*
X-316870Y-438394D01*
Y-445245D01*
X-312985D01*
Y-436985D01*
X-315461D01*
X-315987Y-435715D01*
X-313614Y-433341D01*
X-313112Y-432591D01*
X-312936Y-431705D01*
Y-419770D01*
X-308980D01*
Y-406230D01*
X-321520D01*
Y-419770D01*
X-317565D01*
Y-430746D01*
X-323803Y-436985D01*
X-329570D01*
Y-451502D01*
X-330042Y-451973D01*
X-350199D01*
Y-448743D01*
X-356932D01*
X-357611Y-447473D01*
X-357508Y-447319D01*
X-350199D01*
Y-438724D01*
X-350154Y-438500D01*
Y-435684D01*
X-340271Y-425801D01*
X-332199D01*
Y-414712D01*
X-339508D01*
X-339611Y-414558D01*
X-338932Y-413288D01*
X-332199D01*
Y-405216D01*
X-331298Y-404314D01*
X-298134D01*
X-297575Y-405013D01*
X-298112Y-406230D01*
X-300615D01*
Y-413000D01*
X-301250D01*
Y-413635D01*
X-307520D01*
Y-419770D01*
X-303565D01*
Y-429446D01*
X-311103Y-436985D01*
X-311715D01*
Y-445245D01*
X-307830D01*
Y-440258D01*
X-305440Y-437868D01*
X-304170Y-438394D01*
Y-454775D01*
X-301964D01*
Y-455350D01*
X-301788Y-456236D01*
X-301287Y-456987D01*
X-298227Y-460046D01*
X-298270Y-460151D01*
Y-461849D01*
X-297620Y-463419D01*
X-296419Y-464620D01*
X-294849Y-465270D01*
X-293151D01*
X-291581Y-464620D01*
X-290380Y-463419D01*
X-289730Y-461849D01*
Y-460151D01*
X-290380Y-458581D01*
X-291581Y-457380D01*
X-293151Y-456730D01*
X-294849D01*
X-294938Y-456767D01*
X-295772Y-455933D01*
X-295293Y-454775D01*
X-295130D01*
Y-436985D01*
X-297335D01*
Y-434388D01*
X-291363Y-428416D01*
X-290862Y-427665D01*
X-290686Y-426779D01*
Y-406000D01*
X-290862Y-405114D01*
X-291363Y-404363D01*
X-294314Y-401413D01*
X-293788Y-400143D01*
X-270907D01*
X-270022Y-399967D01*
X-269271Y-399465D01*
X-266850Y-397044D01*
X-162743D01*
X-161924Y-398315D01*
X-162270Y-399151D01*
Y-400849D01*
X-161844Y-401878D01*
Y-417407D01*
X-172807Y-428371D01*
X-173980Y-427884D01*
Y-423635D01*
X-181365D01*
Y-431020D01*
X-177116D01*
X-176630Y-432193D01*
X-179739Y-435303D01*
X-180944Y-434980D01*
X-183056D01*
X-185096Y-435526D01*
X-186925Y-436582D01*
X-188418Y-438075D01*
X-189474Y-439904D01*
X-190020Y-441944D01*
Y-444056D01*
X-189474Y-446096D01*
X-188418Y-447924D01*
X-186925Y-449417D01*
X-185096Y-450473D01*
X-183056Y-451020D01*
X-180944D01*
X-178905Y-450473D01*
X-177076Y-449417D01*
X-175583Y-447924D01*
X-174527Y-446096D01*
X-173980Y-444056D01*
Y-441944D01*
X-174303Y-440739D01*
X-155282Y-421718D01*
X-155282Y-421718D01*
X-154449Y-420471D01*
X-154156Y-419000D01*
X-154156Y-418999D01*
Y-401878D01*
X-153730Y-400849D01*
Y-399151D01*
X-153792Y-399001D01*
X-153009Y-397722D01*
X-152174Y-397646D01*
X-138628Y-411192D01*
X-139348Y-412269D01*
X-139799Y-412082D01*
X-141498D01*
X-143067Y-412732D01*
X-144268Y-413933D01*
X-144918Y-415502D01*
Y-415960D01*
X-145565Y-416088D01*
X-146316Y-416590D01*
X-160907Y-431180D01*
X-161408Y-431931D01*
X-161584Y-432817D01*
Y-453311D01*
X-168958Y-460685D01*
X-174317D01*
X-174527Y-459904D01*
X-175583Y-458075D01*
X-177076Y-456582D01*
X-178905Y-455526D01*
X-180944Y-454980D01*
X-183056D01*
X-185096Y-455526D01*
X-186925Y-456582D01*
X-188418Y-458075D01*
X-189474Y-459904D01*
X-190020Y-461944D01*
Y-464056D01*
X-189474Y-466095D01*
X-188418Y-467924D01*
X-186925Y-469417D01*
X-185096Y-470473D01*
X-183056Y-471020D01*
X-180944D01*
X-178905Y-470473D01*
X-177076Y-469417D01*
X-175583Y-467924D01*
X-174527Y-466095D01*
X-174317Y-465314D01*
X-169384D01*
X-168858Y-466584D01*
X-178204Y-475931D01*
X-178905Y-475526D01*
X-180944Y-474980D01*
X-183056D01*
X-185096Y-475526D01*
X-186925Y-476582D01*
X-188418Y-478075D01*
X-189474Y-479904D01*
X-190020Y-481944D01*
Y-484056D01*
X-189474Y-486095D01*
X-188418Y-487924D01*
X-186925Y-489417D01*
X-185096Y-490473D01*
X-183056Y-491020D01*
X-180944D01*
X-178905Y-490473D01*
X-177076Y-489417D01*
X-175583Y-487924D01*
X-174527Y-486095D01*
X-173980Y-484056D01*
Y-481944D01*
X-174527Y-479904D01*
X-174931Y-479204D01*
X-154363Y-458636D01*
X-153862Y-457885D01*
X-153686Y-457000D01*
Y-437959D01*
X-149540Y-433813D01*
X-148270Y-434339D01*
Y-434849D01*
X-147620Y-436419D01*
X-146419Y-437620D01*
X-144849Y-438270D01*
X-143151D01*
X-142339Y-437934D01*
X-135315Y-444959D01*
Y-493041D01*
X-178204Y-535931D01*
X-178905Y-535527D01*
X-180944Y-534980D01*
X-183056D01*
X-185096Y-535527D01*
X-186925Y-536583D01*
X-187436Y-537094D01*
X-188706Y-536568D01*
Y-529433D01*
X-187436Y-528907D01*
X-186925Y-529418D01*
X-185096Y-530474D01*
X-183056Y-531020D01*
X-180944D01*
X-178905Y-530474D01*
X-177076Y-529418D01*
X-175583Y-527925D01*
X-174527Y-526096D01*
X-173980Y-524056D01*
Y-521944D01*
X-174527Y-519905D01*
X-175583Y-518076D01*
X-177076Y-516583D01*
X-178905Y-515527D01*
X-180944Y-514980D01*
X-183056D01*
X-185096Y-515527D01*
X-186925Y-516583D01*
X-187436Y-517094D01*
X-188706Y-516568D01*
Y-512978D01*
X-185796Y-510069D01*
X-185096Y-510473D01*
X-183056Y-511020D01*
X-180944D01*
X-178905Y-510473D01*
X-177076Y-509417D01*
X-175583Y-507924D01*
X-174527Y-506095D01*
X-173980Y-504056D01*
Y-501944D01*
X-174527Y-499904D01*
X-175583Y-498075D01*
X-177076Y-496582D01*
X-178905Y-495526D01*
X-180944Y-494980D01*
X-183056D01*
X-185096Y-495526D01*
X-186925Y-496582D01*
X-188418Y-498075D01*
X-189474Y-499904D01*
X-190020Y-501944D01*
Y-504056D01*
X-189474Y-506095D01*
X-189069Y-506796D01*
X-192657Y-510383D01*
X-193158Y-511134D01*
X-193335Y-512020D01*
Y-525238D01*
X-194508Y-525724D01*
X-219406Y-500826D01*
Y-489250D01*
X-219480Y-488878D01*
Y-486416D01*
X-209282Y-476218D01*
X-209282Y-476218D01*
X-208449Y-474971D01*
X-208156Y-473500D01*
X-208156Y-473500D01*
Y-451929D01*
X-208156Y-451929D01*
X-208449Y-450458D01*
X-209282Y-449211D01*
X-212532Y-445961D01*
X-213779Y-445128D01*
X-215250Y-444835D01*
X-215250Y-444835D01*
X-221480D01*
Y-438230D01*
X-238520D01*
Y-442031D01*
X-254480D01*
Y-437730D01*
X-260406D01*
Y-422020D01*
X-259480D01*
Y-405980D01*
X-271520D01*
Y-422020D01*
X-268094D01*
Y-437730D01*
X-271520D01*
Y-449508D01*
X-272693Y-449994D01*
X-278185Y-444502D01*
Y-422020D01*
X-274480D01*
Y-414635D01*
X-286520D01*
Y-422020D01*
X-282814D01*
Y-436985D01*
X-291470D01*
Y-454775D01*
X-282430D01*
Y-448600D01*
X-281160Y-448073D01*
X-271520Y-457714D01*
Y-461615D01*
X-263000D01*
X-254480D01*
Y-455040D01*
X-254480Y-454230D01*
X-254480D01*
Y-453770D01*
X-254480D01*
Y-449719D01*
X-239418D01*
X-238520Y-450617D01*
X-238520Y-453770D01*
X-238520Y-455040D01*
Y-461365D01*
X-230000D01*
X-221480D01*
Y-455040D01*
X-221480Y-454230D01*
Y-453421D01*
X-220582Y-452523D01*
X-216842D01*
X-215844Y-453521D01*
Y-471908D01*
X-224916Y-480980D01*
X-239020D01*
Y-483031D01*
X-244500D01*
X-244500Y-483031D01*
X-245971Y-483324D01*
X-247218Y-484157D01*
X-247218Y-484157D01*
X-251967Y-488906D01*
X-254480D01*
Y-484730D01*
X-265513D01*
X-267961Y-482282D01*
X-269208Y-481449D01*
X-270679Y-481156D01*
X-270679Y-481156D01*
X-301605D01*
X-301605Y-481156D01*
X-303076Y-481449D01*
X-304323Y-482282D01*
X-309144Y-487103D01*
X-310701Y-486863D01*
X-318282Y-479282D01*
X-319529Y-478449D01*
X-321000Y-478156D01*
X-321000Y-478156D01*
X-328000D01*
X-328000Y-478156D01*
X-329471Y-478449D01*
X-330718Y-479282D01*
X-330718Y-479282D01*
X-336718Y-485282D01*
X-337551Y-486529D01*
X-337844Y-488000D01*
X-337844Y-488000D01*
Y-563000D01*
X-337844Y-563000D01*
X-337551Y-564471D01*
X-336718Y-565718D01*
X-329718Y-572718D01*
X-329718Y-572718D01*
X-328471Y-573551D01*
X-327000Y-573844D01*
X-327000Y-573844D01*
X-311592D01*
X-303744Y-581692D01*
Y-583230D01*
X-304420D01*
Y-600770D01*
X-295380D01*
Y-583230D01*
X-296056D01*
Y-580100D01*
X-296056Y-580100D01*
X-296349Y-578629D01*
X-297182Y-577382D01*
X-297182Y-577382D01*
X-307282Y-567282D01*
X-308529Y-566449D01*
X-310000Y-566156D01*
X-310000Y-566156D01*
X-325408D01*
X-329712Y-561852D01*
X-329620Y-561215D01*
X-328855Y-560836D01*
X-328260Y-560686D01*
X-326849Y-561270D01*
X-325151D01*
X-323581Y-560620D01*
X-322380Y-559419D01*
X-321730Y-557849D01*
Y-557407D01*
X-321456Y-556029D01*
X-321456Y-556029D01*
Y-546770D01*
X-320780D01*
Y-529230D01*
X-321331D01*
Y-509015D01*
X-320530D01*
Y-491225D01*
X-329570D01*
X-330156Y-490198D01*
Y-489592D01*
X-326408Y-485844D01*
X-322592D01*
X-316944Y-491492D01*
Y-494995D01*
X-316944Y-494995D01*
X-316870Y-495366D01*
Y-509015D01*
X-307830D01*
Y-496661D01*
X-305343Y-494174D01*
X-304170Y-494660D01*
Y-509015D01*
X-303494D01*
Y-512350D01*
X-303494Y-512350D01*
X-303201Y-513821D01*
X-302368Y-515068D01*
X-290844Y-526592D01*
Y-529230D01*
X-291720D01*
Y-546770D01*
X-290944D01*
Y-551363D01*
X-291270Y-552151D01*
Y-553849D01*
X-290620Y-555419D01*
X-289419Y-556620D01*
X-287849Y-557270D01*
X-286151D01*
X-284581Y-556620D01*
X-283380Y-555419D01*
X-282730Y-553849D01*
Y-552151D01*
X-283256Y-550881D01*
Y-546770D01*
X-282680D01*
Y-529230D01*
X-283156D01*
Y-525000D01*
X-283156Y-525000D01*
X-283449Y-523529D01*
X-284282Y-522282D01*
X-284282Y-522282D01*
X-295806Y-510758D01*
Y-509015D01*
X-295130D01*
Y-491225D01*
X-300735D01*
X-301221Y-490052D01*
X-300013Y-488844D01*
X-272479D01*
X-271520Y-489803D01*
Y-499960D01*
X-271520Y-500770D01*
X-271520Y-502040D01*
Y-508615D01*
X-263000D01*
X-254480D01*
Y-502040D01*
X-254480Y-501230D01*
X-254480Y-499960D01*
Y-496594D01*
X-250375D01*
X-250375Y-496594D01*
X-248904Y-496301D01*
X-247657Y-495468D01*
X-242908Y-490719D01*
X-239020D01*
Y-493020D01*
X-227094D01*
Y-502418D01*
X-227094Y-502418D01*
X-226801Y-503889D01*
X-225968Y-505136D01*
X-223298Y-507806D01*
X-223784Y-508980D01*
X-228615D01*
Y-514365D01*
X-219480D01*
Y-513284D01*
X-218307Y-512798D01*
X-199634Y-531470D01*
Y-567784D01*
X-199634Y-567784D01*
X-199342Y-569255D01*
X-198508Y-570502D01*
X-148292Y-620718D01*
X-147045Y-621551D01*
X-145574Y-621844D01*
X-145574Y-621844D01*
X-128137D01*
X-127109Y-622270D01*
X-125410D01*
X-124381Y-621844D01*
X-48878D01*
X-47849Y-622270D01*
X-46151D01*
X-44581Y-621620D01*
X-43380Y-620419D01*
X-42730Y-618849D01*
Y-618339D01*
X-41460Y-617813D01*
X-39794Y-619479D01*
Y-630680D01*
X-52084D01*
X-57482Y-625282D01*
X-58729Y-624449D01*
X-60200Y-624156D01*
X-60200Y-624156D01*
X-184401D01*
X-184786Y-622886D01*
X-182938Y-621651D01*
X-180849Y-619562D01*
X-179207Y-617105D01*
X-178076Y-614375D01*
X-177500Y-611477D01*
Y-608522D01*
X-178076Y-605625D01*
X-179207Y-602895D01*
X-180849Y-600438D01*
X-182938Y-598349D01*
X-185395Y-596707D01*
X-188125Y-595576D01*
X-191023Y-595000D01*
X-193977D01*
X-196875Y-595576D01*
X-199605Y-596707D01*
X-202062Y-598349D01*
X-204151Y-600438D01*
X-205793Y-602895D01*
X-206924Y-605625D01*
X-207500Y-608522D01*
Y-611477D01*
X-206924Y-614375D01*
X-205793Y-617105D01*
X-204151Y-619562D01*
X-202062Y-621651D01*
X-200214Y-622886D01*
X-200599Y-624156D01*
X-224408D01*
X-296056Y-552508D01*
Y-546770D01*
X-295380D01*
Y-529230D01*
X-304420D01*
Y-546770D01*
X-303744D01*
Y-554100D01*
X-303744Y-554100D01*
X-303451Y-555571D01*
X-302618Y-556818D01*
X-230183Y-629253D01*
X-230669Y-630426D01*
X-302138D01*
X-308756Y-623808D01*
Y-600770D01*
X-308080D01*
Y-583230D01*
X-317120D01*
Y-600770D01*
X-316444D01*
Y-625400D01*
X-316444Y-625400D01*
X-316151Y-626871D01*
X-315318Y-628118D01*
X-306448Y-636988D01*
X-306448Y-636988D01*
X-305201Y-637821D01*
X-303730Y-638114D01*
X-303730Y-638114D01*
X-80922D01*
X-56922Y-662114D01*
X-57520Y-664347D01*
Y-666853D01*
X-56871Y-669275D01*
X-55618Y-671445D01*
X-53845Y-673218D01*
X-51674Y-674471D01*
X-49253Y-675120D01*
X-46747D01*
X-44325Y-674471D01*
X-42155Y-673218D01*
X-41065Y-672128D01*
X-39794Y-672654D01*
Y-679521D01*
X-43106Y-682833D01*
X-44325Y-682129D01*
X-46747Y-681480D01*
X-49253D01*
X-51674Y-682129D01*
X-53807Y-683360D01*
X-55804Y-681363D01*
X-56555Y-680862D01*
X-57441Y-680686D01*
X-62337D01*
X-62380Y-680581D01*
X-63581Y-679380D01*
X-65151Y-678730D01*
X-66849D01*
X-68419Y-679380D01*
X-69620Y-680581D01*
X-70270Y-682151D01*
Y-683849D01*
X-69620Y-685419D01*
X-68419Y-686620D01*
X-66849Y-687270D01*
X-65151D01*
X-63581Y-686620D01*
X-62380Y-685419D01*
X-62337Y-685314D01*
X-58399D01*
X-56694Y-687019D01*
X-56871Y-687325D01*
X-57520Y-689747D01*
Y-692253D01*
X-56871Y-694675D01*
X-55618Y-696845D01*
X-53845Y-698618D01*
X-51674Y-699871D01*
X-49253Y-700520D01*
X-46747D01*
X-44325Y-699871D01*
X-42155Y-698618D01*
X-40382Y-696845D01*
X-39129Y-694675D01*
X-38480Y-692253D01*
Y-689747D01*
X-39129Y-687325D01*
X-39833Y-686106D01*
X-37698Y-683971D01*
X-36525Y-684457D01*
Y-721251D01*
X-43959Y-728686D01*
X-64000D01*
X-64886Y-728862D01*
X-65637Y-729363D01*
X-73907Y-737633D01*
X-74408Y-738384D01*
X-74584Y-739270D01*
Y-850561D01*
X-91753Y-867730D01*
X-102520D01*
Y-879966D01*
X-103115Y-880363D01*
X-117947Y-895195D01*
X-118314Y-895745D01*
X-119271Y-896502D01*
X-130038D01*
X-138686Y-887855D01*
Y-877959D01*
X-99954Y-839227D01*
X-99849Y-839270D01*
X-98151D01*
X-96581Y-838620D01*
X-95380Y-837419D01*
X-94730Y-835849D01*
Y-834151D01*
X-95380Y-832581D01*
X-96581Y-831380D01*
X-98151Y-830730D01*
X-99849D01*
X-101419Y-831380D01*
X-102620Y-832581D01*
X-103270Y-834151D01*
Y-835849D01*
X-103227Y-835954D01*
X-142637Y-875363D01*
X-143138Y-876114D01*
X-143315Y-877000D01*
Y-888813D01*
X-143138Y-889699D01*
X-142637Y-890450D01*
X-133311Y-899775D01*
Y-913542D01*
X-121985D01*
X-121499Y-914716D01*
X-125483Y-918699D01*
X-134331D01*
Y-942144D01*
X-135601Y-942774D01*
X-136085Y-942405D01*
Y-918971D01*
X-136378Y-917500D01*
X-137211Y-916253D01*
X-137211Y-916253D01*
X-143195Y-910269D01*
Y-909395D01*
X-143333Y-908707D01*
X-143723Y-908123D01*
X-144306Y-907733D01*
X-144995Y-907596D01*
X-146906D01*
Y-903005D01*
X-144995D01*
X-144306Y-902868D01*
X-143723Y-902478D01*
X-143333Y-901894D01*
X-143195Y-901205D01*
Y-896695D01*
X-143333Y-896006D01*
X-143723Y-895423D01*
X-144306Y-895033D01*
X-144995Y-894896D01*
X-156505D01*
X-157194Y-895033D01*
X-157778Y-895423D01*
X-158168Y-896006D01*
X-158305Y-896695D01*
Y-901205D01*
X-158168Y-901894D01*
X-157778Y-902478D01*
X-157194Y-902868D01*
X-156505Y-903005D01*
X-154594D01*
Y-907596D01*
X-156505D01*
X-157194Y-907733D01*
X-157304Y-907806D01*
X-164500D01*
X-165971Y-908099D01*
X-167218Y-908932D01*
X-167218Y-908932D01*
X-185042Y-926756D01*
X-185875Y-928003D01*
X-185944Y-928350D01*
X-194522Y-936928D01*
X-195695Y-936442D01*
Y-934795D01*
X-195832Y-934107D01*
X-196222Y-933523D01*
X-196806Y-933133D01*
X-197495Y-932996D01*
X-209005D01*
X-209694Y-933133D01*
X-210277Y-933523D01*
X-210667Y-934107D01*
X-210804Y-934795D01*
Y-939305D01*
X-210667Y-939994D01*
X-210277Y-940578D01*
X-209694Y-940968D01*
X-209005Y-941105D01*
X-200358D01*
X-199872Y-942278D01*
X-201740Y-944146D01*
X-221929D01*
X-221929Y-944146D01*
X-223400Y-944438D01*
X-224647Y-945272D01*
X-224647Y-945272D01*
X-230666Y-951291D01*
X-252770D01*
Y-960895D01*
X-309557Y-1017682D01*
X-310730Y-1017196D01*
Y-1000035D01*
X-321365D01*
Y-1020670D01*
X-314205D01*
X-313718Y-1021843D01*
X-324718Y-1032843D01*
X-325551Y-1034090D01*
X-325844Y-1035561D01*
X-325844Y-1035561D01*
Y-1049130D01*
X-329128D01*
X-329500Y-1049056D01*
X-329500Y-1049056D01*
X-350640D01*
X-420915Y-978782D01*
X-422162Y-977949D01*
X-423633Y-977656D01*
X-423633Y-977656D01*
X-451092D01*
X-451982Y-976115D01*
X-453615Y-974482D01*
X-455615Y-973328D01*
X-457845Y-972730D01*
X-458936D01*
X-459462Y-971460D01*
X-415846Y-927844D01*
X-382770D01*
Y-931520D01*
X-360666D01*
X-346839Y-945347D01*
X-346581Y-945520D01*
Y-950976D01*
X-331419D01*
Y-938859D01*
X-335156D01*
Y-932546D01*
X-324228Y-921618D01*
X-323054Y-922104D01*
Y-924763D01*
X-322918Y-925448D01*
X-322530Y-926030D01*
X-321948Y-926418D01*
X-321844Y-926439D01*
Y-931122D01*
X-322270Y-932151D01*
Y-933849D01*
X-321620Y-935419D01*
X-320653Y-936385D01*
X-320628Y-937457D01*
X-320729Y-937866D01*
X-320770Y-937888D01*
X-321151Y-937730D01*
X-322849D01*
X-324419Y-938380D01*
X-325620Y-939581D01*
X-326270Y-941151D01*
Y-942849D01*
X-325620Y-944419D01*
X-324419Y-945620D01*
X-322849Y-946270D01*
X-321151D01*
X-320808Y-946128D01*
X-316020Y-950916D01*
Y-960788D01*
X-317193Y-961274D01*
X-320642Y-957825D01*
X-321393Y-957323D01*
X-322279Y-957147D01*
X-331419D01*
Y-953402D01*
X-338365D01*
Y-959461D01*
Y-965520D01*
X-331419D01*
Y-961776D01*
X-323238D01*
X-317357Y-967656D01*
X-316606Y-968158D01*
X-315720Y-968334D01*
X-304310D01*
X-303424Y-968158D01*
X-302673Y-967656D01*
X-292581Y-957564D01*
X-288020D01*
Y-965020D01*
X-282635D01*
Y-955250D01*
Y-945480D01*
X-288020D01*
Y-952935D01*
X-293540D01*
X-294425Y-953111D01*
X-295176Y-953613D01*
X-302807Y-961244D01*
X-303980Y-960758D01*
Y-945480D01*
X-310584D01*
X-316590Y-939473D01*
X-317838Y-938640D01*
X-318311Y-938546D01*
X-318340Y-938540D01*
X-318256Y-937678D01*
D01*
X-318215Y-937270D01*
X-318080Y-937270D01*
X-317151D01*
X-315581Y-936620D01*
X-314380Y-935419D01*
X-313730Y-933849D01*
Y-932151D01*
X-314156Y-931122D01*
Y-926555D01*
X-310238D01*
X-309552Y-926418D01*
X-308970Y-926030D01*
X-308582Y-925448D01*
X-308446Y-924763D01*
Y-919238D01*
X-307339Y-918387D01*
X-307095Y-918341D01*
X-300718Y-924718D01*
X-300718Y-924718D01*
X-299471Y-925552D01*
X-298000Y-925844D01*
X-298000Y-925844D01*
X-293154D01*
X-293029Y-926030D01*
X-292448Y-926418D01*
X-291762Y-926555D01*
X-280737D01*
X-280052Y-926418D01*
X-279470Y-926030D01*
X-279082Y-925448D01*
X-278946Y-924763D01*
Y-921987D01*
X-277772Y-921501D01*
X-270887Y-928387D01*
X-270136Y-928888D01*
X-269250Y-929064D01*
X-262747D01*
Y-932770D01*
X-253612D01*
Y-926750D01*
Y-920730D01*
X-262747D01*
Y-924436D01*
X-268291D01*
X-278946Y-913781D01*
Y-913135D01*
X-286250D01*
Y-911865D01*
X-278946D01*
Y-909738D01*
X-279082Y-909052D01*
X-279470Y-908471D01*
Y-908062D01*
X-278281Y-906844D01*
X-260977D01*
X-260977Y-906844D01*
X-259506Y-906551D01*
X-258259Y-905718D01*
X-257311Y-904770D01*
X-243207D01*
Y-902594D01*
X-237770D01*
Y-904770D01*
X-218230D01*
Y-902694D01*
X-209954D01*
X-209694Y-902868D01*
X-209005Y-903005D01*
X-207094D01*
Y-907596D01*
X-209005D01*
X-209694Y-907733D01*
X-210277Y-908123D01*
X-210667Y-908707D01*
X-210804Y-909395D01*
Y-913905D01*
X-210667Y-914594D01*
X-210277Y-915178D01*
X-209694Y-915568D01*
X-209005Y-915705D01*
X-197495D01*
X-196806Y-915568D01*
X-196222Y-915178D01*
X-195832Y-914594D01*
X-195695Y-913905D01*
Y-909395D01*
X-195832Y-908707D01*
X-196222Y-908123D01*
X-196806Y-907733D01*
X-197495Y-907596D01*
X-199406D01*
Y-903005D01*
X-197495D01*
X-196806Y-902868D01*
X-196222Y-902478D01*
X-195832Y-901894D01*
X-195695Y-901205D01*
Y-896695D01*
X-195832Y-896006D01*
X-196222Y-895423D01*
X-196806Y-895033D01*
X-197495Y-894896D01*
X-199406D01*
Y-804750D01*
X-198185Y-803881D01*
X-196875Y-804424D01*
X-193977Y-805000D01*
X-191023D01*
X-188125Y-804424D01*
X-185395Y-803293D01*
X-182938Y-801651D01*
X-180849Y-799562D01*
X-179207Y-797105D01*
X-178076Y-794375D01*
X-177500Y-791477D01*
Y-788523D01*
X-178076Y-785625D01*
X-179207Y-782895D01*
X-180849Y-780438D01*
X-182938Y-778349D01*
X-185395Y-776707D01*
X-188125Y-775576D01*
X-191023Y-775000D01*
X-193977D01*
X-196875Y-775576D01*
X-199605Y-776707D01*
X-202062Y-778349D01*
X-204151Y-780438D01*
X-205793Y-782895D01*
X-206924Y-785625D01*
X-207500Y-788523D01*
Y-791477D01*
X-207242Y-792775D01*
X-208412Y-793400D01*
X-256156Y-745657D01*
Y-653878D01*
X-255730Y-652849D01*
Y-651151D01*
X-256380Y-649581D01*
X-257581Y-648380D01*
X-259151Y-647730D01*
X-260849D01*
X-262419Y-648380D01*
X-263620Y-649581D01*
X-264270Y-651151D01*
Y-652849D01*
X-263844Y-653878D01*
Y-747249D01*
X-263844Y-747249D01*
X-263551Y-748720D01*
X-262718Y-749967D01*
X-207094Y-805591D01*
Y-894896D01*
X-209005D01*
X-209561Y-895006D01*
X-218230D01*
Y-892730D01*
X-237770D01*
Y-894906D01*
X-243207D01*
Y-892730D01*
X-262747D01*
Y-899156D01*
X-279346D01*
X-279470Y-898970D01*
X-280052Y-898582D01*
X-280737Y-898446D01*
X-291762D01*
X-292448Y-898582D01*
X-293029Y-898970D01*
X-293154Y-899156D01*
X-296506D01*
X-296506Y-899156D01*
X-297977Y-899449D01*
X-299224Y-900282D01*
X-308004Y-909062D01*
X-308067Y-909156D01*
X-321046D01*
X-322517Y-909449D01*
X-323764Y-910282D01*
X-323764Y-910282D01*
X-341718Y-928236D01*
X-342551Y-929483D01*
X-342844Y-930954D01*
X-342844Y-930954D01*
Y-936811D01*
X-344017Y-937297D01*
X-355230Y-926084D01*
Y-916480D01*
X-382770D01*
Y-920156D01*
X-417438D01*
X-417438Y-920156D01*
X-418909Y-920449D01*
X-420156Y-921282D01*
X-420156Y-921282D01*
X-472988Y-974114D01*
X-473821Y-975361D01*
X-474114Y-976832D01*
X-474114Y-976832D01*
Y-1011168D01*
X-474114Y-1011168D01*
X-473821Y-1012639D01*
X-472988Y-1013886D01*
X-464051Y-1022823D01*
X-463942Y-1024044D01*
X-463948Y-1024230D01*
X-464385Y-1024482D01*
X-466018Y-1026115D01*
X-467172Y-1028115D01*
X-467770Y-1030346D01*
Y-1032655D01*
X-467172Y-1034885D01*
X-466018Y-1036885D01*
X-464385Y-1038518D01*
X-462385Y-1039672D01*
X-460154Y-1040270D01*
X-457845D01*
X-455615Y-1039672D01*
X-453615Y-1038518D01*
X-451982Y-1036885D01*
X-450828Y-1034885D01*
X-450230Y-1032655D01*
Y-1030346D01*
X-450828Y-1028115D01*
X-451982Y-1026115D01*
X-452753Y-1025344D01*
X-452227Y-1024074D01*
X-414530D01*
X-406048Y-1032557D01*
X-406534Y-1033730D01*
X-410365D01*
Y-1041865D01*
X-402230D01*
Y-1038034D01*
X-401057Y-1037548D01*
X-390844Y-1047760D01*
Y-1053980D01*
X-395520D01*
Y-1066520D01*
X-378480D01*
Y-1053980D01*
X-383156D01*
Y-1046168D01*
X-383156Y-1046168D01*
X-383449Y-1044697D01*
X-384282Y-1043450D01*
X-384282Y-1043450D01*
X-410220Y-1017512D01*
X-411467Y-1016679D01*
X-412938Y-1016386D01*
X-412938Y-1016386D01*
X-457105D01*
X-457272Y-1015116D01*
X-455615Y-1014672D01*
X-453615Y-1013518D01*
X-451982Y-1011885D01*
X-451092Y-1010344D01*
X-409092D01*
X-358133Y-1061303D01*
Y-1073442D01*
X-358133Y-1073442D01*
X-357841Y-1074913D01*
X-357007Y-1076160D01*
X-336477Y-1096691D01*
X-336647Y-1097468D01*
X-336960Y-1097961D01*
X-479064D01*
X-483114Y-1097156D01*
X-486929Y-1095575D01*
X-490362Y-1093281D01*
X-493282Y-1090362D01*
X-495575Y-1086929D01*
X-497155Y-1083114D01*
X-497961Y-1079065D01*
Y-1077000D01*
Y-917000D01*
Y-915526D01*
X-497386Y-912636D01*
X-496258Y-909913D01*
X-494621Y-907463D01*
X-492537Y-905379D01*
X-490087Y-903742D01*
X-487364Y-902614D01*
X-484474Y-902039D01*
X-400000D01*
X-399967Y-902032D01*
X-399933Y-902038D01*
X-397971Y-901974D01*
X-397873Y-901951D01*
X-397772Y-901957D01*
X-393881Y-901445D01*
X-393754Y-901402D01*
X-393619Y-901393D01*
X-389829Y-900378D01*
X-389709Y-900318D01*
X-389576Y-900292D01*
X-385951Y-898790D01*
X-385839Y-898715D01*
X-385712Y-898672D01*
X-382313Y-896710D01*
X-382212Y-896621D01*
X-382092Y-896562D01*
X-378978Y-894173D01*
X-378890Y-894072D01*
X-378778Y-893997D01*
X-376003Y-891222D01*
X-375928Y-891110D01*
X-375827Y-891022D01*
X-373438Y-887908D01*
X-373379Y-887788D01*
X-373290Y-887687D01*
X-371328Y-884288D01*
X-371285Y-884161D01*
X-371210Y-884049D01*
X-369708Y-880424D01*
X-369682Y-880292D01*
X-369623Y-880171D01*
X-368607Y-876380D01*
X-368598Y-876246D01*
X-368555Y-876119D01*
X-368043Y-872228D01*
X-368049Y-872127D01*
X-368026Y-872029D01*
X-367962Y-870067D01*
X-367968Y-870033D01*
X-367961Y-870000D01*
X-368005Y-530181D01*
X-368013Y-530144D01*
X-368007Y-530108D01*
X-368078Y-528143D01*
X-368101Y-528045D01*
X-368094Y-527944D01*
X-368620Y-524050D01*
X-368664Y-523923D01*
X-368673Y-523788D01*
X-369702Y-519996D01*
X-369762Y-519876D01*
X-369789Y-519744D01*
X-371304Y-516118D01*
X-371379Y-516007D01*
X-371423Y-515879D01*
X-373399Y-512483D01*
X-373488Y-512382D01*
X-373548Y-512262D01*
X-375950Y-509152D01*
X-376051Y-509063D01*
X-376126Y-508952D01*
X-378914Y-506182D01*
X-379026Y-506108D01*
X-379115Y-506007D01*
X-382240Y-503625D01*
X-382361Y-503566D01*
X-382463Y-503478D01*
X-385872Y-501524D01*
X-385999Y-501481D01*
X-386111Y-501407D01*
X-389747Y-499915D01*
X-389879Y-499889D01*
X-389999Y-499830D01*
X-393798Y-498825D01*
X-393932Y-498817D01*
X-394060Y-498774D01*
X-397957Y-498274D01*
X-398059Y-498280D01*
X-398157Y-498258D01*
X-400122Y-498200D01*
X-400149Y-498204D01*
X-400176Y-498199D01*
X-480985Y-497970D01*
X-480988Y-497971D01*
X-480991Y-497970D01*
X-482662D01*
X-485941Y-497318D01*
X-489029Y-496039D01*
X-491809Y-494182D01*
X-494172Y-491818D01*
X-496030Y-489038D01*
X-497309Y-485950D01*
X-497961Y-482672D01*
Y-481000D01*
X-497961Y-400057D01*
X-497395Y-389954D01*
X-495189Y-369696D01*
X-492154Y-349533D01*
X-488296Y-329512D01*
X-483622Y-309665D01*
X-478140Y-290026D01*
X-471858Y-270629D01*
X-464788Y-251504D01*
X-456941Y-232685D01*
X-448330Y-214202D01*
X-438970Y-196088D01*
X-428876Y-178372D01*
X-418066Y-161084D01*
X-406557Y-144252D01*
X-394370Y-127907D01*
X-381523Y-112074D01*
X-368039Y-96778D01*
X-353940Y-82049D01*
X-339250Y-67909D01*
X-323994Y-54382D01*
X-308197Y-41490D01*
X-291886Y-29256D01*
X-275087Y-17700D01*
X-257829Y-6840D01*
X-249457Y-2039D01*
X249455Y-2039D01*
X257816Y-6848D01*
D02*
G37*
G36*
X-13020Y-203770D02*
X-4980D01*
X-4770Y-204953D01*
Y-207020D01*
X-4315D01*
Y-219835D01*
X-5427Y-220753D01*
X-13299D01*
X-13523Y-220708D01*
X-14064D01*
X-19409Y-215363D01*
X-20160Y-214862D01*
X-21045Y-214685D01*
X-31337D01*
X-31380Y-214581D01*
X-32581Y-213380D01*
X-34151Y-212730D01*
X-35849D01*
X-37419Y-213380D01*
X-38620Y-214581D01*
X-39270Y-216151D01*
Y-217849D01*
X-38620Y-219419D01*
X-37419Y-220620D01*
X-35849Y-221270D01*
X-34151D01*
X-32581Y-220620D01*
X-31380Y-219419D01*
X-31337Y-219314D01*
X-22004D01*
X-16659Y-224659D01*
X-15908Y-225161D01*
X-15793Y-225184D01*
Y-237793D01*
X-11087D01*
Y-255025D01*
X-15793D01*
Y-272065D01*
X-11087D01*
Y-289753D01*
X-15793D01*
Y-302361D01*
X-15908Y-302384D01*
X-16659Y-302886D01*
X-18459Y-304685D01*
X-64337D01*
X-64380Y-304581D01*
X-65581Y-303380D01*
X-67151Y-302730D01*
X-68849D01*
X-70419Y-303380D01*
X-71620Y-304581D01*
X-72270Y-306151D01*
Y-307849D01*
X-71620Y-309419D01*
X-70419Y-310620D01*
X-68849Y-311270D01*
X-67151D01*
X-65581Y-310620D01*
X-64380Y-309419D01*
X-64337Y-309314D01*
X-17500D01*
X-16614Y-309138D01*
X-15863Y-308637D01*
X-14064Y-306837D01*
X-13523D01*
X-13299Y-306793D01*
X-11087D01*
Y-308227D01*
X-10911Y-309113D01*
X-10409Y-309864D01*
X-2657Y-317616D01*
X-1907Y-318118D01*
X-1021Y-318294D01*
X4637D01*
X5163Y-319564D01*
X-6459Y-331185D01*
X-17199D01*
Y-325449D01*
X-23724D01*
Y-333500D01*
X-24994D01*
Y-325449D01*
X-44801D01*
Y-341551D01*
X-39815D01*
Y-348388D01*
X-41907Y-350480D01*
X-42408Y-351231D01*
X-42585Y-352117D01*
Y-368183D01*
X-42408Y-369069D01*
X-41907Y-369819D01*
X-39815Y-371911D01*
Y-373230D01*
X-41997D01*
X-47186Y-368041D01*
Y-366224D01*
X-46380Y-365419D01*
X-45730Y-363849D01*
Y-362151D01*
X-46380Y-360581D01*
X-47581Y-359380D01*
X-49151Y-358730D01*
X-50849D01*
X-52419Y-359380D01*
X-53620Y-360581D01*
X-54270Y-362151D01*
Y-363849D01*
X-53620Y-365419D01*
X-52419Y-366620D01*
X-51814Y-366870D01*
Y-369000D01*
X-51638Y-369886D01*
X-51136Y-370637D01*
X-45270Y-376503D01*
Y-387770D01*
X-44814D01*
Y-407542D01*
X-45988Y-408029D01*
X-54653Y-399364D01*
X-55230Y-398978D01*
Y-397730D01*
X-69770D01*
Y-403185D01*
X-73685D01*
Y-393663D01*
X-73581Y-393620D01*
X-72380Y-392419D01*
X-71730Y-390849D01*
Y-389151D01*
X-72380Y-387581D01*
X-73581Y-386380D01*
X-75151Y-385730D01*
X-76849D01*
X-78419Y-386380D01*
X-79620Y-387581D01*
X-80270Y-389151D01*
Y-390849D01*
X-79620Y-392419D01*
X-78419Y-393620D01*
X-78314Y-393663D01*
Y-400714D01*
X-79584Y-401204D01*
X-79785Y-400983D01*
X-79730Y-400849D01*
Y-399151D01*
X-80380Y-397581D01*
X-81581Y-396380D01*
X-83151Y-395730D01*
X-84849D01*
X-86419Y-396380D01*
X-87620Y-397581D01*
X-88270Y-399151D01*
Y-400849D01*
X-87620Y-402419D01*
X-86419Y-403620D01*
X-84849Y-404270D01*
X-84086D01*
X-83574Y-404781D01*
X-83408Y-405616D01*
X-82907Y-406367D01*
X-82867Y-406406D01*
X-83581Y-407380D01*
X-85151Y-406730D01*
X-86849D01*
X-88419Y-407380D01*
X-89620Y-408581D01*
X-90270Y-410151D01*
Y-411849D01*
X-89620Y-413419D01*
X-89439Y-413600D01*
X-89737Y-415098D01*
X-90419Y-415380D01*
X-91620Y-416581D01*
X-92270Y-418151D01*
Y-419849D01*
X-91620Y-421419D01*
X-90419Y-422620D01*
X-88849Y-423270D01*
X-87151D01*
X-85845Y-422729D01*
X-85418Y-422814D01*
X-69770D01*
Y-428186D01*
X-89994D01*
X-95955Y-422224D01*
Y-419007D01*
X-95908Y-418770D01*
Y-372635D01*
X-77093Y-353820D01*
X-76592Y-353069D01*
X-76416Y-352183D01*
Y-237689D01*
X-45311Y-206584D01*
X-26939D01*
X-26053Y-206408D01*
X-25303Y-205907D01*
X-22710Y-203314D01*
X-13020D01*
Y-203770D01*
D02*
G37*
G36*
X8599Y-323564D02*
X20291D01*
X21533Y-324807D01*
X21047Y-325980D01*
X10980D01*
Y-337435D01*
X5474D01*
X4419Y-336380D01*
X2849Y-335730D01*
X1151D01*
X-419Y-336380D01*
X-1620Y-337581D01*
X-2270Y-339151D01*
Y-340849D01*
X-1620Y-342419D01*
X-419Y-343620D01*
X1151Y-344270D01*
X2849D01*
X4419Y-343620D01*
X5620Y-342419D01*
X5767Y-342064D01*
X13250D01*
X13474Y-342020D01*
X14686D01*
Y-357000D01*
X14862Y-357886D01*
X15364Y-358637D01*
X20186Y-363459D01*
Y-373230D01*
X9815D01*
Y-369526D01*
X10151Y-368352D01*
X11849D01*
X13419Y-367702D01*
X14620Y-366501D01*
X15270Y-364932D01*
Y-363233D01*
X14620Y-361664D01*
X13419Y-360462D01*
X11849Y-359812D01*
X10151D01*
X8581Y-360462D01*
X7380Y-361664D01*
X6730Y-363233D01*
Y-364743D01*
X6014Y-365405D01*
X5603Y-365300D01*
X4814Y-364860D01*
Y-361358D01*
X6902Y-359270D01*
X7849D01*
X9419Y-358620D01*
X10620Y-357419D01*
X11270Y-355849D01*
Y-354151D01*
X10620Y-352581D01*
X9419Y-351380D01*
X7849Y-350730D01*
X6151D01*
X4581Y-351380D01*
X3380Y-352581D01*
X2730Y-354151D01*
Y-355849D01*
X3037Y-356589D01*
X863Y-358763D01*
X362Y-359514D01*
X185Y-360399D01*
Y-373230D01*
X-20185D01*
Y-347404D01*
X-20362Y-346518D01*
X-20863Y-345767D01*
X-22045Y-344586D01*
Y-341551D01*
X-17199D01*
Y-335814D01*
X-5500D01*
X-4614Y-335638D01*
X-3863Y-335136D01*
X7857Y-323416D01*
X8599Y-323564D01*
D02*
G37*
G36*
X161190Y-361537D02*
X156041Y-366685D01*
X82663D01*
X82620Y-366581D01*
X81419Y-365380D01*
X79849Y-364730D01*
X78151D01*
X77902Y-364833D01*
X77182Y-363756D01*
X92435Y-348504D01*
X161190D01*
Y-361537D01*
D02*
G37*
G36*
X74833Y-367902D02*
X74730Y-368151D01*
Y-369849D01*
X75380Y-371419D01*
X76581Y-372620D01*
X76686Y-372663D01*
Y-379041D01*
X72954Y-382773D01*
X72849Y-382730D01*
X71151D01*
X69581Y-383380D01*
X68380Y-384581D01*
X67730Y-386151D01*
Y-387849D01*
X68380Y-389419D01*
X69377Y-390415D01*
X69157Y-391381D01*
X68987Y-391685D01*
X50912D01*
X50427Y-390512D01*
X73756Y-367182D01*
X74833Y-367902D01*
D02*
G37*
G36*
X188766Y-349774D02*
X187950Y-350590D01*
X186790Y-352599D01*
X186190Y-354840D01*
Y-357160D01*
X186790Y-359400D01*
X187352Y-360374D01*
X156041Y-391685D01*
X75012D01*
X74843Y-391381D01*
X74623Y-390415D01*
X75620Y-389419D01*
X76270Y-387849D01*
Y-386151D01*
X76227Y-386046D01*
X80637Y-381637D01*
X81138Y-380886D01*
X81314Y-380000D01*
Y-372663D01*
X81419Y-372620D01*
X82620Y-371419D01*
X82663Y-371315D01*
X157000D01*
X157886Y-371138D01*
X158637Y-370637D01*
X164463Y-364810D01*
X178810D01*
Y-348504D01*
X188240D01*
X188766Y-349774D01*
D02*
G37*
G36*
X16363Y-392637D02*
X19363Y-395637D01*
X20114Y-396138D01*
X21000Y-396315D01*
X41043D01*
X41529Y-397488D01*
X34061Y-404955D01*
X19742D01*
X18924Y-403685D01*
X19270Y-402849D01*
Y-401151D01*
X18620Y-399581D01*
X17419Y-398380D01*
X15849Y-397730D01*
X15183D01*
X15023Y-397491D01*
X14814Y-397282D01*
Y-392604D01*
X16084Y-392219D01*
X16363Y-392637D01*
D02*
G37*
G36*
X-388535Y-399465D02*
X-387785Y-399967D01*
X-386899Y-400143D01*
X-335493D01*
X-335029Y-401231D01*
X-335816Y-402199D01*
X-343801D01*
Y-409780D01*
X-344974Y-410266D01*
X-349915Y-405325D01*
X-350666Y-404823D01*
X-351552Y-404647D01*
X-391518D01*
X-397721Y-398443D01*
X-397235Y-397270D01*
X-390731D01*
X-388535Y-399465D01*
D02*
G37*
G36*
X-92905Y-456916D02*
X-93117Y-457777D01*
X-93394Y-458186D01*
X-108006D01*
X-108892Y-458362D01*
X-109643Y-458863D01*
X-129512Y-478733D01*
X-130686Y-478247D01*
Y-444000D01*
X-130862Y-443114D01*
X-131363Y-442363D01*
X-139730Y-433997D01*
Y-433151D01*
X-140380Y-431581D01*
X-141147Y-430815D01*
X-141443Y-430000D01*
X-141147Y-429185D01*
X-140380Y-428419D01*
X-139730Y-426849D01*
Y-425151D01*
X-140380Y-423581D01*
X-141581Y-422380D01*
X-142236Y-422109D01*
X-142340Y-420691D01*
X-141928Y-420444D01*
X-141498Y-420622D01*
X-139799D01*
X-138230Y-419972D01*
X-137029Y-418770D01*
X-136378Y-417201D01*
Y-415502D01*
X-136565Y-415051D01*
X-135489Y-414332D01*
X-92905Y-456916D01*
D02*
G37*
G36*
X331140Y-400314D02*
X330562Y-400892D01*
X330061Y-401643D01*
X329884Y-402529D01*
Y-412997D01*
X315488Y-427394D01*
X314314Y-426908D01*
Y-419770D01*
X318270D01*
Y-413635D01*
X312000D01*
X305730D01*
Y-419770D01*
X305812D01*
X306298Y-420943D01*
X302363Y-424878D01*
X301862Y-425629D01*
X301686Y-426514D01*
Y-427000D01*
X301862Y-427886D01*
X302363Y-428637D01*
X303114Y-429138D01*
X304000Y-429314D01*
X304886Y-429138D01*
X305637Y-428637D01*
X306138Y-427886D01*
X306197Y-427590D01*
X308512Y-425275D01*
X309685Y-425761D01*
Y-433196D01*
X305897Y-436985D01*
X305285D01*
Y-445245D01*
X309170D01*
Y-440258D01*
X311560Y-437868D01*
X312830Y-438394D01*
Y-454775D01*
X314685D01*
Y-461337D01*
X314581Y-461380D01*
X313380Y-462581D01*
X312730Y-464151D01*
Y-465849D01*
X313076Y-466685D01*
X312257Y-467956D01*
X299229D01*
X297227Y-465954D01*
X297270Y-465849D01*
Y-464151D01*
X296620Y-462581D01*
X295419Y-461380D01*
X295315Y-461337D01*
Y-454775D01*
X296470D01*
Y-436985D01*
X294265D01*
Y-420508D01*
X295003Y-419770D01*
X304270D01*
Y-406230D01*
X291730D01*
Y-416497D01*
X290313Y-417913D01*
X289812Y-418664D01*
X289636Y-419550D01*
Y-436985D01*
X287430D01*
Y-436985D01*
X286315Y-436612D01*
Y-407000D01*
X286138Y-406114D01*
X285637Y-405363D01*
X280491Y-400218D01*
X280977Y-399044D01*
X330614D01*
X331140Y-400314D01*
D02*
G37*
G36*
X-48084Y-412478D02*
Y-438022D01*
X-48495Y-438357D01*
X-49354Y-438814D01*
X-50000Y-438685D01*
X-55230D01*
Y-428270D01*
Y-418270D01*
Y-406992D01*
X-54057Y-406506D01*
X-48084Y-412478D01*
D02*
G37*
G36*
X45230Y-431992D02*
Y-438270D01*
Y-448270D01*
Y-458270D01*
Y-471161D01*
X43960Y-471687D01*
X37227Y-464954D01*
X37270Y-464849D01*
Y-463151D01*
X36620Y-461581D01*
X35419Y-460380D01*
X33849Y-459730D01*
X33089D01*
X32112Y-459578D01*
X31855Y-458557D01*
Y-444552D01*
X33124Y-443845D01*
X34151Y-444270D01*
X35849D01*
X37419Y-443620D01*
X38620Y-442419D01*
X39270Y-440849D01*
Y-439151D01*
X38620Y-437581D01*
X38301Y-437262D01*
X44057Y-431506D01*
X45230Y-431992D01*
D02*
G37*
G36*
X475956Y-454254D02*
X443693Y-486516D01*
X442520Y-486030D01*
Y-484157D01*
X436885D01*
Y-490293D01*
X438258D01*
X438744Y-491466D01*
X435524Y-494686D01*
X386422D01*
X385536Y-494862D01*
X384785Y-495364D01*
X362488Y-517661D01*
X361315Y-517175D01*
Y-489254D01*
X361138Y-488368D01*
X360637Y-487618D01*
X346809Y-473790D01*
X347294Y-472479D01*
X347647Y-472408D01*
X348398Y-471907D01*
X360472Y-459832D01*
X368801D01*
Y-448743D01*
X357199D01*
Y-456559D01*
X345802Y-467956D01*
X321743D01*
X320924Y-466685D01*
X321270Y-465849D01*
Y-464151D01*
X320620Y-462581D01*
X319419Y-461380D01*
X319314Y-461337D01*
Y-454775D01*
X321870D01*
Y-442566D01*
X324357Y-440080D01*
X325530Y-440566D01*
Y-454775D01*
X334570D01*
Y-436985D01*
X329111D01*
X328625Y-435811D01*
X338635Y-425801D01*
X344801D01*
Y-418221D01*
X345974Y-417735D01*
X360686Y-432446D01*
Y-436230D01*
X357199D01*
Y-447319D01*
X368801D01*
Y-436230D01*
X365314D01*
Y-431487D01*
Y-419000D01*
X365183Y-418337D01*
X365784Y-417803D01*
X366230Y-417589D01*
X402278Y-453637D01*
X403029Y-454138D01*
X403915Y-454315D01*
X421230D01*
Y-456270D01*
X428115D01*
Y-452000D01*
Y-447730D01*
X421230D01*
Y-449686D01*
X404874D01*
X355502Y-400314D01*
X356028Y-399044D01*
X357686D01*
X392278Y-433637D01*
X393029Y-434138D01*
X393915Y-434315D01*
X421230D01*
Y-436270D01*
X436270D01*
Y-434315D01*
X453730D01*
Y-436270D01*
X467686D01*
Y-445542D01*
X465497Y-447730D01*
X461885D01*
Y-451365D01*
X468770D01*
Y-451003D01*
X471637Y-448137D01*
X472138Y-447386D01*
X472314Y-446500D01*
Y-397270D01*
X475956D01*
Y-454254D01*
D02*
G37*
G36*
X-82157Y-451916D02*
X-82369Y-452775D01*
X-82647Y-453186D01*
X-90088D01*
X-114009Y-429265D01*
X-113483Y-427995D01*
X-106078D01*
X-82157Y-451916D01*
D02*
G37*
G36*
X278437Y-404710D02*
X277911Y-405980D01*
X273135D01*
Y-414000D01*
Y-422020D01*
X273936D01*
Y-428209D01*
X274112Y-429094D01*
X274614Y-429845D01*
X275844Y-431075D01*
Y-431199D01*
X276020Y-432085D01*
X276522Y-432835D01*
X277272Y-433337D01*
X278158Y-433513D01*
X279044Y-433337D01*
X279795Y-432835D01*
X280296Y-432085D01*
X280415Y-431486D01*
X281686Y-431611D01*
Y-463453D01*
X281862Y-464339D01*
X282363Y-465089D01*
X292451Y-475177D01*
X293201Y-475678D01*
X294087Y-475854D01*
X341134D01*
X341155Y-475886D01*
X340476Y-477156D01*
X311000D01*
X309529Y-477449D01*
X308282Y-478282D01*
X308282Y-478282D01*
X304000Y-482564D01*
X301718Y-480282D01*
X300471Y-479449D01*
X299000Y-479156D01*
X299000Y-479156D01*
X276750D01*
X275279Y-479449D01*
X274032Y-480282D01*
X274032Y-480282D01*
X269584Y-484730D01*
X263122D01*
X262750Y-484656D01*
X262750Y-484656D01*
X242770D01*
Y-480980D01*
X223230D01*
Y-483156D01*
X218592D01*
X212844Y-477408D01*
Y-454592D01*
X217592Y-449844D01*
X223582D01*
X224480Y-450742D01*
X224480Y-453770D01*
X224480Y-455040D01*
Y-461365D01*
X233000D01*
X241520D01*
Y-455040D01*
X241520Y-454230D01*
X241520Y-452960D01*
Y-449719D01*
X257582D01*
X258480Y-450617D01*
X258480Y-453770D01*
X258480Y-455040D01*
Y-461615D01*
X267000D01*
X275520D01*
Y-455040D01*
X275520Y-454230D01*
X275520Y-452960D01*
Y-437730D01*
X263916D01*
X261344Y-435158D01*
Y-422020D01*
X263520D01*
Y-405980D01*
X251480D01*
Y-422020D01*
X253656D01*
Y-436750D01*
X253656Y-436750D01*
X253949Y-438221D01*
X254782Y-439468D01*
X256172Y-440858D01*
X255686Y-442031D01*
X241520D01*
Y-438230D01*
X224480D01*
Y-442156D01*
X216000D01*
X214529Y-442449D01*
X213282Y-443282D01*
X213282Y-443282D01*
X206282Y-450282D01*
X205449Y-451529D01*
X205156Y-453000D01*
X205156Y-453000D01*
Y-479000D01*
X205156Y-479000D01*
X205449Y-480471D01*
X206282Y-481718D01*
X214282Y-489718D01*
X214282Y-489718D01*
X215529Y-490551D01*
X217000Y-490844D01*
X223156D01*
Y-500826D01*
X190488Y-533494D01*
X189314Y-533008D01*
Y-527663D01*
X189419Y-527620D01*
X190620Y-526419D01*
X191270Y-524849D01*
Y-523151D01*
X190620Y-521581D01*
X189419Y-520380D01*
X187849Y-519730D01*
X186151D01*
X184581Y-520380D01*
X183380Y-521581D01*
X182730Y-523151D01*
Y-524849D01*
X183380Y-526419D01*
X184581Y-527620D01*
X184685Y-527663D01*
Y-541041D01*
X112066Y-613660D01*
X46515D01*
X45629Y-613837D01*
X44878Y-614338D01*
X29843Y-629373D01*
X29341Y-630124D01*
X29165Y-631010D01*
Y-700994D01*
X27895Y-701246D01*
X27620Y-700581D01*
X26419Y-699380D01*
X24849Y-698730D01*
X24314D01*
Y-565959D01*
X50637Y-539637D01*
X51138Y-538886D01*
X51315Y-538000D01*
Y-507663D01*
X51419Y-507620D01*
X52620Y-506419D01*
X53270Y-504849D01*
Y-503151D01*
X52620Y-501581D01*
X51419Y-500380D01*
X49849Y-499730D01*
X48151D01*
X46581Y-500380D01*
X45380Y-501581D01*
X44730Y-503151D01*
Y-504849D01*
X45380Y-506419D01*
X46581Y-507620D01*
X46686Y-507663D01*
Y-508851D01*
X45419Y-509380D01*
X43849Y-508730D01*
X42151D01*
X40581Y-509380D01*
X39380Y-510581D01*
X38730Y-512151D01*
Y-513849D01*
X39380Y-515419D01*
X40581Y-516620D01*
X40686Y-516663D01*
Y-538417D01*
X17093Y-562009D01*
X16592Y-562760D01*
X16415Y-563646D01*
Y-705546D01*
X15380Y-706581D01*
X14730Y-708151D01*
Y-709849D01*
X15380Y-711419D01*
X16581Y-712620D01*
X18151Y-713270D01*
X19849D01*
X21419Y-712620D01*
X22620Y-711419D01*
X23270Y-709849D01*
Y-708151D01*
X24280Y-707270D01*
X24849D01*
X26419Y-706620D01*
X27620Y-705419D01*
X27895Y-704754D01*
X29165Y-705006D01*
Y-800480D01*
X29341Y-801366D01*
X29843Y-802116D01*
X156685Y-928959D01*
Y-966730D01*
X152230D01*
Y-979270D01*
X165770D01*
Y-975314D01*
X184500D01*
X185386Y-975138D01*
X185937Y-974770D01*
X199270D01*
Y-962230D01*
X182730D01*
Y-970685D01*
X165770D01*
Y-966730D01*
X161314D01*
Y-928000D01*
X161138Y-927114D01*
X160636Y-926363D01*
X33794Y-799521D01*
Y-774254D01*
X35064Y-773728D01*
X36154Y-774818D01*
X38325Y-776071D01*
X40746Y-776720D01*
X41365D01*
Y-767200D01*
Y-757680D01*
X40746D01*
X38325Y-758329D01*
X36154Y-759582D01*
X35064Y-760672D01*
X33794Y-760146D01*
Y-748854D01*
X35064Y-748328D01*
X36154Y-749418D01*
X38325Y-750671D01*
X40746Y-751320D01*
X43253D01*
X45674Y-750671D01*
X47845Y-749418D01*
X49618Y-747645D01*
X50871Y-745474D01*
X51520Y-743053D01*
Y-740547D01*
X50871Y-738125D01*
X49618Y-735955D01*
X47845Y-734182D01*
X45674Y-732929D01*
X43253Y-732280D01*
X40746D01*
X38325Y-732929D01*
X36154Y-734182D01*
X35064Y-735272D01*
X33794Y-734746D01*
Y-723454D01*
X35064Y-722928D01*
X36154Y-724018D01*
X38325Y-725271D01*
X40746Y-725920D01*
X43253D01*
X45674Y-725271D01*
X47845Y-724018D01*
X49618Y-722245D01*
X50871Y-720074D01*
X51520Y-717653D01*
Y-715147D01*
X50871Y-712725D01*
X49618Y-710555D01*
X47845Y-708782D01*
X45674Y-707529D01*
X43253Y-706880D01*
X40746D01*
X38325Y-707529D01*
X36154Y-708782D01*
X35064Y-709872D01*
X33794Y-709346D01*
Y-698054D01*
X35064Y-697528D01*
X36154Y-698618D01*
X38325Y-699871D01*
X40746Y-700520D01*
X43253D01*
X45674Y-699871D01*
X47845Y-698618D01*
X49618Y-696845D01*
X50871Y-694675D01*
X51520Y-692253D01*
Y-689747D01*
X50871Y-687325D01*
X49618Y-685154D01*
X47845Y-683382D01*
X45674Y-682129D01*
X43253Y-681480D01*
X40746D01*
X38325Y-682129D01*
X36154Y-683382D01*
X35064Y-684472D01*
X33794Y-683946D01*
Y-672654D01*
X35064Y-672128D01*
X36154Y-673218D01*
X38325Y-674471D01*
X40746Y-675120D01*
X43253D01*
X45674Y-674471D01*
X47845Y-673218D01*
X49618Y-671445D01*
X50871Y-669275D01*
X51520Y-666853D01*
Y-664347D01*
X50922Y-662114D01*
X66192Y-646844D01*
X281000D01*
X281000Y-646844D01*
X282471Y-646551D01*
X283718Y-645718D01*
X307618Y-621818D01*
X307618Y-621818D01*
X308451Y-620571D01*
X308744Y-619100D01*
X308744Y-619100D01*
Y-600770D01*
X309420D01*
Y-583230D01*
X300380D01*
Y-600770D01*
X301056D01*
Y-617508D01*
X279408Y-639156D01*
X223939D01*
X223453Y-637983D01*
X289592Y-571844D01*
X306400D01*
X306400Y-571844D01*
X307871Y-571551D01*
X309118Y-570718D01*
X320318Y-559518D01*
X320318Y-559518D01*
X321151Y-558271D01*
X321444Y-556800D01*
Y-546770D01*
X322120D01*
Y-529230D01*
X313080D01*
Y-546770D01*
X313756D01*
Y-555208D01*
X304808Y-564156D01*
X288000D01*
X288000Y-564156D01*
X286529Y-564449D01*
X285282Y-565282D01*
X217678Y-632886D01*
X51520D01*
Y-630680D01*
X36742D01*
X36256Y-629507D01*
X47473Y-618289D01*
X54876D01*
X55402Y-619559D01*
X55380Y-619581D01*
X54730Y-621151D01*
Y-622849D01*
X55380Y-624419D01*
X56581Y-625620D01*
X58151Y-626270D01*
X59849D01*
X60878Y-625844D01*
X113746D01*
X113746Y-625844D01*
X115217Y-625551D01*
X116464Y-624718D01*
X194488Y-546694D01*
X194488Y-546694D01*
X195321Y-545447D01*
X195614Y-543976D01*
X195614Y-543976D01*
Y-539241D01*
X222057Y-512798D01*
X223230Y-513284D01*
Y-514365D01*
X232365D01*
Y-508980D01*
X227534D01*
X227048Y-507806D01*
X229718Y-505136D01*
X229718Y-505136D01*
X230551Y-503889D01*
X230844Y-502418D01*
X230844Y-502418D01*
Y-493020D01*
X242770D01*
Y-492344D01*
X258480D01*
Y-499960D01*
X258480Y-500770D01*
X258480Y-502040D01*
Y-508615D01*
X267000D01*
X275520D01*
Y-502040D01*
X275520Y-501230D01*
X275520Y-499960D01*
Y-489666D01*
X278342Y-486844D01*
X297408D01*
X300519Y-489955D01*
X300130Y-491225D01*
X300130D01*
Y-509015D01*
X309170D01*
Y-491225D01*
X308494D01*
Y-488942D01*
X312592Y-484844D01*
X342408D01*
X345386Y-487822D01*
Y-562479D01*
X344709Y-563156D01*
X328000D01*
X328000Y-563156D01*
X326529Y-563449D01*
X325282Y-564282D01*
X315282Y-574282D01*
X314449Y-575529D01*
X314156Y-577000D01*
X314156Y-577000D01*
Y-583230D01*
X313080D01*
Y-600770D01*
X322120D01*
Y-583230D01*
X321844D01*
Y-578592D01*
X329592Y-570844D01*
X346301D01*
X346301Y-570844D01*
X347772Y-570551D01*
X349019Y-569718D01*
X351948Y-566789D01*
X351948Y-566789D01*
X352781Y-565542D01*
X353074Y-564071D01*
Y-488261D01*
X354247Y-487775D01*
X356685Y-490213D01*
Y-642041D01*
X299041Y-699686D01*
X141000D01*
X140114Y-699862D01*
X139363Y-700363D01*
X58363Y-781363D01*
X57862Y-782114D01*
X57685Y-783000D01*
Y-802337D01*
X57581Y-802380D01*
X56380Y-803581D01*
X55730Y-805151D01*
Y-806849D01*
X56380Y-808419D01*
X57581Y-809620D01*
X59151Y-810270D01*
X60849D01*
X62419Y-809620D01*
X63620Y-808419D01*
X64270Y-806849D01*
Y-805151D01*
X63620Y-803581D01*
X62419Y-802380D01*
X62315Y-802337D01*
Y-783959D01*
X141959Y-704314D01*
X300000D01*
X300886Y-704138D01*
X301637Y-703637D01*
X358782Y-646491D01*
X359955Y-646977D01*
Y-856771D01*
X297093Y-919633D01*
X296592Y-920384D01*
X296416Y-921270D01*
Y-936811D01*
X294747Y-938480D01*
X283980D01*
Y-955520D01*
X288685D01*
Y-983000D01*
X288862Y-983885D01*
X289363Y-984636D01*
X290980Y-986253D01*
Y-999020D01*
X307020D01*
Y-982980D01*
X294253D01*
X293314Y-982041D01*
Y-955520D01*
X298020D01*
Y-941753D01*
X300367Y-939407D01*
X300710Y-938893D01*
X301891Y-939068D01*
X301980Y-939104D01*
Y-955520D01*
X313526D01*
X313750Y-955564D01*
X314291D01*
X373363Y-1014637D01*
X374114Y-1015138D01*
X375000Y-1015314D01*
X451000D01*
X451886Y-1015138D01*
X452637Y-1014637D01*
X453808Y-1013465D01*
X454310Y-1012714D01*
X454486Y-1011828D01*
Y-1009270D01*
X462270D01*
Y-999730D01*
X449730D01*
Y-1009270D01*
X449857D01*
Y-1010686D01*
X375959D01*
X316887Y-951613D01*
X316136Y-951112D01*
X316020Y-951089D01*
Y-938480D01*
X311314D01*
Y-930000D01*
X311138Y-929114D01*
X310637Y-928363D01*
X308227Y-925954D01*
X308270Y-925849D01*
Y-924151D01*
X307620Y-922581D01*
X306419Y-921380D01*
X304849Y-920730D01*
X304339D01*
X303813Y-919460D01*
X363907Y-859367D01*
X364408Y-858616D01*
X364585Y-857730D01*
Y-522111D01*
X369193Y-517503D01*
X370269Y-518222D01*
X369708Y-519576D01*
X369682Y-519709D01*
X369622Y-519829D01*
X368607Y-523619D01*
X368598Y-523754D01*
X368555Y-523881D01*
X368043Y-527772D01*
X368049Y-527873D01*
X368026Y-527971D01*
X367962Y-529933D01*
X367967Y-529967D01*
X367961Y-530000D01*
Y-870000D01*
X367967Y-870033D01*
X367962Y-870067D01*
X368026Y-872029D01*
X368049Y-872127D01*
X368043Y-872228D01*
X368555Y-876119D01*
X368598Y-876246D01*
X368607Y-876380D01*
X369622Y-880171D01*
X369682Y-880292D01*
X369708Y-880424D01*
X371210Y-884049D01*
X371285Y-884161D01*
X371328Y-884288D01*
X373290Y-887687D01*
X373379Y-887788D01*
X373438Y-887908D01*
X375827Y-891022D01*
X375928Y-891110D01*
X376003Y-891222D01*
X378778Y-893997D01*
X378890Y-894072D01*
X378978Y-894173D01*
X382092Y-896562D01*
X382212Y-896621D01*
X382313Y-896710D01*
X385712Y-898672D01*
X385839Y-898715D01*
X385951Y-898790D01*
X389576Y-900292D01*
X389708Y-900318D01*
X389829Y-900378D01*
X393619Y-901393D01*
X393754Y-901402D01*
X393881Y-901445D01*
X397772Y-901957D01*
X397873Y-901951D01*
X397971Y-901974D01*
X399933Y-902038D01*
X399967Y-902032D01*
X400000Y-902039D01*
X481769D01*
X485239Y-902729D01*
X488508Y-904083D01*
X491449Y-906049D01*
X493951Y-908551D01*
X495917Y-911492D01*
X497271Y-914761D01*
X497961Y-918231D01*
Y-920000D01*
Y-1076000D01*
Y-1078163D01*
X497117Y-1082406D01*
X495462Y-1086402D01*
X493058Y-1089999D01*
X489999Y-1093058D01*
X486402Y-1095462D01*
X482406Y-1097117D01*
X478163Y-1097961D01*
X-262099D01*
X-262411Y-1097468D01*
X-262582Y-1096691D01*
X-241157Y-1075266D01*
X-239181Y-1075795D01*
X-236773D01*
X-234798Y-1075266D01*
X-220575Y-1089488D01*
X-220575Y-1089488D01*
X-219328Y-1090321D01*
X-217857Y-1090614D01*
X166130D01*
X166130Y-1090614D01*
X167601Y-1090321D01*
X168848Y-1089488D01*
X183070Y-1075266D01*
X185046Y-1075795D01*
X187454D01*
X189780Y-1075172D01*
X191865Y-1073968D01*
X193568Y-1072265D01*
X194772Y-1070180D01*
X195395Y-1067854D01*
Y-1065446D01*
X194772Y-1063120D01*
X193568Y-1061035D01*
X191865Y-1059332D01*
X189780Y-1058128D01*
X187454Y-1057505D01*
X185046D01*
X182720Y-1058128D01*
X180635Y-1059332D01*
X178932Y-1061035D01*
X177728Y-1063120D01*
X177105Y-1065446D01*
Y-1067854D01*
X177634Y-1069830D01*
X164538Y-1082926D01*
X119892D01*
Y-1077635D01*
X112622D01*
Y-1077000D01*
X111987D01*
Y-1069730D01*
X105352D01*
Y-1074686D01*
X83439D01*
Y-1069730D01*
X76804D01*
Y-1077000D01*
X75534D01*
Y-1069730D01*
X68899D01*
Y-1074686D01*
X46986D01*
Y-1069730D01*
X40351D01*
Y-1077000D01*
X39081D01*
Y-1069730D01*
X32446D01*
Y-1074686D01*
X10534D01*
Y-1069730D01*
X3899D01*
Y-1077000D01*
X2629D01*
Y-1069730D01*
X-4006D01*
Y-1074686D01*
X-25919D01*
Y-1069730D01*
X-32554D01*
Y-1077000D01*
X-33824D01*
Y-1069730D01*
X-40459D01*
Y-1074686D01*
X-62372D01*
Y-1069730D01*
X-69007D01*
Y-1077000D01*
X-70277D01*
Y-1069730D01*
X-76912D01*
Y-1074686D01*
X-98824D01*
Y-1069730D01*
X-105459D01*
Y-1077000D01*
X-106094D01*
Y-1077635D01*
X-113364D01*
Y-1082926D01*
X-216265D01*
X-229362Y-1069830D01*
X-228832Y-1067854D01*
Y-1065446D01*
X-229456Y-1063120D01*
X-230659Y-1061035D01*
X-232362Y-1059332D01*
X-234447Y-1058128D01*
X-236773Y-1057505D01*
X-239181D01*
X-241507Y-1058128D01*
X-243592Y-1059332D01*
X-245295Y-1061035D01*
X-246499Y-1063120D01*
X-247122Y-1065446D01*
Y-1067854D01*
X-246593Y-1069830D01*
X-267090Y-1090326D01*
X-310730D01*
Y-1049130D01*
X-318156D01*
Y-1037153D01*
X-247334Y-966331D01*
X-231237D01*
X-228789Y-968779D01*
X-228789Y-968779D01*
X-227542Y-969612D01*
X-226071Y-969904D01*
X-220020D01*
Y-972081D01*
X-200480D01*
Y-960041D01*
X-220020D01*
Y-962217D01*
X-224479D01*
X-225230Y-961466D01*
Y-956727D01*
X-220337Y-951834D01*
X-202532D01*
X-201836Y-953104D01*
X-202270Y-954151D01*
Y-955849D01*
X-201620Y-957419D01*
X-200419Y-958620D01*
X-198849Y-959270D01*
X-198227D01*
X-195770Y-961727D01*
Y-972081D01*
X-182236D01*
X-182052Y-973010D01*
X-181218Y-974257D01*
X-173029Y-982446D01*
X-171782Y-983279D01*
X-170311Y-983572D01*
X-170310Y-983572D01*
X-168581D01*
Y-985787D01*
X-153419D01*
Y-983572D01*
X-101728D01*
X-101728Y-983572D01*
X-100257Y-983279D01*
X-99010Y-982446D01*
X-64282Y-947718D01*
X-63449Y-946471D01*
X-63156Y-945000D01*
X-63156Y-945000D01*
Y-916000D01*
X-63156Y-916000D01*
X-63449Y-914529D01*
X-64282Y-913282D01*
X-73564Y-904000D01*
X-64282Y-894718D01*
X-64282Y-894718D01*
X-63449Y-893471D01*
X-63156Y-892000D01*
X-63156Y-892000D01*
Y-813878D01*
X-62730Y-812849D01*
Y-811151D01*
X-63380Y-809581D01*
X-64581Y-808380D01*
X-66151Y-807730D01*
X-67849D01*
X-68685Y-808076D01*
X-69956Y-807258D01*
Y-740229D01*
X-63041Y-733315D01*
X-54774D01*
X-54248Y-734585D01*
X-55618Y-735955D01*
X-56871Y-738125D01*
X-57520Y-740547D01*
Y-743053D01*
X-56871Y-745474D01*
X-55618Y-747645D01*
X-53845Y-749418D01*
X-51674Y-750671D01*
X-49253Y-751320D01*
X-46747D01*
X-44325Y-750671D01*
X-42155Y-749418D01*
X-40382Y-747645D01*
X-39129Y-745474D01*
X-38480Y-743053D01*
Y-740547D01*
X-39129Y-738125D01*
X-39833Y-736906D01*
X-31158Y-728231D01*
X-29985Y-728717D01*
Y-915989D01*
X-102453Y-988457D01*
X-113220D01*
Y-1002497D01*
X-99180D01*
Y-991730D01*
X-27888Y-920438D01*
X-26714Y-920924D01*
Y-949118D01*
X-66053Y-988457D01*
X-76820D01*
Y-1002497D01*
X-62780D01*
Y-991730D01*
X-24618Y-953568D01*
X-23444Y-954054D01*
Y-982249D01*
X-29653Y-988457D01*
X-40420D01*
Y-1002497D01*
X-26380D01*
Y-991730D01*
X-19493Y-984844D01*
X-18992Y-984093D01*
X-18815Y-983207D01*
Y-978595D01*
X-17642Y-978109D01*
X-4020Y-991730D01*
Y-1002497D01*
X10020D01*
Y-988457D01*
X-747D01*
X-15186Y-974019D01*
Y-922383D01*
X-13916Y-921740D01*
X-13314Y-922181D01*
Y-945077D01*
X-13138Y-945963D01*
X-12637Y-946714D01*
X32380Y-991730D01*
Y-1002497D01*
X46420D01*
Y-988457D01*
X35653D01*
X-8686Y-944119D01*
Y-921663D01*
X-8581Y-921620D01*
X-7380Y-920419D01*
X-6730Y-918849D01*
Y-918017D01*
X-5460Y-917491D01*
X68780Y-991730D01*
Y-1002497D01*
X82820D01*
Y-988457D01*
X72053D01*
X-3415Y-912989D01*
Y-513817D01*
X-3592Y-512931D01*
X-4093Y-512180D01*
X-5186Y-511088D01*
Y-502770D01*
X435D01*
Y-510526D01*
X-620Y-511581D01*
X-1270Y-513151D01*
Y-514849D01*
X-620Y-516419D01*
X581Y-517620D01*
X2151Y-518270D01*
X3849D01*
X4900Y-517835D01*
X5872Y-518807D01*
X5730Y-519151D01*
Y-520849D01*
X6380Y-522419D01*
X7581Y-523620D01*
X9151Y-524270D01*
X10849D01*
X11901Y-523835D01*
X12873Y-524807D01*
X12730Y-525151D01*
Y-526849D01*
X13380Y-528419D01*
X14581Y-529620D01*
X16151Y-530270D01*
X17849D01*
X18901Y-529835D01*
X19872Y-530807D01*
X19730Y-531151D01*
Y-532849D01*
X20380Y-534419D01*
X21581Y-535620D01*
X23151Y-536270D01*
X24849D01*
X26419Y-535620D01*
X27620Y-534419D01*
X28270Y-532849D01*
Y-531151D01*
X27620Y-529581D01*
X26419Y-528380D01*
X26314Y-528337D01*
Y-524314D01*
X26381Y-524270D01*
X28080D01*
X28916Y-523924D01*
X30186Y-524743D01*
Y-534776D01*
X29380Y-535581D01*
X28730Y-537151D01*
Y-538849D01*
X29380Y-540419D01*
X30581Y-541620D01*
X32151Y-542270D01*
X33849D01*
X35419Y-541620D01*
X36620Y-540419D01*
X37270Y-538849D01*
Y-537151D01*
X36620Y-535581D01*
X35419Y-534380D01*
X34815Y-534130D01*
Y-502770D01*
X35270D01*
Y-488230D01*
X35065D01*
Y-470997D01*
X36238Y-470511D01*
X42364Y-476637D01*
X43115Y-477138D01*
X44000Y-477315D01*
X45230D01*
Y-478270D01*
X59770D01*
Y-478270D01*
X61028Y-478301D01*
X64773Y-482046D01*
X64730Y-482151D01*
Y-483849D01*
X65380Y-485419D01*
X66581Y-486620D01*
X68151Y-487270D01*
X69849D01*
X70686Y-486924D01*
X71955Y-487743D01*
Y-531771D01*
X67954Y-535773D01*
X67849Y-535730D01*
X66151D01*
X64581Y-536380D01*
X63380Y-537581D01*
X62730Y-539151D01*
Y-540849D01*
X63263Y-542135D01*
X62835Y-543066D01*
X62559Y-543394D01*
X62400Y-543403D01*
X61315Y-542369D01*
Y-516663D01*
X61419Y-516620D01*
X62620Y-515419D01*
X63270Y-513849D01*
Y-512151D01*
X62620Y-510581D01*
X61419Y-509380D01*
X59849Y-508730D01*
X58151D01*
X56581Y-509380D01*
X55380Y-510581D01*
X54730Y-512151D01*
Y-513849D01*
X55380Y-515419D01*
X56581Y-516620D01*
X56686Y-516663D01*
Y-543918D01*
X56862Y-544803D01*
X57363Y-545554D01*
X58090Y-546281D01*
X57730Y-547151D01*
Y-548849D01*
X58380Y-550419D01*
X59581Y-551620D01*
X61151Y-552270D01*
X62849D01*
X64419Y-551620D01*
X65620Y-550419D01*
X66270Y-548849D01*
Y-547151D01*
X65620Y-545581D01*
X65353Y-545314D01*
X66072Y-544238D01*
X66151Y-544270D01*
X67849D01*
X69419Y-543620D01*
X70620Y-542419D01*
X71270Y-540849D01*
Y-539151D01*
X71227Y-539046D01*
X75907Y-534367D01*
X76408Y-533616D01*
X76585Y-532730D01*
Y-480817D01*
X76408Y-479931D01*
X75907Y-479180D01*
X66089Y-469363D01*
X65339Y-468862D01*
X64453Y-468685D01*
X59770D01*
Y-457815D01*
X77542D01*
X111959Y-492233D01*
X111433Y-493503D01*
X101730D01*
Y-516043D01*
X128270D01*
Y-507087D01*
X142564D01*
X144252Y-508776D01*
Y-521543D01*
X156292D01*
Y-505503D01*
X147526D01*
X145159Y-503136D01*
X144408Y-502634D01*
X143523Y-502458D01*
X128270D01*
Y-493503D01*
X117314D01*
Y-492000D01*
X117138Y-491114D01*
X116636Y-490363D01*
X103489Y-477216D01*
X103975Y-476042D01*
X128270D01*
Y-467087D01*
X143523D01*
X144408Y-466911D01*
X145159Y-466409D01*
X147526Y-464043D01*
X156292D01*
Y-449975D01*
X157466Y-449489D01*
X159253Y-451276D01*
Y-455387D01*
X164638D01*
Y-448003D01*
X162526D01*
X157304Y-442781D01*
X156553Y-442279D01*
X155667Y-442103D01*
X141970D01*
X137426Y-437559D01*
Y-434306D01*
X130010D01*
Y-440832D01*
X134153D01*
X139375Y-446054D01*
X140125Y-446555D01*
X141011Y-446732D01*
X153472D01*
X153472Y-446732D01*
X152794Y-448003D01*
X144252D01*
Y-460769D01*
X142564Y-462458D01*
X128270D01*
Y-453502D01*
X105003D01*
X100364Y-448863D01*
X99613Y-448362D01*
X98728Y-448186D01*
X83122D01*
X82692Y-446916D01*
X83590Y-446018D01*
X84240Y-444449D01*
Y-442750D01*
X83590Y-441181D01*
X82389Y-439980D01*
X80819Y-439329D01*
X79121D01*
X78070Y-439765D01*
X77351Y-438688D01*
X77620Y-438419D01*
X78270Y-436849D01*
Y-435151D01*
X77620Y-433581D01*
X76419Y-432380D01*
X74849Y-431730D01*
X73151D01*
X72557Y-431976D01*
X71585Y-431004D01*
X71890Y-430268D01*
Y-428569D01*
X71240Y-427000D01*
X70039Y-425799D01*
X68469Y-425149D01*
X66771D01*
X65201Y-425799D01*
X64000Y-427000D01*
X63716Y-427686D01*
X59770D01*
Y-422814D01*
X69542D01*
X79614Y-432887D01*
X80365Y-433388D01*
X81250Y-433564D01*
X91980D01*
Y-434365D01*
X99365D01*
Y-428980D01*
X96474D01*
X96250Y-428935D01*
X82209D01*
X76514Y-423240D01*
X76574Y-423100D01*
X77262Y-422193D01*
X77875Y-422315D01*
X91980D01*
Y-426020D01*
X108020D01*
Y-422315D01*
X121324D01*
Y-432685D01*
X108020D01*
Y-428980D01*
X100635D01*
Y-435000D01*
Y-441020D01*
X108020D01*
Y-437314D01*
X121324D01*
Y-440832D01*
X128740D01*
Y-433671D01*
X129375D01*
Y-433036D01*
X137426D01*
Y-429661D01*
X138599Y-429175D01*
X148892Y-439468D01*
X149643Y-439970D01*
X150529Y-440146D01*
X183792D01*
X184678Y-439970D01*
X185429Y-439468D01*
X222583Y-402314D01*
X276041D01*
X278437Y-404710D01*
D02*
G37*
G36*
X-45314Y-448959D02*
Y-465249D01*
X-45272Y-465460D01*
X-45786Y-466590D01*
X-46177Y-466866D01*
X-47419Y-467380D01*
X-48620Y-468581D01*
X-49270Y-470151D01*
Y-471849D01*
X-49227Y-471954D01*
X-50459Y-473186D01*
X-55230D01*
Y-463270D01*
Y-453270D01*
Y-443315D01*
X-50959D01*
X-45314Y-448959D01*
D02*
G37*
G36*
X101730Y-456775D02*
Y-473797D01*
X100557Y-474283D01*
X80358Y-454085D01*
X80569Y-453225D01*
X80847Y-452814D01*
X97769D01*
X101730Y-456775D01*
D02*
G37*
G36*
X-21865Y-387770D02*
X-19815D01*
Y-389826D01*
X-19639Y-390712D01*
X-19315Y-391197D01*
Y-393337D01*
X-19419Y-393380D01*
X-20620Y-394581D01*
X-21270Y-396151D01*
Y-397849D01*
X-20620Y-399419D01*
X-19419Y-400620D01*
X-17849Y-401270D01*
X-16151D01*
X-14581Y-400620D01*
X-13380Y-399419D01*
X-12833Y-398099D01*
X-11933Y-397623D01*
X-11460Y-397489D01*
X-11315Y-397586D01*
Y-399337D01*
X-11419Y-399380D01*
X-12620Y-400581D01*
X-13270Y-402151D01*
Y-403849D01*
X-12620Y-405419D01*
X-11419Y-406620D01*
X-9849Y-407270D01*
X-8151D01*
X-6581Y-406620D01*
X-5380Y-405419D01*
X-4730Y-403849D01*
Y-402151D01*
X-5380Y-400581D01*
X-6581Y-399380D01*
X-6686Y-399337D01*
Y-395459D01*
X-6862Y-394573D01*
X-7363Y-393822D01*
X-10186Y-391000D01*
Y-387770D01*
X-4814D01*
Y-391953D01*
X-4638Y-392839D01*
X-4137Y-393590D01*
X11180Y-408907D01*
X11931Y-409408D01*
X12817Y-409585D01*
X35020D01*
X35906Y-409408D01*
X36657Y-408907D01*
X44057Y-401506D01*
X45230Y-401992D01*
Y-403978D01*
X44654Y-404363D01*
X19363Y-429653D01*
X18862Y-430404D01*
X18685Y-431290D01*
Y-444310D01*
X17855Y-444654D01*
X16654Y-445855D01*
X16004Y-447424D01*
Y-449123D01*
X16654Y-450692D01*
X17855Y-451894D01*
X18691Y-452240D01*
X19010Y-453717D01*
X17954Y-454773D01*
X17849Y-454730D01*
X16151D01*
X14581Y-455380D01*
X13380Y-456581D01*
X12730Y-458151D01*
Y-459849D01*
X13380Y-461419D01*
X14581Y-462620D01*
X16151Y-463270D01*
X17849D01*
X19419Y-462620D01*
X20620Y-461419D01*
X21270Y-459849D01*
Y-458151D01*
X21227Y-458046D01*
X26052Y-453221D01*
X27225Y-453707D01*
Y-458579D01*
X25863Y-459941D01*
X25362Y-460692D01*
X25185Y-461577D01*
Y-488230D01*
X14314D01*
Y-486000D01*
X14138Y-485114D01*
X13636Y-484363D01*
X12137Y-482863D01*
X11386Y-482362D01*
X10500Y-482186D01*
X-2041D01*
X-13898Y-470329D01*
Y-456788D01*
X-14074Y-455902D01*
X-14576Y-455151D01*
X-23773Y-445954D01*
X-23730Y-445849D01*
Y-444151D01*
X-24380Y-442581D01*
X-25581Y-441380D01*
X-27151Y-440730D01*
X-28849D01*
X-30419Y-441380D01*
X-31620Y-442581D01*
X-32270Y-444151D01*
Y-445849D01*
X-31620Y-447419D01*
X-30419Y-448620D01*
X-28849Y-449270D01*
X-27151D01*
X-27046Y-449227D01*
X-18527Y-457746D01*
Y-471288D01*
X-18351Y-472173D01*
X-17849Y-472924D01*
X-4814Y-485959D01*
Y-488230D01*
X-41008D01*
X-41494Y-487057D01*
X-34824Y-480387D01*
X-34322Y-479636D01*
X-34146Y-478750D01*
Y-470224D01*
X-33348Y-469784D01*
X-32917Y-469688D01*
X-32270Y-470258D01*
Y-471849D01*
X-31620Y-473419D01*
X-30419Y-474620D01*
X-28849Y-475270D01*
X-27151D01*
X-25581Y-474620D01*
X-24380Y-473419D01*
X-23730Y-471849D01*
Y-470151D01*
X-24380Y-468581D01*
X-25581Y-467380D01*
X-27151Y-466730D01*
X-28849D01*
X-28954Y-466773D01*
X-34146Y-461581D01*
Y-445291D01*
X-34322Y-444405D01*
X-34823Y-443655D01*
X-40185Y-438293D01*
Y-387770D01*
X-23135D01*
Y-380500D01*
X-21865D01*
Y-387770D01*
D02*
G37*
G36*
X-105365Y-499442D02*
X-97949D01*
Y-494596D01*
X-93677D01*
X-75314Y-512959D01*
Y-520080D01*
X-90847D01*
X-110312Y-500615D01*
X-109826Y-499442D01*
X-106635D01*
Y-492281D01*
X-105365D01*
Y-499442D01*
D02*
G37*
G36*
X-39815Y-520513D02*
Y-557209D01*
X-39638Y-558095D01*
X-39137Y-558846D01*
X-38084Y-559898D01*
Y-598004D01*
X-39354Y-598530D01*
X-39543Y-598341D01*
X-41112Y-597691D01*
X-42811D01*
X-42970Y-597757D01*
X-49226Y-591501D01*
Y-532202D01*
X-47955Y-531700D01*
X-46579Y-532270D01*
X-44881D01*
X-43311Y-531620D01*
X-42110Y-530419D01*
X-41460Y-528849D01*
Y-527151D01*
X-42110Y-525581D01*
X-43311Y-524380D01*
X-44181Y-524020D01*
Y-522775D01*
X-44357Y-521889D01*
X-44777Y-521260D01*
X-44732Y-521128D01*
X-43849Y-520270D01*
X-42151D01*
X-41085Y-519828D01*
X-39815Y-520513D01*
D02*
G37*
G36*
X-69770Y-478270D02*
X-64814D01*
Y-565874D01*
X-77053Y-578114D01*
X-77555Y-578864D01*
X-77678Y-579480D01*
X-89187D01*
Y-583186D01*
X-99980D01*
Y-579480D01*
X-111526D01*
X-111750Y-579436D01*
X-130291D01*
X-143605Y-566121D01*
Y-562054D01*
X-142335Y-561528D01*
X-141245Y-562618D01*
X-139074Y-563871D01*
X-136653Y-564520D01*
X-134146D01*
X-131725Y-563871D01*
X-130506Y-563167D01*
X-119037Y-574637D01*
X-118286Y-575138D01*
X-117400Y-575314D01*
X-85663D01*
X-85620Y-575419D01*
X-84419Y-576620D01*
X-82849Y-577270D01*
X-81151D01*
X-79581Y-576620D01*
X-78380Y-575419D01*
X-77730Y-573849D01*
Y-572151D01*
X-78380Y-570581D01*
X-79581Y-569380D01*
X-81151Y-568730D01*
X-82849D01*
X-84419Y-569380D01*
X-85620Y-570581D01*
X-85663Y-570686D01*
X-116441D01*
X-127233Y-559894D01*
X-126529Y-558675D01*
X-125880Y-556254D01*
Y-553747D01*
X-126529Y-551326D01*
X-127782Y-549155D01*
X-129555Y-547382D01*
X-131725Y-546129D01*
X-134146Y-545480D01*
X-136653D01*
X-139074Y-546129D01*
X-141245Y-547382D01*
X-142240Y-548377D01*
X-143510Y-547851D01*
Y-540984D01*
X-140294Y-537767D01*
X-139074Y-538471D01*
X-136653Y-539120D01*
X-134146D01*
X-131725Y-538471D01*
X-129555Y-537218D01*
X-127782Y-535446D01*
X-126529Y-533275D01*
X-125880Y-530854D01*
Y-528347D01*
X-126529Y-525926D01*
X-127782Y-523755D01*
X-129555Y-521982D01*
X-131725Y-520729D01*
X-134146Y-520080D01*
X-135688D01*
X-136214Y-518810D01*
X-128093Y-510689D01*
X-127592Y-509939D01*
X-127416Y-509053D01*
Y-483182D01*
X-118539Y-474306D01*
X-117365Y-474792D01*
Y-499149D01*
X-117189Y-500035D01*
X-116687Y-500786D01*
X-94120Y-523353D01*
Y-539120D01*
X-76157D01*
X-75663Y-540390D01*
X-76959Y-541685D01*
X-94641D01*
X-101833Y-534494D01*
X-101129Y-533275D01*
X-100480Y-530854D01*
Y-530235D01*
X-110000D01*
X-119520D01*
Y-530854D01*
X-118871Y-533275D01*
X-117618Y-535446D01*
X-115845Y-537218D01*
X-113674Y-538471D01*
X-112314Y-538836D01*
Y-545765D01*
X-113674Y-546129D01*
X-115845Y-547382D01*
X-117618Y-549155D01*
X-118871Y-551326D01*
X-119520Y-553747D01*
Y-554365D01*
X-110000D01*
X-100480D01*
Y-553747D01*
X-101129Y-551326D01*
X-102382Y-549155D01*
X-104155Y-547382D01*
X-106325Y-546129D01*
X-107685Y-545765D01*
Y-538836D01*
X-106325Y-538471D01*
X-105106Y-537767D01*
X-97237Y-545637D01*
X-96486Y-546138D01*
X-95600Y-546315D01*
X-90933D01*
X-90647Y-547584D01*
X-92218Y-549155D01*
X-93471Y-551326D01*
X-94120Y-553747D01*
Y-556254D01*
X-93471Y-558675D01*
X-92218Y-560846D01*
X-90445Y-562618D01*
X-88274Y-563871D01*
X-85853Y-564520D01*
X-83347D01*
X-80925Y-563871D01*
X-78755Y-562618D01*
X-76982Y-560846D01*
X-75729Y-558675D01*
X-75080Y-556254D01*
Y-553747D01*
X-75729Y-551326D01*
X-76982Y-549155D01*
X-78552Y-547584D01*
X-78266Y-546315D01*
X-76000D01*
X-75114Y-546138D01*
X-74363Y-545637D01*
X-71363Y-542637D01*
X-70862Y-541886D01*
X-70686Y-541000D01*
Y-512000D01*
X-70862Y-511114D01*
X-71363Y-510363D01*
X-91082Y-490645D01*
X-91833Y-490143D01*
X-92718Y-489967D01*
X-97949D01*
Y-486160D01*
Y-475113D01*
X-95651Y-472814D01*
X-69770D01*
Y-478270D01*
D02*
G37*
G36*
X-132044Y-497977D02*
Y-508094D01*
X-150826Y-526876D01*
X-151328Y-527627D01*
X-151504Y-528513D01*
Y-604705D01*
X-151471Y-604871D01*
X-152642Y-605496D01*
X-188949Y-569189D01*
X-188230Y-568112D01*
X-187849Y-568270D01*
X-186151D01*
X-184581Y-567620D01*
X-183380Y-566419D01*
X-182730Y-564849D01*
Y-563151D01*
X-183380Y-561581D01*
X-184581Y-560380D01*
X-186151Y-559730D01*
X-187849D01*
X-188706Y-558866D01*
Y-549433D01*
X-187436Y-548907D01*
X-186925Y-549418D01*
X-185096Y-550474D01*
X-183056Y-551020D01*
X-180944D01*
X-178905Y-550474D01*
X-177076Y-549418D01*
X-175583Y-547925D01*
X-174527Y-546096D01*
X-173980Y-544056D01*
Y-541944D01*
X-174527Y-539905D01*
X-174931Y-539204D01*
X-133218Y-497491D01*
X-132044Y-497977D01*
D02*
G37*
G36*
X-13419Y-519620D02*
X-11849Y-520270D01*
X-10151D01*
X-9315Y-519924D01*
X-8044Y-520742D01*
Y-568121D01*
X-9315Y-568647D01*
X-9581Y-568380D01*
X-11151Y-567730D01*
X-12849D01*
X-13916Y-568172D01*
X-15186Y-567488D01*
Y-519649D01*
X-13916Y-519123D01*
X-13419Y-519620D01*
D02*
G37*
G36*
X-59314Y-568438D02*
Y-591753D01*
X-60488Y-592239D01*
X-66363Y-586363D01*
X-67114Y-585862D01*
X-68000Y-585686D01*
X-73147D01*
Y-581974D01*
X-73102Y-581750D01*
Y-580709D01*
X-60863Y-568470D01*
X-60585Y-568052D01*
X-59314Y-568438D01*
D02*
G37*
G36*
X-8044Y-596879D02*
Y-913258D01*
X-9232Y-914090D01*
X-9270Y-914095D01*
X-10151Y-913730D01*
X-11849D01*
X-13419Y-914380D01*
X-13916Y-914877D01*
X-15186Y-914351D01*
Y-597512D01*
X-13916Y-596828D01*
X-12849Y-597270D01*
X-11151D01*
X-9581Y-596620D01*
X-9315Y-596353D01*
X-8044Y-596879D01*
D02*
G37*
G36*
X-132886Y-583387D02*
X-132136Y-583888D01*
X-131250Y-584064D01*
X-116020D01*
Y-591520D01*
X-99980D01*
Y-587814D01*
X-89187D01*
Y-591520D01*
X-73147D01*
Y-590314D01*
X-68959D01*
X-46813Y-612460D01*
X-47339Y-613730D01*
X-47849D01*
X-48878Y-614156D01*
X-124381D01*
X-125410Y-613730D01*
X-127109D01*
X-128137Y-614156D01*
X-142971D01*
X-143224Y-612886D01*
X-142581Y-612620D01*
X-141380Y-611419D01*
X-140730Y-609849D01*
Y-608151D01*
X-141380Y-606581D01*
X-142581Y-605380D01*
X-144151Y-604730D01*
X-145849D01*
X-145879Y-604742D01*
X-146875Y-603746D01*
Y-571057D01*
X-145702Y-570571D01*
X-132886Y-583387D01*
D02*
G37*
G36*
X-57520Y-636116D02*
Y-648848D01*
X-58790Y-649374D01*
X-75147Y-633017D01*
X-74661Y-631844D01*
X-61792D01*
X-57520Y-636116D01*
D02*
G37*
G36*
X-70844Y-855026D02*
Y-890408D01*
X-80390Y-899954D01*
X-80878Y-900156D01*
X-101270D01*
Y-896502D01*
X-111048D01*
X-111534Y-895329D01*
X-100520Y-884314D01*
X-100250D01*
X-100026Y-884270D01*
X-88480D01*
Y-871003D01*
X-72017Y-854540D01*
X-70844Y-855026D01*
D02*
G37*
G36*
X-80800Y-907876D02*
X-80798Y-907878D01*
X-80794Y-907878D01*
X-80390Y-908046D01*
X-70844Y-917592D01*
Y-943408D01*
X-103321Y-975884D01*
X-153419D01*
Y-973670D01*
X-168581D01*
Y-974226D01*
X-169851Y-974752D01*
X-174656Y-969947D01*
Y-969811D01*
X-174656Y-969811D01*
X-174949Y-968340D01*
X-175782Y-967093D01*
X-175782Y-967093D01*
X-176230Y-966645D01*
Y-960041D01*
X-186584D01*
X-194343Y-952282D01*
X-195357Y-951604D01*
X-195581Y-951380D01*
X-196094Y-951168D01*
X-196392Y-949670D01*
X-179606Y-932884D01*
X-179606Y-932884D01*
X-178773Y-931637D01*
X-178704Y-931290D01*
X-162908Y-915494D01*
X-157304D01*
X-157194Y-915568D01*
X-156505Y-915705D01*
X-148632D01*
X-145311Y-919026D01*
X-145837Y-920296D01*
X-150115D01*
Y-924350D01*
X-150750D01*
Y-924985D01*
X-158305D01*
Y-926605D01*
X-158168Y-927294D01*
X-157778Y-927878D01*
X-157194Y-928268D01*
X-156505Y-928405D01*
X-153065D01*
Y-932996D01*
X-155031D01*
X-161920Y-926107D01*
Y-924765D01*
X-162096Y-923880D01*
X-162598Y-923129D01*
X-163363Y-922363D01*
X-164114Y-921862D01*
X-165000Y-921685D01*
X-165886Y-921862D01*
X-166637Y-922363D01*
X-167138Y-923114D01*
X-167314Y-924000D01*
X-167138Y-924886D01*
X-166637Y-925637D01*
X-166549Y-925724D01*
Y-927066D01*
X-166373Y-927951D01*
X-165871Y-928702D01*
X-158305Y-936269D01*
Y-936415D01*
X-150750D01*
Y-937050D01*
X-150115D01*
Y-941105D01*
X-144995D01*
X-143773Y-942022D01*
Y-944494D01*
X-143773Y-944494D01*
X-143480Y-945965D01*
X-142647Y-947212D01*
X-137340Y-952519D01*
X-137340Y-952519D01*
X-136093Y-953352D01*
X-134622Y-953645D01*
X-118722D01*
X-118722Y-953645D01*
X-117251Y-953352D01*
X-116004Y-952519D01*
X-100329Y-936844D01*
X-89791D01*
Y-947301D01*
X-77670D01*
Y-918699D01*
X-79726D01*
Y-916067D01*
X-79140Y-914651D01*
Y-912953D01*
X-79790Y-911383D01*
X-80991Y-910182D01*
X-82561Y-909532D01*
X-84260D01*
X-85829Y-910182D01*
X-87030Y-911383D01*
X-87680Y-912953D01*
Y-914651D01*
X-87414Y-915294D01*
Y-918699D01*
X-89791D01*
Y-929156D01*
X-101921D01*
X-103392Y-929449D01*
X-104639Y-930282D01*
X-104639Y-930282D01*
X-120314Y-945957D01*
X-122209D01*
Y-921972D01*
X-114674Y-914437D01*
X-114172Y-913686D01*
X-114144Y-913542D01*
X-101270D01*
Y-907844D01*
X-80878D01*
X-80800Y-907876D01*
D02*
G37*
G36*
X-409086Y-1001483D02*
X-409572Y-1002656D01*
X-451092D01*
X-451982Y-1001115D01*
X-453615Y-999482D01*
X-455615Y-998328D01*
X-457845Y-997730D01*
X-460154D01*
X-462385Y-998328D01*
X-464385Y-999482D01*
X-465156Y-1000253D01*
X-466426Y-999727D01*
Y-988273D01*
X-465156Y-987747D01*
X-464385Y-988518D01*
X-462385Y-989672D01*
X-460154Y-990270D01*
X-457845D01*
X-455615Y-989672D01*
X-453615Y-988518D01*
X-451982Y-986885D01*
X-451092Y-985344D01*
X-425225D01*
X-409086Y-1001483D01*
D02*
G37*
G36*
X-333270Y-1087366D02*
X-334443Y-1087852D01*
X-350446Y-1071850D01*
Y-1059711D01*
X-350446Y-1059710D01*
X-350738Y-1058240D01*
X-350889Y-1058014D01*
X-350210Y-1056744D01*
X-333270D01*
Y-1087366D01*
D02*
G37*
%LPC*%
G36*
X16248Y-144208D02*
X9863D01*
Y-152093D01*
X16248D01*
Y-144208D01*
D02*
G37*
G36*
X8593D02*
X2208D01*
Y-152093D01*
X8593D01*
Y-144208D01*
D02*
G37*
G36*
X19020Y-186635D02*
X10980D01*
Y-188770D01*
Y-190365D01*
X19020D01*
Y-188770D01*
Y-186635D01*
D02*
G37*
G36*
Y-191635D02*
X10980D01*
Y-195365D01*
X19020D01*
Y-191635D01*
D02*
G37*
G36*
Y-201635D02*
X15635D01*
Y-203770D01*
X19020D01*
Y-201635D01*
D02*
G37*
G36*
X49520Y-224753D02*
X41635D01*
Y-231138D01*
X49520D01*
Y-224753D01*
D02*
G37*
G36*
Y-232407D02*
X41635D01*
Y-238792D01*
X49520D01*
Y-232407D01*
D02*
G37*
G36*
X38020Y-325980D02*
X32635D01*
Y-333365D01*
X38020D01*
Y-325980D01*
D02*
G37*
G36*
X334182Y-347190D02*
X333657D01*
Y-355365D01*
X341832D01*
Y-354840D01*
X341232Y-352599D01*
X340072Y-350590D01*
X338432Y-348950D01*
X336423Y-347790D01*
X334182Y-347190D01*
D02*
G37*
G36*
X-173818D02*
X-174343D01*
Y-355365D01*
X-166168D01*
Y-354840D01*
X-166768Y-352599D01*
X-167928Y-350590D01*
X-169568Y-348950D01*
X-171577Y-347790D01*
X-173818Y-347190D01*
D02*
G37*
G36*
X-286840D02*
X-287365D01*
Y-355365D01*
X-279190D01*
Y-354840D01*
X-279790Y-352599D01*
X-280950Y-350590D01*
X-282591Y-348950D01*
X-284599Y-347790D01*
X-286840Y-347190D01*
D02*
G37*
G36*
X332387D02*
X331862D01*
X329622Y-347790D01*
X327613Y-348950D01*
X325973Y-350590D01*
X324813Y-352599D01*
X324212Y-354840D01*
Y-355365D01*
X332387D01*
Y-347190D01*
D02*
G37*
G36*
X-175613D02*
X-176138D01*
X-178378Y-347790D01*
X-180387Y-348950D01*
X-182027Y-350590D01*
X-183187Y-352599D01*
X-183788Y-354840D01*
Y-355365D01*
X-175613D01*
Y-347190D01*
D02*
G37*
G36*
X-288635D02*
X-289160D01*
X-291401Y-347790D01*
X-293410Y-348950D01*
X-295050Y-350590D01*
X-296210Y-352599D01*
X-296810Y-354840D01*
Y-355365D01*
X-288635D01*
Y-347190D01*
D02*
G37*
G36*
X341832Y-356635D02*
X333657D01*
Y-364810D01*
X334182D01*
X336423Y-364209D01*
X338432Y-363050D01*
X340072Y-361409D01*
X341232Y-359400D01*
X341832Y-357160D01*
Y-356635D01*
D02*
G37*
G36*
X332387D02*
X324212D01*
Y-357160D01*
X324813Y-359400D01*
X325973Y-361409D01*
X327613Y-363050D01*
X329622Y-364209D01*
X331862Y-364810D01*
X332387D01*
Y-356635D01*
D02*
G37*
G36*
X228810D02*
X220635D01*
Y-364810D01*
X221160D01*
X223400Y-364209D01*
X225410Y-363050D01*
X227050Y-361409D01*
X228210Y-359400D01*
X228810Y-357160D01*
Y-356635D01*
D02*
G37*
G36*
X219365D02*
X211190D01*
Y-357160D01*
X211790Y-359400D01*
X212950Y-361409D01*
X214590Y-363050D01*
X216600Y-364209D01*
X218840Y-364810D01*
X219365D01*
Y-356635D01*
D02*
G37*
G36*
X-216168Y-347190D02*
X-233787D01*
Y-364810D01*
X-216168D01*
Y-347190D01*
D02*
G37*
G36*
X-279190Y-356635D02*
X-287365D01*
Y-364810D01*
X-286840D01*
X-284599Y-364209D01*
X-282591Y-363050D01*
X-280950Y-361409D01*
X-279790Y-359400D01*
X-279190Y-357160D01*
Y-356635D01*
D02*
G37*
G36*
X-288635D02*
X-296810D01*
Y-357160D01*
X-296210Y-359400D01*
X-295050Y-361409D01*
X-293410Y-363050D01*
X-291401Y-364209D01*
X-289160Y-364810D01*
X-288635D01*
Y-356635D01*
D02*
G37*
G36*
X-329190Y-347190D02*
X-346810D01*
Y-364810D01*
X-329190D01*
Y-347190D01*
D02*
G37*
G36*
X-107768Y-364805D02*
X-108365D01*
Y-370365D01*
X-102805D01*
Y-369768D01*
X-103748Y-367491D01*
X-105491Y-365748D01*
X-107768Y-364805D01*
D02*
G37*
G36*
X-109635D02*
X-110232D01*
X-112509Y-365748D01*
X-114252Y-367491D01*
X-115195Y-369768D01*
Y-370365D01*
X-109635D01*
Y-364805D01*
D02*
G37*
G36*
X-102805Y-371635D02*
X-108365D01*
Y-377195D01*
X-107768D01*
X-105491Y-376252D01*
X-103748Y-374509D01*
X-102805Y-372232D01*
Y-371635D01*
D02*
G37*
G36*
X-109635D02*
X-115195D01*
Y-372232D01*
X-114700Y-373427D01*
X-123959Y-382686D01*
X-183000D01*
X-183886Y-382862D01*
X-184637Y-383363D01*
X-185138Y-384114D01*
X-185315Y-385000D01*
X-185138Y-385886D01*
X-184637Y-386637D01*
X-183886Y-387138D01*
X-183000Y-387314D01*
X-123000D01*
X-122114Y-387138D01*
X-121363Y-386637D01*
X-111427Y-376700D01*
X-110232Y-377195D01*
X-109635D01*
Y-371635D01*
D02*
G37*
G36*
X457270Y-382730D02*
X442730D01*
Y-387685D01*
X418998D01*
Y-383230D01*
X404958D01*
Y-397270D01*
X418998D01*
Y-392314D01*
X442730D01*
Y-397270D01*
X457270D01*
Y-382730D01*
D02*
G37*
G36*
X-468730D02*
X-475365D01*
Y-389365D01*
X-468730D01*
Y-382730D01*
D02*
G37*
G36*
X469365D02*
X462730D01*
Y-389365D01*
X469365D01*
Y-382730D01*
D02*
G37*
G36*
X-476635D02*
X-483270D01*
Y-389365D01*
X-476635D01*
Y-382730D01*
D02*
G37*
G36*
X-468730Y-390635D02*
X-475365D01*
Y-397270D01*
X-468730D01*
Y-390635D01*
D02*
G37*
G36*
X-476635D02*
X-483270D01*
Y-397270D01*
X-476635D01*
Y-390635D01*
D02*
G37*
G36*
X366849Y-371730D02*
X365151D01*
X363581Y-372380D01*
X362380Y-373581D01*
X361730Y-375151D01*
Y-376849D01*
X362380Y-378419D01*
X363581Y-379620D01*
X365151Y-380270D01*
X366849D01*
X366954Y-380227D01*
X373864Y-387137D01*
X374614Y-387639D01*
X375500Y-387815D01*
X381458D01*
Y-397270D01*
X395498D01*
Y-383230D01*
X383951D01*
X383728Y-383186D01*
X376459D01*
X370227Y-376954D01*
X370270Y-376849D01*
Y-375151D01*
X369620Y-373581D01*
X368419Y-372380D01*
X366849Y-371730D01*
D02*
G37*
G36*
X-448730Y-382730D02*
X-463270D01*
Y-397270D01*
X-448730D01*
Y-392314D01*
X-424997D01*
Y-397270D01*
X-410957D01*
Y-383230D01*
X-424997D01*
Y-387685D01*
X-448730D01*
Y-382730D01*
D02*
G37*
G36*
X-301885Y-406230D02*
X-307520D01*
Y-412365D01*
X-301885D01*
Y-406230D01*
D02*
G37*
G36*
X-274480Y-405980D02*
X-279865D01*
Y-413365D01*
X-274480D01*
Y-405980D01*
D02*
G37*
G36*
X-281135D02*
X-286520D01*
Y-413365D01*
X-281135D01*
Y-405980D01*
D02*
G37*
G36*
X-173980Y-414980D02*
X-181365D01*
Y-422365D01*
X-173980D01*
Y-414980D01*
D02*
G37*
G36*
X-182635D02*
X-190020D01*
Y-422365D01*
X-182635D01*
Y-414980D01*
D02*
G37*
G36*
Y-423635D02*
X-190020D01*
Y-431020D01*
X-182635D01*
Y-423635D01*
D02*
G37*
G36*
X-429199Y-423730D02*
X-441739D01*
Y-431270D01*
X-429199D01*
Y-423730D01*
D02*
G37*
G36*
X-407151Y-420730D02*
X-408849D01*
X-410419Y-421380D01*
X-411620Y-422581D01*
X-412270Y-424151D01*
Y-425849D01*
X-411925Y-426683D01*
X-414972Y-429730D01*
X-426739D01*
Y-438270D01*
X-411699D01*
Y-433003D01*
X-407966Y-429270D01*
X-407151D01*
X-405581Y-428620D01*
X-404380Y-427419D01*
X-403730Y-425849D01*
Y-424151D01*
X-404380Y-422581D01*
X-405581Y-421380D01*
X-407151Y-420730D01*
D02*
G37*
G36*
X-444199Y-429730D02*
X-459239D01*
Y-438270D01*
X-444199D01*
Y-429730D01*
D02*
G37*
G36*
X-307830Y-446515D02*
X-311715D01*
Y-454775D01*
X-307830D01*
Y-446515D01*
D02*
G37*
G36*
X-312985D02*
X-316870D01*
Y-454775D01*
X-312985D01*
Y-446515D01*
D02*
G37*
G36*
X-444199Y-449730D02*
X-459239D01*
Y-458270D01*
X-444199D01*
Y-449730D01*
D02*
G37*
G36*
X-429199Y-456730D02*
X-441739D01*
Y-464270D01*
X-429199D01*
Y-456730D01*
D02*
G37*
G36*
X-221480Y-462635D02*
X-229365D01*
Y-469770D01*
X-221480D01*
Y-462635D01*
D02*
G37*
G36*
X-230635D02*
X-238520D01*
Y-469770D01*
X-230635D01*
Y-462635D01*
D02*
G37*
G36*
X-254480Y-462885D02*
X-262365D01*
Y-470270D01*
X-254480D01*
Y-462885D01*
D02*
G37*
G36*
X-263635D02*
X-271520D01*
Y-470270D01*
X-263635D01*
Y-462885D01*
D02*
G37*
G36*
X-396151Y-475730D02*
X-397849D01*
X-399419Y-476380D01*
X-400620Y-477581D01*
X-401270Y-479151D01*
Y-480656D01*
X-401926Y-481225D01*
X-401982Y-481256D01*
X-403199Y-480637D01*
Y-478972D01*
X-414288D01*
Y-490574D01*
X-403199D01*
Y-487087D01*
X-401773D01*
X-400887Y-486911D01*
X-400136Y-486409D01*
X-397954Y-484227D01*
X-397849Y-484270D01*
X-396151D01*
X-394581Y-483620D01*
X-393380Y-482419D01*
X-392730Y-480849D01*
Y-479151D01*
X-393380Y-477581D01*
X-394581Y-476380D01*
X-396151Y-475730D01*
D02*
G37*
G36*
X-282430Y-491225D02*
X-291470D01*
Y-509015D01*
X-282430D01*
Y-491225D01*
D02*
G37*
G36*
X-229885Y-508980D02*
X-239020D01*
Y-514365D01*
X-229885D01*
Y-508980D01*
D02*
G37*
G36*
X-244151Y-498730D02*
X-245849D01*
X-247419Y-499380D01*
X-248620Y-500581D01*
X-249270Y-502151D01*
Y-503849D01*
X-248620Y-505419D01*
X-247419Y-506620D01*
X-247314Y-506663D01*
Y-511083D01*
X-253210Y-516978D01*
X-254480Y-516452D01*
X-254480Y-516429D01*
X-254480Y-516429D01*
X-254480Y-516339D01*
Y-509885D01*
X-262365D01*
Y-517270D01*
X-255410Y-517270D01*
X-255321D01*
D01*
X-255298Y-517270D01*
X-255242Y-517406D01*
X-254772Y-518540D01*
X-264636Y-528405D01*
X-265138Y-529155D01*
X-265314Y-530041D01*
Y-535730D01*
X-269770D01*
Y-548270D01*
X-256230D01*
Y-544314D01*
X-243663D01*
X-243620Y-544419D01*
X-242419Y-545620D01*
X-240849Y-546270D01*
X-239151D01*
X-237581Y-545620D01*
X-236380Y-544419D01*
X-235730Y-542849D01*
Y-541151D01*
X-236380Y-539581D01*
X-237581Y-538380D01*
X-239151Y-537730D01*
X-240849D01*
X-242419Y-538380D01*
X-243620Y-539581D01*
X-243663Y-539686D01*
X-256230D01*
Y-535730D01*
X-260685D01*
Y-531000D01*
X-243363Y-513678D01*
X-242862Y-512927D01*
X-242686Y-512041D01*
Y-506663D01*
X-242581Y-506620D01*
X-241380Y-505419D01*
X-240730Y-503849D01*
Y-502151D01*
X-241380Y-500581D01*
X-242581Y-499380D01*
X-244151Y-498730D01*
D02*
G37*
G36*
X-263635Y-509885D02*
X-271520D01*
Y-517270D01*
X-263635D01*
Y-509885D01*
D02*
G37*
G36*
X-219480Y-515635D02*
X-228615D01*
Y-521020D01*
X-219480D01*
Y-515635D01*
D02*
G37*
G36*
X-229885D02*
X-239020D01*
Y-521020D01*
X-229885D01*
Y-515635D01*
D02*
G37*
G36*
X-308080Y-529230D02*
X-311965D01*
Y-537365D01*
X-308080D01*
Y-529230D01*
D02*
G37*
G36*
X-313235D02*
X-317120D01*
Y-537365D01*
X-313235D01*
Y-529230D01*
D02*
G37*
G36*
X-308080Y-538635D02*
X-311965D01*
Y-546770D01*
X-308080D01*
Y-538635D01*
D02*
G37*
G36*
X-313235D02*
X-317120D01*
Y-546770D01*
X-313235D01*
Y-538635D01*
D02*
G37*
G36*
X-256230Y-549730D02*
X-262365D01*
Y-555365D01*
X-256230D01*
Y-549730D01*
D02*
G37*
G36*
X-263635D02*
X-269770D01*
Y-555365D01*
X-263635D01*
Y-549730D01*
D02*
G37*
G36*
Y-556635D02*
X-269770D01*
Y-562270D01*
X-263635D01*
Y-556635D01*
D02*
G37*
G36*
X-256230D02*
X-262365D01*
Y-562270D01*
X-259503D01*
X-251080Y-570693D01*
Y-573235D01*
X-250904Y-574120D01*
X-250402Y-574871D01*
X-249637Y-575637D01*
X-248886Y-576138D01*
X-248000Y-576315D01*
X-247114Y-576138D01*
X-246363Y-575637D01*
X-245862Y-574886D01*
X-245686Y-574000D01*
X-245862Y-573114D01*
X-246363Y-572363D01*
X-246451Y-572276D01*
Y-569734D01*
X-246627Y-568849D01*
X-247129Y-568098D01*
X-256230Y-558997D01*
Y-556635D01*
D02*
G37*
G36*
X-282680Y-583230D02*
X-291720D01*
Y-600770D01*
X-290844D01*
Y-610122D01*
X-291270Y-611151D01*
Y-612849D01*
X-290620Y-614419D01*
X-289419Y-615620D01*
X-287849Y-616270D01*
X-286151D01*
X-284581Y-615620D01*
X-283380Y-614419D01*
X-282730Y-612849D01*
Y-611151D01*
X-283156Y-610122D01*
Y-600770D01*
X-282680D01*
Y-583230D01*
D02*
G37*
G36*
X-320780D02*
X-329820D01*
Y-600770D01*
X-329144D01*
Y-612846D01*
X-329270Y-613151D01*
Y-614849D01*
X-328620Y-616419D01*
X-327419Y-617620D01*
X-325849Y-618270D01*
X-324151D01*
X-322581Y-617620D01*
X-321380Y-616419D01*
X-320730Y-614849D01*
Y-613151D01*
X-321380Y-611581D01*
X-321456Y-611505D01*
Y-600770D01*
X-320780D01*
Y-583230D01*
D02*
G37*
G36*
X-46747Y-706880D02*
X-49253D01*
X-51674Y-707529D01*
X-53845Y-708782D01*
X-55618Y-710555D01*
X-56871Y-712725D01*
X-57520Y-715147D01*
Y-717653D01*
X-56871Y-720074D01*
X-55618Y-722245D01*
X-53845Y-724018D01*
X-51674Y-725271D01*
X-49253Y-725920D01*
X-46747D01*
X-44325Y-725271D01*
X-42155Y-724018D01*
X-40382Y-722245D01*
X-39129Y-720074D01*
X-38480Y-717653D01*
Y-715147D01*
X-39129Y-712725D01*
X-40382Y-710555D01*
X-42155Y-708782D01*
X-44325Y-707529D01*
X-46747Y-706880D01*
D02*
G37*
G36*
X-243151Y-806730D02*
X-244849D01*
X-246419Y-807380D01*
X-247620Y-808581D01*
X-248270Y-810151D01*
Y-811849D01*
X-247620Y-813419D01*
X-246419Y-814620D01*
X-246315Y-814663D01*
Y-823041D01*
X-253284Y-830011D01*
X-254457Y-829525D01*
Y-827230D01*
X-268497D01*
Y-841270D01*
X-254457D01*
Y-836213D01*
X-253899D01*
X-253013Y-836037D01*
X-252262Y-835536D01*
X-242363Y-825637D01*
X-241862Y-824886D01*
X-241686Y-824000D01*
Y-814663D01*
X-241581Y-814620D01*
X-240380Y-813419D01*
X-239730Y-811849D01*
Y-810151D01*
X-240380Y-808581D01*
X-241581Y-807380D01*
X-243151Y-806730D01*
D02*
G37*
G36*
X-335730Y-826730D02*
X-342365D01*
Y-833365D01*
X-335730D01*
Y-826730D01*
D02*
G37*
G36*
X-343635D02*
X-350270D01*
Y-833365D01*
X-343635D01*
Y-826730D01*
D02*
G37*
G36*
X-315730D02*
X-330270D01*
Y-841270D01*
X-315730D01*
Y-836314D01*
X-291997D01*
Y-841270D01*
X-277957D01*
Y-827230D01*
X-291997D01*
Y-831685D01*
X-315730D01*
Y-826730D01*
D02*
G37*
G36*
X-335730Y-834635D02*
X-342365D01*
Y-841270D01*
X-335730D01*
Y-834635D01*
D02*
G37*
G36*
X-343635D02*
X-350270D01*
Y-841270D01*
X-343635D01*
Y-834635D01*
D02*
G37*
G36*
X-111980Y-867730D02*
X-118365D01*
Y-875365D01*
X-111980D01*
Y-867730D01*
D02*
G37*
G36*
X-119635D02*
X-126020D01*
Y-875365D01*
X-119635D01*
Y-867730D01*
D02*
G37*
G36*
X-111980Y-876635D02*
X-118365D01*
Y-884270D01*
X-111980D01*
Y-876635D01*
D02*
G37*
G36*
X-119635D02*
X-126020D01*
Y-880997D01*
X-129944Y-884920D01*
X-131235D01*
X-132120Y-885096D01*
X-132871Y-885598D01*
X-133637Y-886363D01*
X-134138Y-887114D01*
X-134314Y-888000D01*
X-134138Y-888886D01*
X-133637Y-889637D01*
X-132886Y-890138D01*
X-132000Y-890314D01*
X-131114Y-890138D01*
X-130363Y-889637D01*
X-130276Y-889549D01*
X-128985D01*
X-128099Y-889373D01*
X-127348Y-888871D01*
X-122747Y-884270D01*
X-119635D01*
Y-876635D01*
D02*
G37*
G36*
X-310238Y-898446D02*
X-321263D01*
X-321948Y-898582D01*
X-322530Y-898970D01*
X-322654Y-899156D01*
X-331000D01*
X-331000Y-899156D01*
X-332471Y-899449D01*
X-333718Y-900282D01*
X-333718Y-900282D01*
X-336390Y-902954D01*
X-337419Y-903380D01*
X-338620Y-904581D01*
X-339270Y-906151D01*
Y-907849D01*
X-338620Y-909419D01*
X-337419Y-910620D01*
X-335849Y-911270D01*
X-334151D01*
X-332581Y-910620D01*
X-331380Y-909419D01*
X-330954Y-908390D01*
X-329408Y-906844D01*
X-322654D01*
X-322530Y-907030D01*
X-321948Y-907418D01*
X-321263Y-907554D01*
X-310238D01*
X-309552Y-907418D01*
X-308970Y-907030D01*
X-308582Y-906448D01*
X-308446Y-905762D01*
Y-900238D01*
X-308582Y-899552D01*
X-308970Y-898970D01*
X-309552Y-898582D01*
X-310238Y-898446D01*
D02*
G37*
G36*
X-228635Y-920730D02*
X-237770D01*
Y-924436D01*
X-243207D01*
Y-920730D01*
X-252342D01*
Y-926750D01*
Y-932770D01*
X-243207D01*
Y-929064D01*
X-237770D01*
Y-932770D01*
X-228635D01*
Y-926750D01*
Y-920730D01*
D02*
G37*
G36*
X-218230D02*
X-227365D01*
Y-926115D01*
X-218230D01*
Y-920730D01*
D02*
G37*
G36*
X-197495Y-920296D02*
X-209005D01*
X-209694Y-920433D01*
X-210277Y-920823D01*
X-210667Y-921406D01*
X-210804Y-922095D01*
Y-926605D01*
X-210667Y-927294D01*
X-210277Y-927878D01*
X-209694Y-928268D01*
X-209005Y-928405D01*
X-197495D01*
X-196806Y-928268D01*
X-196222Y-927878D01*
X-195832Y-927294D01*
X-195695Y-926605D01*
Y-922095D01*
X-195832Y-921406D01*
X-196222Y-920823D01*
X-196806Y-920433D01*
X-197495Y-920296D01*
D02*
G37*
G36*
X-218230Y-927385D02*
X-227365D01*
Y-932770D01*
X-218230D01*
Y-927385D01*
D02*
G37*
G36*
X-275980Y-945480D02*
X-281365D01*
Y-954615D01*
X-275980D01*
Y-945480D01*
D02*
G37*
G36*
X-369635Y-950480D02*
X-382770D01*
Y-957365D01*
X-369635D01*
Y-950480D01*
D02*
G37*
G36*
X-275980Y-955885D02*
X-281365D01*
Y-965020D01*
X-275980D01*
Y-955885D01*
D02*
G37*
G36*
X-355230Y-950480D02*
X-368365D01*
Y-958000D01*
Y-965520D01*
X-355230D01*
Y-960315D01*
X-346581D01*
Y-965520D01*
X-339635D01*
Y-959461D01*
Y-953402D01*
X-346581D01*
Y-955686D01*
X-355230D01*
Y-950480D01*
D02*
G37*
G36*
X-369635Y-958635D02*
X-382770D01*
Y-965520D01*
X-369635D01*
Y-958635D01*
D02*
G37*
G36*
X-310730Y-978130D02*
X-321365D01*
Y-998765D01*
X-310730D01*
Y-978130D01*
D02*
G37*
G36*
X-322635D02*
X-333270D01*
Y-998765D01*
X-322635D01*
Y-978130D01*
D02*
G37*
G36*
Y-1000035D02*
X-333270D01*
Y-1020670D01*
X-322635D01*
Y-1000035D01*
D02*
G37*
G36*
X-411635Y-1033730D02*
X-419770D01*
Y-1041865D01*
X-411635D01*
Y-1033730D01*
D02*
G37*
G36*
X-402230Y-1043135D02*
X-410365D01*
Y-1051270D01*
X-402230D01*
Y-1043135D01*
D02*
G37*
G36*
X-411635D02*
X-419770D01*
Y-1051270D01*
X-411635D01*
Y-1043135D01*
D02*
G37*
G36*
X-402230Y-1068730D02*
X-419770D01*
Y-1086270D01*
X-402230D01*
Y-1083094D01*
X-395520D01*
Y-1085520D01*
X-378480D01*
Y-1072980D01*
X-395520D01*
Y-1075406D01*
X-402230D01*
Y-1068730D01*
D02*
G37*
G36*
X-41180Y-224753D02*
X-49065D01*
Y-231138D01*
X-41180D01*
Y-224753D01*
D02*
G37*
G36*
X-32025D02*
X-39910D01*
Y-231772D01*
Y-238792D01*
X-32025D01*
Y-233314D01*
X-29000D01*
X-28114Y-233138D01*
X-27363Y-232637D01*
X-26862Y-231886D01*
X-26686Y-231000D01*
X-26862Y-230114D01*
X-27363Y-229363D01*
X-28114Y-228862D01*
X-29000Y-228685D01*
X-32025D01*
Y-224753D01*
D02*
G37*
G36*
X-41180Y-232407D02*
X-49065D01*
Y-238792D01*
X-41180D01*
Y-232407D01*
D02*
G37*
G36*
X-32025Y-242752D02*
X-49065D01*
Y-256792D01*
X-42860D01*
Y-258372D01*
X-42754Y-258904D01*
X-43270Y-260151D01*
Y-261849D01*
X-42620Y-263419D01*
X-41419Y-264620D01*
X-39849Y-265270D01*
X-38151D01*
X-36581Y-264620D01*
X-35380Y-263419D01*
X-34730Y-261849D01*
Y-260151D01*
X-35380Y-258581D01*
X-35899Y-258062D01*
X-35373Y-256792D01*
X-32025D01*
Y-242752D01*
D02*
G37*
G36*
X318270Y-406230D02*
X312635D01*
Y-412365D01*
X318270D01*
Y-406230D01*
D02*
G37*
G36*
X311365D02*
X305730D01*
Y-412365D01*
X311365D01*
Y-406230D01*
D02*
G37*
G36*
X304015Y-436985D02*
X300130D01*
Y-445245D01*
X304015D01*
Y-436985D01*
D02*
G37*
G36*
X309170Y-446515D02*
X305285D01*
Y-454775D01*
X309170D01*
Y-446515D01*
D02*
G37*
G36*
X304015D02*
X300130D01*
Y-454775D01*
X304015D01*
Y-446515D01*
D02*
G37*
G36*
X460615Y-447730D02*
X453730D01*
Y-449686D01*
X436270D01*
Y-447730D01*
X429385D01*
Y-452000D01*
Y-456270D01*
X431685D01*
Y-465386D01*
X431862Y-466272D01*
X432363Y-467023D01*
X433936Y-468595D01*
Y-476753D01*
X429980D01*
Y-482887D01*
X436250D01*
X442520D01*
Y-476753D01*
X438564D01*
Y-467636D01*
X438388Y-466751D01*
X437887Y-466000D01*
X436314Y-464428D01*
Y-454315D01*
X437632D01*
X438730Y-454730D01*
X438730Y-455585D01*
Y-462270D01*
X451270D01*
X451270Y-454730D01*
X452368Y-454315D01*
X453730D01*
Y-456270D01*
X460615D01*
Y-452000D01*
Y-447730D01*
D02*
G37*
G36*
X468770Y-452635D02*
X461885D01*
Y-456270D01*
X468770D01*
Y-452635D01*
D02*
G37*
G36*
X428520Y-476753D02*
X415980D01*
Y-481208D01*
X409560D01*
X409184Y-481283D01*
X407849Y-480730D01*
X406151D01*
X404581Y-481380D01*
X403380Y-482581D01*
X402730Y-484151D01*
Y-485849D01*
X403380Y-487419D01*
X404581Y-488620D01*
X406151Y-489270D01*
X407849D01*
X409419Y-488620D01*
X410620Y-487419D01*
X411270Y-485849D01*
Y-485837D01*
X415980D01*
Y-490293D01*
X428520D01*
Y-476753D01*
D02*
G37*
G36*
X435615Y-484157D02*
X429980D01*
Y-490293D01*
X435615D01*
Y-484157D01*
D02*
G37*
G36*
X271865Y-405980D02*
X266480D01*
Y-413365D01*
X271865D01*
Y-405980D01*
D02*
G37*
G36*
Y-414635D02*
X266480D01*
Y-422020D01*
X271865D01*
Y-414635D01*
D02*
G37*
G36*
X99365Y-435635D02*
X91980D01*
Y-441020D01*
X99365D01*
Y-435635D01*
D02*
G37*
G36*
X171293Y-448003D02*
X165908D01*
Y-455387D01*
X171293D01*
Y-448003D01*
D02*
G37*
G36*
X241520Y-462635D02*
X233635D01*
Y-469770D01*
X241520D01*
Y-462635D01*
D02*
G37*
G36*
X232365D02*
X224480D01*
Y-469770D01*
X232365D01*
Y-462635D01*
D02*
G37*
G36*
X275520Y-462885D02*
X267635D01*
Y-470270D01*
X275520D01*
Y-462885D01*
D02*
G37*
G36*
X266365D02*
X258480D01*
Y-470270D01*
X266365D01*
Y-462885D01*
D02*
G37*
G36*
X334570Y-491225D02*
X325530D01*
Y-509015D01*
X334570D01*
Y-491225D01*
D02*
G37*
G36*
X171293Y-456657D02*
X159253D01*
Y-464043D01*
X162958D01*
Y-505503D01*
X159253D01*
Y-512887D01*
X171293D01*
Y-505503D01*
X167587D01*
Y-464043D01*
X171293D01*
Y-456657D01*
D02*
G37*
G36*
X242770Y-508980D02*
X233635D01*
Y-514365D01*
X242770D01*
Y-508980D01*
D02*
G37*
G36*
X275520Y-509885D02*
X267635D01*
Y-517270D01*
X275520D01*
Y-509885D01*
D02*
G37*
G36*
X266365D02*
X258480D01*
Y-517270D01*
X266365D01*
Y-509885D01*
D02*
G37*
G36*
X242770Y-515635D02*
X233635D01*
Y-521020D01*
X242770D01*
Y-515635D01*
D02*
G37*
G36*
X232365D02*
X223230D01*
Y-521020D01*
X232365D01*
Y-515635D01*
D02*
G37*
G36*
X171293Y-514157D02*
X165908D01*
Y-521543D01*
X171293D01*
Y-514157D01*
D02*
G37*
G36*
X164638D02*
X159253D01*
Y-521543D01*
X164638D01*
Y-514157D01*
D02*
G37*
G36*
X282849Y-515730D02*
X281151D01*
X279581Y-516380D01*
X278380Y-517581D01*
X277730Y-519151D01*
Y-520849D01*
X277773Y-520954D01*
X267864Y-530863D01*
X267362Y-531614D01*
X267186Y-532500D01*
Y-535730D01*
X258230D01*
Y-539686D01*
X246041D01*
X245270Y-538914D01*
Y-538151D01*
X244620Y-536581D01*
X243419Y-535380D01*
X241849Y-534730D01*
X240151D01*
X238581Y-535380D01*
X237380Y-536581D01*
X236730Y-538151D01*
Y-539849D01*
X237380Y-541419D01*
X238581Y-542620D01*
X240151Y-543270D01*
X241849D01*
X242719Y-542910D01*
X243446Y-543637D01*
X244197Y-544138D01*
X245082Y-544314D01*
X258230D01*
Y-548270D01*
X271770D01*
Y-538224D01*
X271815Y-538000D01*
Y-533459D01*
X281046Y-524227D01*
X281151Y-524270D01*
X282849D01*
X284419Y-523620D01*
X285620Y-522419D01*
X286270Y-520849D01*
Y-519151D01*
X285620Y-517581D01*
X284419Y-516380D01*
X282849Y-515730D01*
D02*
G37*
G36*
X309420Y-529230D02*
X305535D01*
Y-537365D01*
X309420D01*
Y-529230D01*
D02*
G37*
G36*
X304265D02*
X300380D01*
Y-537365D01*
X304265D01*
Y-529230D01*
D02*
G37*
G36*
X117020Y-530275D02*
X111635D01*
Y-537660D01*
X117020D01*
Y-530275D01*
D02*
G37*
G36*
X110365D02*
X104980D01*
Y-537660D01*
X110365D01*
Y-530275D01*
D02*
G37*
G36*
X117020Y-538930D02*
X111635D01*
Y-546315D01*
X117020D01*
Y-538930D01*
D02*
G37*
G36*
X110365D02*
X104980D01*
Y-546315D01*
X110365D01*
Y-538930D01*
D02*
G37*
G36*
X75849Y-460730D02*
X74151D01*
X72581Y-461380D01*
X71380Y-462581D01*
X70730Y-464151D01*
Y-465849D01*
X71380Y-467419D01*
X72581Y-468620D01*
X74151Y-469270D01*
X75849D01*
X75954Y-469227D01*
X81693Y-474967D01*
Y-524303D01*
X81869Y-525188D01*
X82371Y-525939D01*
X89980Y-533548D01*
Y-539686D01*
X84000D01*
X83114Y-539862D01*
X82363Y-540363D01*
X48954Y-573773D01*
X48849Y-573730D01*
X47151D01*
X45581Y-574380D01*
X44380Y-575581D01*
X43730Y-577151D01*
Y-578849D01*
X44380Y-580419D01*
X45581Y-581620D01*
X47151Y-582270D01*
X48849D01*
X50419Y-581620D01*
X51620Y-580419D01*
X52270Y-578849D01*
Y-577151D01*
X52227Y-577046D01*
X84959Y-544314D01*
X89980D01*
Y-546315D01*
X102020D01*
Y-530275D01*
X93253D01*
X86322Y-523344D01*
Y-474008D01*
X86146Y-473122D01*
X85644Y-472371D01*
X79227Y-465954D01*
X79270Y-465849D01*
Y-464151D01*
X78620Y-462581D01*
X77419Y-461380D01*
X75849Y-460730D01*
D02*
G37*
G36*
X271770Y-549730D02*
X265635D01*
Y-555365D01*
X271770D01*
Y-549730D01*
D02*
G37*
G36*
X264365D02*
X258230D01*
Y-555365D01*
X264365D01*
Y-549730D01*
D02*
G37*
G36*
X296470Y-491225D02*
X287430D01*
Y-509015D01*
X288231D01*
Y-529230D01*
X287680D01*
Y-546770D01*
X288356D01*
Y-551639D01*
X287730Y-553151D01*
Y-554849D01*
X288076Y-555686D01*
X287257Y-556955D01*
X271770D01*
Y-556635D01*
X265635D01*
Y-562270D01*
X271770D01*
Y-561585D01*
X294183D01*
X295069Y-561408D01*
X295819Y-560907D01*
X306537Y-550190D01*
X307038Y-549439D01*
X307215Y-548553D01*
Y-546770D01*
X309420D01*
Y-538635D01*
X304900D01*
X300380D01*
Y-546770D01*
X301614D01*
X302140Y-548040D01*
X297443Y-552736D01*
X296516Y-552649D01*
X296044Y-552340D01*
Y-546770D01*
X296720D01*
Y-529230D01*
X295919D01*
Y-509015D01*
X296470D01*
Y-491225D01*
D02*
G37*
G36*
X321870D02*
X312830D01*
Y-509015D01*
X313506D01*
Y-513350D01*
X313506Y-513350D01*
X313799Y-514821D01*
X314632Y-516068D01*
X326156Y-527592D01*
Y-529230D01*
X325780D01*
Y-546770D01*
X326456D01*
Y-554029D01*
X326456Y-554029D01*
X326730Y-555406D01*
Y-555849D01*
X327380Y-557419D01*
X328581Y-558620D01*
X330151Y-559270D01*
X331849D01*
X333419Y-558620D01*
X334620Y-557419D01*
X335270Y-555849D01*
Y-554151D01*
X334620Y-552581D01*
X334144Y-552105D01*
Y-546770D01*
X334820D01*
Y-529230D01*
X333844D01*
Y-526000D01*
X333551Y-524529D01*
X332718Y-523282D01*
X332718Y-523282D01*
X321194Y-511758D01*
Y-509015D01*
X321870D01*
Y-491225D01*
D02*
G37*
G36*
X264365Y-556635D02*
X258230D01*
Y-562270D01*
X264365D01*
Y-556635D01*
D02*
G37*
G36*
X73849Y-563730D02*
X72151D01*
X70581Y-564380D01*
X69380Y-565581D01*
X68730Y-567151D01*
Y-568849D01*
X69380Y-570419D01*
X70581Y-571620D01*
X72151Y-572270D01*
X72164D01*
X76647Y-576753D01*
Y-585520D01*
X92687D01*
Y-581814D01*
X103949D01*
Y-587989D01*
Y-593475D01*
X112000D01*
X120051D01*
Y-587989D01*
Y-573668D01*
X103949D01*
Y-577186D01*
X92687D01*
Y-573480D01*
X79920D01*
X76690Y-570250D01*
X77270Y-568849D01*
Y-567151D01*
X76620Y-565581D01*
X75419Y-564380D01*
X73849Y-563730D01*
D02*
G37*
G36*
X92687Y-588480D02*
X85302D01*
Y-593865D01*
X92687D01*
Y-588480D01*
D02*
G37*
G36*
X84032D02*
X76647D01*
Y-593865D01*
X84032D01*
Y-588480D01*
D02*
G37*
G36*
X92687Y-595135D02*
X85302D01*
Y-600520D01*
X92687D01*
Y-595135D01*
D02*
G37*
G36*
X84032D02*
X76647D01*
Y-600520D01*
X84032D01*
Y-595135D01*
D02*
G37*
G36*
X120051Y-594745D02*
X112635D01*
Y-601270D01*
X120051D01*
Y-594745D01*
D02*
G37*
G36*
X111365D02*
X103949D01*
Y-601270D01*
X111365D01*
Y-594745D01*
D02*
G37*
G36*
X334820Y-583230D02*
X325780D01*
Y-600770D01*
X326456D01*
Y-611029D01*
X326456Y-611029D01*
X326730Y-612406D01*
Y-612849D01*
X327380Y-614419D01*
X328581Y-615620D01*
X330151Y-616270D01*
X331849D01*
X333419Y-615620D01*
X334620Y-614419D01*
X335270Y-612849D01*
Y-611151D01*
X334620Y-609581D01*
X334144Y-609105D01*
Y-600770D01*
X334820D01*
Y-583230D01*
D02*
G37*
G36*
X296720D02*
X287680D01*
Y-600770D01*
X288256D01*
Y-609880D01*
X287730Y-611151D01*
Y-612849D01*
X288380Y-614419D01*
X289581Y-615620D01*
X291151Y-616270D01*
X292849D01*
X294419Y-615620D01*
X295620Y-614419D01*
X296270Y-612849D01*
Y-611151D01*
X295944Y-610363D01*
Y-600770D01*
X296720D01*
Y-583230D01*
D02*
G37*
G36*
X193977Y-595000D02*
X191023D01*
X188125Y-595576D01*
X185395Y-596707D01*
X182938Y-598349D01*
X180849Y-600438D01*
X179207Y-602895D01*
X178076Y-605625D01*
X177500Y-608522D01*
Y-611477D01*
X178076Y-614375D01*
X179207Y-617105D01*
X180849Y-619562D01*
X182938Y-621651D01*
X185395Y-623293D01*
X188125Y-624423D01*
X191023Y-625000D01*
X193977D01*
X196875Y-624423D01*
X199605Y-623293D01*
X202062Y-621651D01*
X204151Y-619562D01*
X205793Y-617105D01*
X206924Y-614375D01*
X207500Y-611477D01*
Y-608522D01*
X206924Y-605625D01*
X205793Y-602895D01*
X204151Y-600438D01*
X202062Y-598349D01*
X199605Y-596707D01*
X196875Y-595576D01*
X193977Y-595000D01*
D02*
G37*
G36*
X43253Y-757680D02*
X42635D01*
Y-766565D01*
X51520D01*
Y-765947D01*
X50871Y-763525D01*
X49618Y-761355D01*
X47845Y-759582D01*
X45674Y-758329D01*
X43253Y-757680D01*
D02*
G37*
G36*
X-46747D02*
X-47365D01*
Y-766565D01*
X-38480D01*
Y-765947D01*
X-39129Y-763525D01*
X-40382Y-761355D01*
X-42155Y-759582D01*
X-44325Y-758329D01*
X-46747Y-757680D01*
D02*
G37*
G36*
X-48635D02*
X-49253D01*
X-51674Y-758329D01*
X-53845Y-759582D01*
X-55618Y-761355D01*
X-56871Y-763525D01*
X-57520Y-765947D01*
Y-766565D01*
X-48635D01*
Y-757680D01*
D02*
G37*
G36*
X51520Y-767835D02*
X42635D01*
Y-776720D01*
X43253D01*
X45674Y-776071D01*
X47845Y-774818D01*
X49618Y-773045D01*
X50871Y-770874D01*
X51520Y-768453D01*
Y-767835D01*
D02*
G37*
G36*
X-38480D02*
X-47365D01*
Y-776720D01*
X-46747D01*
X-44325Y-776071D01*
X-42155Y-774818D01*
X-40382Y-773045D01*
X-39129Y-770874D01*
X-38480Y-768453D01*
Y-767835D01*
D02*
G37*
G36*
X-48635D02*
X-57520D01*
Y-768453D01*
X-56871Y-770874D01*
X-55618Y-773045D01*
X-53845Y-774818D01*
X-51674Y-776071D01*
X-49253Y-776720D01*
X-48635D01*
Y-767835D01*
D02*
G37*
G36*
X193977Y-775000D02*
X191023D01*
X188125Y-775576D01*
X185395Y-776707D01*
X182938Y-778349D01*
X180849Y-780438D01*
X179207Y-782895D01*
X178076Y-785625D01*
X177500Y-788523D01*
Y-791477D01*
X178076Y-794375D01*
X179207Y-797105D01*
X180849Y-799562D01*
X182938Y-801651D01*
X185395Y-803293D01*
X188125Y-804424D01*
X191023Y-805000D01*
X193977D01*
X196875Y-804424D01*
X199605Y-803293D01*
X202062Y-801651D01*
X204151Y-799562D01*
X205793Y-797105D01*
X206924Y-794375D01*
X207500Y-791477D01*
Y-788523D01*
X206924Y-785625D01*
X205793Y-782895D01*
X204151Y-780438D01*
X202062Y-778349D01*
X199605Y-776707D01*
X196875Y-775576D01*
X193977Y-775000D01*
D02*
G37*
G36*
X330270Y-826730D02*
X315730D01*
Y-831686D01*
X291998D01*
Y-827230D01*
X277958D01*
Y-841270D01*
X291998D01*
Y-836315D01*
X315730D01*
Y-841270D01*
X330270D01*
Y-826730D01*
D02*
G37*
G36*
X350270D02*
X343635D01*
Y-833365D01*
X350270D01*
Y-826730D01*
D02*
G37*
G36*
X342365D02*
X335730D01*
Y-833365D01*
X342365D01*
Y-826730D01*
D02*
G37*
G36*
X52849Y-828730D02*
X51151D01*
X49581Y-829380D01*
X48380Y-830581D01*
X47730Y-832151D01*
Y-833512D01*
X46556Y-834686D01*
X8663D01*
X8620Y-834581D01*
X7419Y-833380D01*
X5849Y-832730D01*
X4151D01*
X2581Y-833380D01*
X1380Y-834581D01*
X730Y-836151D01*
Y-837849D01*
X1380Y-839419D01*
X2581Y-840620D01*
X4151Y-841270D01*
X5849D01*
X7419Y-840620D01*
X8620Y-839419D01*
X8663Y-839314D01*
X47515D01*
X48401Y-839138D01*
X49151Y-838637D01*
X50703Y-837085D01*
X51151Y-837270D01*
X52849D01*
X54419Y-836620D01*
X55620Y-835419D01*
X56270Y-833849D01*
Y-832151D01*
X55620Y-830581D01*
X54419Y-829380D01*
X52849Y-828730D01*
D02*
G37*
G36*
X247849Y-778730D02*
X246151D01*
X244581Y-779380D01*
X243380Y-780581D01*
X242730Y-782151D01*
Y-783849D01*
X243380Y-785419D01*
X244581Y-786620D01*
X244685Y-786663D01*
X244685Y-826000D01*
X244862Y-826886D01*
X245363Y-827637D01*
X252263Y-834536D01*
X253014Y-835038D01*
X253899Y-835214D01*
X254458D01*
Y-841270D01*
X268498D01*
Y-827230D01*
X254458D01*
Y-828525D01*
X253284Y-829011D01*
X249314Y-825041D01*
X249314Y-786663D01*
X249419Y-786620D01*
X250620Y-785419D01*
X251270Y-783849D01*
Y-782151D01*
X250620Y-780581D01*
X249419Y-779380D01*
X247849Y-778730D01*
D02*
G37*
G36*
X350270Y-834635D02*
X343635D01*
Y-841270D01*
X350270D01*
Y-834635D01*
D02*
G37*
G36*
X342365D02*
X335730D01*
Y-841270D01*
X342365D01*
Y-834635D01*
D02*
G37*
G36*
X158365Y-980730D02*
X152230D01*
Y-986365D01*
X158365D01*
Y-980730D01*
D02*
G37*
G36*
X199270Y-981230D02*
X191635D01*
Y-986865D01*
X199270D01*
Y-981230D01*
D02*
G37*
G36*
X-186635Y-988040D02*
X-195770D01*
Y-991746D01*
X-200480D01*
Y-988040D01*
X-209615D01*
Y-994061D01*
Y-1000080D01*
X-200480D01*
Y-996375D01*
X-195770D01*
Y-1000080D01*
X-186635D01*
Y-994061D01*
Y-988040D01*
D02*
G37*
G36*
X-239635Y-985291D02*
X-252770D01*
Y-992176D01*
X-239635D01*
Y-985291D01*
D02*
G37*
G36*
X158365Y-987635D02*
X152230D01*
Y-993270D01*
X158365D01*
Y-987635D01*
D02*
G37*
G36*
X-153419Y-988213D02*
X-160365D01*
Y-993637D01*
X-153419D01*
Y-988213D01*
D02*
G37*
G36*
X-225230Y-985291D02*
X-238365D01*
Y-992811D01*
Y-1000331D01*
X-225230D01*
Y-995125D01*
X-220020D01*
Y-1000080D01*
X-210885D01*
Y-994061D01*
Y-988040D01*
X-220020D01*
Y-990496D01*
X-225230D01*
Y-985291D01*
D02*
G37*
G36*
X-153419Y-994907D02*
X-160365D01*
Y-1000331D01*
X-153419D01*
Y-994907D01*
D02*
G37*
G36*
X-176230Y-988040D02*
X-185365D01*
Y-994061D01*
Y-1000080D01*
X-176230D01*
Y-996375D01*
X-168581D01*
Y-1000331D01*
X-161635D01*
Y-994272D01*
Y-988213D01*
X-168581D01*
Y-991746D01*
X-176230D01*
Y-988040D01*
D02*
G37*
G36*
X-239635Y-993446D02*
X-252770D01*
Y-1000331D01*
X-239635D01*
Y-993446D01*
D02*
G37*
G36*
X430770Y-993730D02*
X421230D01*
Y-1002270D01*
X430770D01*
Y-993730D01*
D02*
G37*
G36*
X70849Y-903730D02*
X69151D01*
X67581Y-904380D01*
X66380Y-905581D01*
X65730Y-907151D01*
Y-908849D01*
X66380Y-910419D01*
X67581Y-911620D01*
X67685Y-911663D01*
Y-953278D01*
X67862Y-954163D01*
X68363Y-954914D01*
X105180Y-991730D01*
Y-1002497D01*
X119220D01*
Y-988457D01*
X108453D01*
X72315Y-952319D01*
Y-911663D01*
X72419Y-911620D01*
X73620Y-910419D01*
X74270Y-908849D01*
Y-907151D01*
X73620Y-905581D01*
X72419Y-904380D01*
X70849Y-903730D01*
D02*
G37*
G36*
X402270Y-999730D02*
X389730D01*
Y-1009270D01*
X402270D01*
Y-999730D01*
D02*
G37*
G36*
X-163855Y-1032505D02*
X-172365D01*
Y-1041015D01*
X-163855D01*
Y-1032505D01*
D02*
G37*
G36*
X185615D02*
X177105D01*
Y-1041015D01*
X185615D01*
Y-1032505D01*
D02*
G37*
G36*
X-173635D02*
X-182145D01*
Y-1041015D01*
X-173635D01*
Y-1032505D01*
D02*
G37*
G36*
X402270Y-1036730D02*
X389730D01*
Y-1046270D01*
X402270D01*
Y-1036730D01*
D02*
G37*
G36*
X185615Y-1042285D02*
X177105D01*
Y-1050795D01*
X185615D01*
Y-1042285D01*
D02*
G37*
G36*
X-163855D02*
X-172365D01*
Y-1050795D01*
X-163855D01*
Y-1042285D01*
D02*
G37*
G36*
X-173635D02*
X-182145D01*
Y-1050795D01*
X-173635D01*
Y-1042285D01*
D02*
G37*
G36*
X430770Y-1043730D02*
X421230D01*
Y-1052270D01*
X430770D01*
Y-1043730D01*
D02*
G37*
G36*
X119220Y-1011957D02*
X105180D01*
Y-1025997D01*
X109885D01*
Y-1049730D01*
X105352D01*
Y-1064270D01*
X119892D01*
Y-1049730D01*
X114514D01*
Y-1025997D01*
X119220D01*
Y-1011957D01*
D02*
G37*
G36*
X82820D02*
X68780D01*
Y-1025997D01*
X73485D01*
Y-1049730D01*
X68899D01*
Y-1064270D01*
X83439D01*
Y-1049730D01*
X78114D01*
Y-1025997D01*
X82820D01*
Y-1011957D01*
D02*
G37*
G36*
X46420D02*
X32380D01*
Y-1025997D01*
X37085D01*
Y-1049730D01*
X32446D01*
Y-1064270D01*
X46986D01*
Y-1049730D01*
X41714D01*
Y-1025997D01*
X46420D01*
Y-1011957D01*
D02*
G37*
G36*
X10020D02*
X-4020D01*
Y-1025997D01*
X685D01*
Y-1049730D01*
X-4006D01*
Y-1064270D01*
X10534D01*
Y-1049730D01*
X5314D01*
Y-1025997D01*
X10020D01*
Y-1011957D01*
D02*
G37*
G36*
X-26380D02*
X-40420D01*
Y-1025997D01*
X-35714D01*
Y-1049730D01*
X-40459D01*
Y-1064270D01*
X-25919D01*
Y-1049730D01*
X-31086D01*
Y-1025997D01*
X-26380D01*
Y-1011957D01*
D02*
G37*
G36*
X-62780D02*
X-76820D01*
Y-1025997D01*
X-72115D01*
Y-1049730D01*
X-76912D01*
Y-1064270D01*
X-62372D01*
Y-1049730D01*
X-67486D01*
Y-1025997D01*
X-62780D01*
Y-1011957D01*
D02*
G37*
G36*
X-99180D02*
X-113220D01*
Y-1025997D01*
X-108514D01*
Y-1049730D01*
X-113364D01*
Y-1064270D01*
X-98824D01*
Y-1049730D01*
X-103885D01*
Y-1025997D01*
X-99180D01*
Y-1011957D01*
D02*
G37*
G36*
X453270Y-1068230D02*
X447635D01*
Y-1074365D01*
X453270D01*
Y-1068230D01*
D02*
G37*
G36*
X446365D02*
X440730D01*
Y-1074365D01*
X446365D01*
Y-1068230D01*
D02*
G37*
G36*
X221270Y-971730D02*
X204730D01*
Y-984270D01*
X217997D01*
X294103Y-1060376D01*
X294076Y-1060583D01*
X292582Y-1062076D01*
X291527Y-1063905D01*
X290980Y-1065944D01*
Y-1068056D01*
X291527Y-1070096D01*
X292582Y-1071925D01*
X294076Y-1073418D01*
X295905Y-1074474D01*
X297944Y-1075020D01*
X300056D01*
X302096Y-1074474D01*
X303925Y-1073418D01*
X305418Y-1071925D01*
X306474Y-1070096D01*
X307020Y-1068056D01*
Y-1065944D01*
X306474Y-1063905D01*
X305418Y-1062076D01*
X303925Y-1060583D01*
X302096Y-1059527D01*
X300056Y-1058980D01*
X298951D01*
X298938Y-1058914D01*
X298436Y-1058163D01*
X221270Y-980997D01*
Y-971730D01*
D02*
G37*
G36*
X-228832Y-1032505D02*
X-247122D01*
Y-1050795D01*
X-234268D01*
X-215695Y-1069368D01*
X-215695Y-1069368D01*
X-214448Y-1070201D01*
X-212977Y-1070494D01*
X-212977Y-1070494D01*
X-181341D01*
X-180318Y-1072265D01*
X-178615Y-1073968D01*
X-176530Y-1075172D01*
X-174204Y-1075795D01*
X-171796D01*
X-169470Y-1075172D01*
X-167385Y-1073968D01*
X-165682Y-1072265D01*
X-164478Y-1070180D01*
X-163855Y-1067854D01*
Y-1065446D01*
X-164478Y-1063120D01*
X-165682Y-1061035D01*
X-167385Y-1059332D01*
X-169470Y-1058128D01*
X-171796Y-1057505D01*
X-174204D01*
X-176530Y-1058128D01*
X-178615Y-1059332D01*
X-180318Y-1061035D01*
X-181341Y-1062806D01*
X-211385D01*
X-228832Y-1045359D01*
Y-1032505D01*
D02*
G37*
G36*
X119892Y-1069730D02*
X113257D01*
Y-1076365D01*
X119892D01*
Y-1069730D01*
D02*
G37*
G36*
X-106729D02*
X-113364D01*
Y-1076365D01*
X-106729D01*
Y-1069730D01*
D02*
G37*
G36*
X437849Y-1022730D02*
X436151D01*
X434581Y-1023380D01*
X433380Y-1024581D01*
X432730Y-1026151D01*
Y-1027849D01*
X433380Y-1029419D01*
X434581Y-1030620D01*
X436151Y-1031270D01*
X437849D01*
X437954Y-1031227D01*
X447742Y-1041015D01*
X448493Y-1041517D01*
X449379Y-1041693D01*
X449730D01*
Y-1046270D01*
X458685D01*
Y-1068230D01*
X454730D01*
Y-1081770D01*
X467270D01*
Y-1068230D01*
X463314D01*
Y-1045000D01*
X463138Y-1044114D01*
X462636Y-1043363D01*
X462270Y-1042997D01*
Y-1036730D01*
X450003D01*
X441227Y-1027954D01*
X441270Y-1027849D01*
Y-1026151D01*
X440620Y-1024581D01*
X439419Y-1023380D01*
X437849Y-1022730D01*
D02*
G37*
G36*
X453270Y-1075635D02*
X447635D01*
Y-1081770D01*
X453270D01*
Y-1075635D01*
D02*
G37*
G36*
X165770Y-980730D02*
X159635D01*
Y-987000D01*
Y-993270D01*
X165770D01*
Y-989314D01*
X182730D01*
Y-993770D01*
X188685D01*
Y-1032505D01*
X186885D01*
Y-1041650D01*
Y-1050795D01*
X195395D01*
Y-1043964D01*
X218691D01*
X255363Y-1080637D01*
X256114Y-1081138D01*
X257000Y-1081314D01*
X440730D01*
Y-1081770D01*
X446365D01*
Y-1075635D01*
X440730D01*
Y-1076685D01*
X257959D01*
X221287Y-1040013D01*
X220536Y-1039512D01*
X219650Y-1039335D01*
X195395D01*
Y-1032505D01*
X193314D01*
Y-993770D01*
X199270D01*
Y-988135D01*
X191000D01*
Y-987500D01*
X190365D01*
Y-981230D01*
X182730D01*
Y-984685D01*
X165770D01*
Y-980730D01*
D02*
G37*
G36*
X-108747Y-520080D02*
X-109365D01*
Y-528965D01*
X-100480D01*
Y-528347D01*
X-101129Y-525926D01*
X-102382Y-523755D01*
X-104155Y-521982D01*
X-106325Y-520729D01*
X-108747Y-520080D01*
D02*
G37*
G36*
X-110635D02*
X-111253D01*
X-113674Y-520729D01*
X-115845Y-521982D01*
X-117618Y-523755D01*
X-118871Y-525926D01*
X-119520Y-528347D01*
Y-528965D01*
X-110635D01*
Y-520080D01*
D02*
G37*
G36*
Y-555635D02*
X-119520D01*
Y-556254D01*
X-118871Y-558675D01*
X-117618Y-560846D01*
X-115845Y-562618D01*
X-113674Y-563871D01*
X-111253Y-564520D01*
X-110635D01*
Y-555635D01*
D02*
G37*
G36*
X-100480D02*
X-109365D01*
Y-564520D01*
X-108747D01*
X-106325Y-563871D01*
X-105106Y-563167D01*
X-103637Y-564637D01*
X-102886Y-565138D01*
X-102000Y-565314D01*
X-97000D01*
X-96114Y-565138D01*
X-95363Y-564637D01*
X-94862Y-563886D01*
X-94685Y-563000D01*
X-94862Y-562114D01*
X-95363Y-561363D01*
X-96114Y-560862D01*
X-97000Y-560686D01*
X-100937D01*
X-101718Y-559696D01*
X-101129Y-558675D01*
X-100480Y-556254D01*
Y-555635D01*
D02*
G37*
G36*
X-81802Y-594480D02*
X-89187D01*
Y-598185D01*
X-99980D01*
Y-594480D01*
X-107365D01*
Y-600500D01*
Y-606520D01*
X-99980D01*
Y-602814D01*
X-89187D01*
Y-606520D01*
X-81802D01*
Y-600500D01*
Y-594480D01*
D02*
G37*
G36*
X-73147D02*
X-80532D01*
Y-599865D01*
X-73147D01*
Y-594480D01*
D02*
G37*
G36*
Y-601135D02*
X-80532D01*
Y-606520D01*
X-73147D01*
Y-601135D01*
D02*
G37*
G36*
X-108635Y-594480D02*
X-116020D01*
Y-595686D01*
X-124000D01*
X-124886Y-595862D01*
X-125637Y-596363D01*
X-126138Y-597114D01*
X-126314Y-598000D01*
X-126138Y-598886D01*
X-125637Y-599637D01*
X-124886Y-600138D01*
X-124000Y-600314D01*
X-116020D01*
Y-606520D01*
X-108635D01*
Y-600500D01*
Y-594480D01*
D02*
G37*
G36*
X-151385Y-920296D02*
X-156505D01*
X-157194Y-920433D01*
X-157778Y-920823D01*
X-158168Y-921406D01*
X-158305Y-922095D01*
Y-923715D01*
X-151385D01*
Y-920296D01*
D02*
G37*
G36*
Y-937685D02*
X-158305D01*
Y-939305D01*
X-158168Y-939994D01*
X-157778Y-940578D01*
X-157194Y-940968D01*
X-156505Y-941105D01*
X-151385D01*
Y-937685D01*
D02*
G37*
%LPD*%
D12*
X-248765Y-573235D02*
Y-569734D01*
Y-573235D02*
X-248000Y-574000D01*
X-263000Y-556000D02*
X-262500D01*
X-248765Y-569734D01*
X-106000Y-492281D02*
X-92718D01*
X-28000Y-445000D02*
X-16212Y-456788D01*
X-49500Y-475500D02*
X-45000Y-471000D01*
X-62500Y-475500D02*
X-49500D01*
X-36460Y-478750D02*
Y-467164D01*
X-36460Y-462540D02*
X-28000Y-471000D01*
X-39730Y-463894D02*
X-36460Y-467164D01*
X-39730Y-463894D02*
Y-446646D01*
X-36460Y-462540D02*
Y-445291D01*
X-43000Y-465249D02*
Y-448000D01*
Y-465249D02*
X-39730Y-468519D01*
X-51540Y-489206D02*
X-39730Y-477396D01*
Y-468519D01*
X-48270Y-490560D02*
X-36460Y-478750D01*
X-88000Y-419000D02*
X-86918D01*
X-85418Y-420500D01*
X-62500D01*
X2750Y-513750D02*
X3000Y-514000D01*
X17000Y-526000D02*
Y-513334D01*
X-12500Y-513418D02*
X-11000Y-514918D01*
X2750Y-513750D02*
Y-495750D01*
X-11000Y-516000D02*
Y-514918D01*
X-12500Y-513418D02*
Y-495500D01*
X-74828Y-405500D02*
X-62500D01*
X-76000Y-404328D02*
X-74828Y-405500D01*
X-76000Y-404328D02*
Y-390000D01*
X-84000Y-401082D02*
Y-400000D01*
X-81270Y-404730D02*
Y-403812D01*
Y-404730D02*
X-75500Y-410500D01*
X-84000Y-401082D02*
X-81270Y-403812D01*
X-85100Y-411000D02*
X-80600Y-415500D01*
X-86000Y-411000D02*
X-85100D01*
X-80600Y-415500D02*
X-62500D01*
X-75500Y-410500D02*
X-62500D01*
X-144680Y-418227D02*
X-143606D01*
X-141731Y-416352D01*
X-140648D01*
X-109000Y-408565D02*
X-101540Y-416026D01*
X-98270Y-423183D02*
Y-418817D01*
X-101540Y-424537D02*
Y-416026D01*
X-90953Y-430500D02*
X-62500D01*
X-98270Y-423183D02*
X-90953Y-430500D01*
X-101540Y-424537D02*
X-80578Y-445500D01*
X-98270Y-418817D02*
X-98223Y-418770D01*
Y-371676D01*
X-80578Y-445500D02*
X-62500D01*
X-159270Y-432817D02*
X-144680Y-418227D01*
X-98223Y-371676D02*
X-78730Y-352183D01*
X-109000Y-408565D02*
Y-396400D01*
X-144000Y-434000D02*
X-143000D01*
X-133000Y-444000D01*
X-156000Y-437000D02*
X-145000Y-426000D01*
X-144000D01*
X-151817Y-394730D02*
X-91047Y-455500D01*
X-267809Y-394730D02*
X-151817D01*
X-91047Y-455500D02*
X-62500D01*
X-156000Y-457000D02*
Y-437000D01*
X-159270Y-454270D02*
Y-432817D01*
X-182000Y-543000D02*
X-133000Y-494000D01*
Y-444000D01*
X-386899Y-397829D02*
X-270907D01*
X-267809Y-394730D01*
X-402497Y-344497D02*
X-383000Y-325000D01*
X-334469Y-404213D02*
X-332256Y-402000D01*
X-334469Y-404469D02*
Y-404213D01*
X-297000Y-402000D02*
X-293000Y-406000D01*
X-332256Y-402000D02*
X-297000D01*
X-402497Y-396940D02*
X-392476Y-406961D01*
X-402497Y-396940D02*
Y-344497D01*
X-338000Y-407744D02*
X-337743D01*
X-392476Y-406961D02*
X-351552D01*
X-337743Y-407744D02*
X-334469Y-404469D01*
X-183000Y-385000D02*
X-123000D01*
X-109000Y-371000D01*
X-299920Y-369080D02*
X-158672D01*
X-127997Y-338405D01*
X-199977Y-356000D02*
X-190167Y-365810D01*
X-160026D02*
X-129352Y-335135D01*
X-190167Y-365810D02*
X-160026D01*
X-313000Y-356000D02*
X-299920Y-369080D01*
X-127997Y-338405D02*
X-97595D01*
X-129352Y-335135D02*
X-88865D01*
X-97595Y-338405D02*
X-85000Y-351000D01*
X-88865Y-335135D02*
X-84000Y-340000D01*
X-110500Y-598000D02*
X-108000Y-600500D01*
X-124000Y-598000D02*
X-110500D01*
X-102000Y-563000D02*
X-97000D01*
X-110000Y-555000D02*
X-102000Y-563000D01*
X53000Y-430000D02*
X67039D01*
X52500Y-430500D02*
X53000Y-430000D01*
X67039D02*
X67620Y-429419D01*
X69500Y-440500D02*
X74000Y-436000D01*
X52500Y-440500D02*
X69500D01*
X71868Y-445500D02*
X73768Y-443599D01*
X79970D01*
X52500Y-445500D02*
X71868D01*
X-261477Y-834250D02*
X-261126Y-833899D01*
X-244000Y-824000D02*
Y-811000D01*
X-253899Y-833899D02*
X-244000Y-824000D01*
X-261126Y-833899D02*
X-253899D01*
X-323754Y-834000D02*
X-285735D01*
X362270Y-857730D02*
Y-521152D01*
X298730Y-937770D02*
Y-921270D01*
X362270Y-857730D01*
X284975Y-834000D02*
X323000D01*
X41000Y-249772D02*
X42500D01*
X260627Y-832899D02*
X261478Y-833750D01*
X247000Y-826000D02*
X253899Y-832899D01*
X247000Y-783000D02*
X247000Y-826000D01*
X253899Y-832899D02*
X260627D01*
X312000Y-418515D02*
Y-413000D01*
Y-434155D02*
Y-418515D01*
X304000Y-426514D02*
X312000Y-418515D01*
X304000Y-427000D02*
Y-426514D01*
X276250Y-428209D02*
Y-417750D01*
Y-428209D02*
X278158Y-430116D01*
X272500Y-414000D02*
X276250Y-417750D01*
X278158Y-431199D02*
Y-430116D01*
X284000Y-463453D02*
X294087Y-473540D01*
X284000Y-463453D02*
Y-407000D01*
X291950Y-419550D02*
X298000Y-413500D01*
X291950Y-445880D02*
Y-419550D01*
X298000Y-413500D02*
Y-413000D01*
X363000Y-431487D02*
Y-419000D01*
Y-441775D02*
Y-431487D01*
X356000Y-412000D02*
X363000Y-419000D01*
X353114Y-401199D02*
X403915Y-452000D01*
X428750D01*
X333529Y-401199D02*
X353114D01*
X228375Y-384000D02*
X326000D01*
X166774Y-416226D02*
X196149D01*
X228375Y-384000D01*
X220270Y-396730D02*
X358645D01*
X393915Y-432000D01*
X185226Y-431774D02*
X220270Y-396730D01*
X-131235Y-887235D02*
X-128985D01*
X-119000Y-877250D02*
Y-876000D01*
X-128985Y-887235D02*
X-119000Y-877250D01*
X-132000Y-888000D02*
X-131235Y-887235D01*
X-164235Y-927066D02*
X-154250Y-937050D01*
X-164235Y-927066D02*
Y-924765D01*
X-165000Y-924000D02*
X-164235Y-924765D01*
X-154250Y-937050D02*
X-150750D01*
X-16212Y-471288D02*
Y-456788D01*
Y-471288D02*
X-3000Y-484500D01*
X-42500Y-439251D02*
Y-376000D01*
X-45770Y-440606D02*
Y-411520D01*
X-62000Y-441000D02*
X-50000D01*
X-43000Y-448000D01*
X-42500Y-439251D02*
X-36460Y-445291D01*
X-45770Y-440606D02*
X-39730Y-446646D01*
X-56289Y-401000D02*
X-45770Y-411520D01*
X-8773Y-308227D02*
Y-299773D01*
X-1021Y-315979D02*
X39526D01*
X-8773Y-308227D02*
X-1021Y-315979D01*
X-13523Y-304523D02*
X-8773Y-299773D01*
X-17500Y-307000D02*
X-15023Y-304523D01*
X-68000Y-307000D02*
X-17500D01*
X-8773Y-299773D02*
Y-298273D01*
X-15023Y-304523D02*
X-13523D01*
X-191020Y-559980D02*
X-187000Y-564000D01*
X-191020Y-559980D02*
Y-512020D01*
X-149190Y-528513D02*
X-129730Y-509053D01*
X-145000Y-609000D02*
Y-608895D01*
X-149190Y-604705D02*
Y-528513D01*
Y-604705D02*
X-145000Y-608895D01*
X-191020Y-512020D02*
X-182000Y-503000D01*
X-145824Y-540025D02*
X-135400Y-529600D01*
X-145920Y-567080D02*
Y-550643D01*
X-145824Y-550547D02*
Y-540025D01*
X-145920Y-567080D02*
X-131250Y-581750D01*
X-145920Y-550643D02*
X-145824Y-550547D01*
X48290Y-394000D02*
X157000D01*
X195000Y-356000D01*
X157000Y-369000D02*
X170000Y-356000D01*
X79000Y-369000D02*
X157000D01*
X41000Y-290000D02*
X88000Y-337000D01*
X41000Y-290000D02*
Y-259000D01*
X88000Y-337000D02*
X432211D01*
X41000Y-259000D02*
Y-249772D01*
X432211Y-337000D02*
X478270Y-383060D01*
Y-455213D02*
Y-383060D01*
X436483Y-497000D02*
X478270Y-455213D01*
X386422Y-497000D02*
X436483D01*
X362270Y-521152D02*
X386422Y-497000D01*
X291000Y-945500D02*
X298730Y-937770D01*
X291000Y-947000D02*
Y-945500D01*
X309000Y-947000D02*
Y-930000D01*
Y-948500D02*
Y-947000D01*
X304000Y-925000D02*
X309000Y-930000D01*
X359000Y-643000D02*
Y-489254D01*
X343286Y-473540D02*
X359000Y-489254D01*
X300000Y-702000D02*
X359000Y-643000D01*
X294087Y-473540D02*
X343286D01*
X470000Y-446500D02*
Y-390000D01*
X432000Y-452000D02*
X461250D01*
X464500D02*
X470000Y-446500D01*
X461250Y-452000D02*
X464500D01*
X366000Y-376000D02*
X375500Y-385500D01*
X383728D01*
X91476Y-346190D02*
X234305D01*
X43666Y-394000D02*
X91476Y-346190D01*
X234305D02*
X256115Y-368000D01*
X158548Y-416226D02*
X166774D01*
X156000Y-418774D02*
X158548Y-416226D01*
X69460Y-400540D02*
X70000Y-400000D01*
X52540Y-400540D02*
X69460D01*
X80000Y-411000D02*
X89000D01*
X98000Y-420000D01*
X79000Y-380000D02*
Y-369000D01*
X72000Y-387000D02*
X79000Y-380000D01*
X62547Y-339000D02*
X78000D01*
X39526Y-315979D02*
X62547Y-339000D01*
X77875Y-420000D02*
X98000D01*
X100000D01*
X21249Y-321249D02*
X32000Y-332000D01*
X8000Y-320651D02*
Y-320000D01*
X1208Y-306463D02*
X4594Y-309849D01*
X1208Y-306463D02*
Y-223043D01*
X44817Y-314000D02*
X45000D01*
X40666Y-309849D02*
X44817Y-314000D01*
X4594Y-309849D02*
X40666D01*
X8000Y-320651D02*
X8599Y-321249D01*
X21249D01*
X-5500Y-333500D02*
X8000Y-320000D01*
X13387Y-399304D02*
X15000Y-400918D01*
Y-402000D02*
Y-400918D01*
X29540Y-459537D02*
Y-437750D01*
X35000Y-440000D02*
X35765Y-439235D01*
X29540Y-437750D02*
X46290Y-421000D01*
X35765Y-439235D02*
Y-436525D01*
X26270Y-449730D02*
Y-431020D01*
X21000Y-447547D02*
Y-431290D01*
X46290Y-406000D02*
X52000D01*
X26270Y-431020D02*
X46290Y-411000D01*
X21000Y-431290D02*
X46290Y-406000D01*
X17000Y-459000D02*
X26270Y-449730D01*
X27500Y-461577D02*
X29540Y-459537D01*
X2500Y-360399D02*
X7000Y-355899D01*
Y-355000D01*
X17000Y-334000D02*
Y-332000D01*
X2250Y-339750D02*
X13250D01*
X2000Y-340000D02*
X2250Y-339750D01*
X-5730Y-913948D02*
Y-513817D01*
X-68000Y-588000D02*
X-37480Y-618520D01*
X-5730Y-913948D02*
X75800Y-995477D01*
X-37480Y-680480D02*
Y-618520D01*
X-43000Y-731000D02*
X-34210Y-722210D01*
X-30940Y-724740D02*
Y-615811D01*
X-32500Y-609627D02*
X-27670Y-614457D01*
X-24400Y-950077D02*
Y-613102D01*
X-48000Y-691000D02*
X-37480Y-680480D01*
X-21130Y-983207D02*
Y-611748D01*
X-57000Y-594375D02*
Y-493000D01*
X-17500Y-974977D02*
Y-495500D01*
X-35770Y-610981D02*
X-30940Y-615811D01*
X-57000Y-594375D02*
X-34210Y-617165D01*
X-22500Y-610378D02*
X-21130Y-611748D01*
X-34210Y-722210D02*
Y-617165D01*
X-32500Y-609627D02*
Y-495500D01*
X-22500Y-610378D02*
Y-495500D01*
X-27670Y-916947D02*
Y-614457D01*
X-48000Y-741800D02*
X-30940Y-724740D01*
X-35770Y-610981D02*
Y-558939D01*
X-27500Y-610002D02*
X-24400Y-613102D01*
X-27500Y-610002D02*
Y-495500D01*
X-7500Y-512047D02*
X-5730Y-513817D01*
X-17500Y-974977D02*
X3000Y-995477D01*
X-51540Y-592460D02*
X-42039Y-601961D01*
X-41961D01*
X-12000Y-593000D02*
Y-572000D01*
X-76667Y-588000D02*
X-68000D01*
X-51540Y-592460D02*
Y-489206D01*
X-79167Y-585500D02*
X-76667Y-588000D01*
X-75417Y-581750D02*
Y-579750D01*
X-81167Y-585500D02*
X-79167D01*
X-75417Y-579750D02*
X-62500Y-566833D01*
Y-475500D01*
X-108000Y-585500D02*
X-81167D01*
X-108000Y-600500D02*
X-81167D01*
X84667Y-579500D02*
X110672D01*
X112000Y-580829D01*
X141000Y-702000D02*
X300000D01*
X60000Y-806000D02*
Y-783000D01*
X141000Y-702000D01*
X165774Y-431774D02*
X185226D01*
X183792Y-437832D02*
X221624Y-400000D01*
X277000D01*
X150529Y-437832D02*
X183792D01*
X156939Y-431774D02*
X165774D01*
X156713Y-432000D02*
X156939Y-431774D01*
X277000Y-400000D02*
X284000Y-407000D01*
X129375Y-420390D02*
X134265Y-425281D01*
X128985Y-420000D02*
X129375Y-420390D01*
X137978Y-425281D02*
X150529Y-437832D01*
X134265Y-425281D02*
X137978D01*
X298270Y-470270D02*
X346761D01*
X293000Y-465000D02*
X298270Y-470270D01*
X346761D02*
X362743Y-454288D01*
X317000Y-446230D02*
X317350Y-445880D01*
X317000Y-465000D02*
Y-446230D01*
X47515Y-837000D02*
X51515Y-833000D01*
X5000Y-837000D02*
X47515D01*
X51515Y-833000D02*
X52000D01*
X31480Y-800480D02*
X159000Y-928000D01*
Y-973000D02*
Y-928000D01*
X31480Y-800480D02*
Y-631010D01*
X-141000Y-877000D02*
X-99000Y-835000D01*
X-72270Y-851520D02*
Y-739270D01*
X-95500Y-874750D02*
X-72270Y-851520D01*
X-64000Y-731000D02*
X-43000D01*
X-72270Y-739270D02*
X-64000Y-731000D01*
X-141000Y-888813D02*
Y-877000D01*
X-128270Y-924760D02*
X-116310Y-912800D01*
X-100250Y-882000D02*
X-95500Y-877250D01*
X-116310Y-896832D02*
X-101478Y-882000D01*
X-95500Y-877250D02*
Y-876000D01*
X-116310Y-912800D02*
Y-896832D01*
X-101478Y-882000D02*
X-100250D01*
X-141000Y-888813D02*
X-126291Y-903522D01*
Y-905022D02*
Y-903522D01*
X-69800Y-995477D02*
X-24400Y-950077D01*
X-106200Y-995477D02*
X-27670Y-916947D01*
X-33400Y-995477D02*
X-21130Y-983207D01*
X-37500Y-557209D02*
X-35770Y-558939D01*
X-66000Y-683000D02*
X-57441D01*
X-49441Y-691000D02*
X-48000D01*
X-57441Y-683000D02*
X-49441Y-691000D01*
X-263000Y-542000D02*
Y-530041D01*
X-245000Y-512041D01*
Y-503000D01*
X-117400Y-573000D02*
X-82000D01*
X113025Y-615975D02*
X187000Y-542000D01*
X46515Y-615975D02*
X113025D01*
X31480Y-631010D02*
X46515Y-615975D01*
X187000Y-542000D02*
Y-524016D01*
X165273Y-513522D02*
Y-456022D01*
Y-454022D01*
X312000Y-434155D02*
X332199Y-413956D01*
X304650Y-441505D02*
X312000Y-434155D01*
X304650Y-445880D02*
Y-441505D01*
X332199Y-413956D02*
Y-402529D01*
X333529Y-401199D01*
X393915Y-432000D02*
X428750D01*
X461250D01*
X293000Y-465000D02*
Y-446930D01*
X428750Y-452000D02*
X432000D01*
X434000Y-454000D01*
Y-465386D02*
Y-454000D01*
Y-465386D02*
X436250Y-467636D01*
Y-483522D02*
Y-467636D01*
X411978Y-390250D02*
X412228Y-390000D01*
X450000D01*
X268270Y-559270D02*
X294183D01*
X304900Y-548553D02*
Y-538000D01*
X294183Y-559270D02*
X304900Y-548553D01*
X265000Y-556000D02*
X268270Y-559270D01*
X362743Y-454288D02*
X363000D01*
X339257Y-407744D02*
X363000Y-431487D01*
X339000Y-407744D02*
X339257D01*
X35020Y-407270D02*
X48290Y-394000D01*
X100000Y-420000D02*
X128985D01*
X115000Y-464772D02*
X143523D01*
X155667Y-444417D02*
X165273Y-454022D01*
X130266Y-433671D02*
X141011Y-444417D01*
X75000Y-465000D02*
X84008Y-474008D01*
X113000Y-464772D02*
X115000D01*
X129375Y-433671D02*
X130266D01*
X98728Y-450500D02*
X113000Y-464772D01*
X141011Y-444417D02*
X155667D01*
X52500Y-450500D02*
X98728D01*
X78500Y-455500D02*
X115000Y-492000D01*
X84008Y-524303D02*
Y-474008D01*
X52500Y-455500D02*
X78500D01*
X265500Y-542000D02*
X269500Y-538000D01*
Y-532500D02*
X282000Y-520000D01*
X265000Y-542000D02*
X265500D01*
X269500Y-538000D02*
Y-532500D01*
X291950Y-445880D02*
X293000Y-446930D01*
X84008Y-524303D02*
X96000Y-536295D01*
Y-538295D02*
Y-536295D01*
X64453Y-471000D02*
X74270Y-480817D01*
X61500Y-475500D02*
X69000Y-483000D01*
X67000Y-540000D02*
X74270Y-532730D01*
Y-480817D01*
X53000Y-471000D02*
X64453D01*
X-299650Y-455350D02*
Y-445880D01*
Y-455350D02*
X-294000Y-461000D01*
X-383000Y-325000D02*
X-88000D01*
X-351552Y-406961D02*
X-338256Y-420257D01*
X-338000D01*
X-394477Y-390250D02*
X-386899Y-397829D01*
X-293000Y-426779D02*
Y-406000D01*
X-299650Y-433429D02*
X-293000Y-426779D01*
X-299650Y-445880D02*
Y-433429D01*
X-312350Y-441505D02*
X-301250Y-430405D01*
Y-413000D01*
X-312350Y-445880D02*
Y-441505D01*
X-325000Y-465000D02*
Y-445930D01*
X-325050Y-450255D02*
Y-445880D01*
X-263000Y-542000D02*
X-240000D01*
X-356000Y-454288D02*
X-329083D01*
X-325050Y-450255D01*
X-150750Y-937050D02*
Y-924350D01*
X-283500Y-912500D02*
X-269250Y-926750D01*
X-252978D01*
X-286250Y-912500D02*
X-283500D01*
X-252978Y-926750D02*
X-228000D01*
X-128270Y-933000D02*
Y-924760D01*
X-293540Y-955250D02*
X-282000D01*
X-315720Y-966020D02*
X-304310D01*
X-293540Y-955250D01*
X-186000Y-994061D02*
X-161211D01*
X-161000Y-994272D01*
X-210250Y-994061D02*
X-186000D01*
X-239000Y-992811D02*
X-211500D01*
X-210250Y-994061D01*
X-322279Y-959461D02*
X-315720Y-966020D01*
X-339000Y-959461D02*
X-322279D01*
X-369000Y-958000D02*
X-340461D01*
X-339000Y-959461D01*
X84000Y-542000D02*
X92295D01*
X96000Y-538295D01*
X48000Y-578000D02*
X84000Y-542000D01*
X-135400Y-555000D02*
X-117400Y-573000D01*
X-110000Y-555000D02*
Y-529600D01*
X-131250Y-581750D02*
X-111750D01*
X-108000Y-585500D01*
X-37500Y-557209D02*
Y-495500D01*
X-79167Y-585500D02*
X-75417Y-581750D01*
X-92718Y-492281D02*
X-73000Y-512000D01*
X-76000Y-544000D02*
X-73000Y-541000D01*
Y-512000D01*
X-11000Y-945077D02*
X39400Y-995477D01*
X-11000Y-945077D02*
Y-918000D01*
X-46495Y-527235D02*
Y-522775D01*
X-48270Y-521000D02*
Y-490560D01*
Y-521000D02*
X-46495Y-522775D01*
Y-527235D02*
X-45730Y-528000D01*
X-62500Y-440500D02*
X-62000Y-441000D01*
X-42500Y-515500D02*
Y-495500D01*
X-43000Y-516000D02*
X-42500Y-515500D01*
X-110000Y-529600D02*
X-95600Y-544000D01*
X-76000D01*
X-105109Y-479000D02*
X-96609Y-470500D01*
X-62500D01*
X-106000Y-479000D02*
X-105109D01*
X-108006Y-460500D02*
X-62500D01*
X-115051Y-499149D02*
X-84600Y-529600D01*
X-115051Y-499149D02*
Y-472169D01*
X-108382Y-465500D01*
X-62500D01*
X-129730Y-509053D02*
Y-482224D01*
X-108006Y-460500D01*
X-80300Y-450500D02*
X-62500D01*
X-109000Y-421800D02*
X-80300Y-450500D01*
X-418228Y-390000D02*
X-417977Y-390250D01*
X-456000Y-390000D02*
X-418228D01*
X-356000Y-441775D02*
X-355743D01*
X-356256D02*
X-356000D01*
X-341531Y-423788D02*
Y-423531D01*
X-352469Y-434726D02*
X-341531Y-423788D01*
X-352469Y-438500D02*
Y-434726D01*
X-355743Y-441775D02*
X-352469Y-438500D01*
X-341531Y-423531D02*
X-338256Y-420257D01*
X-368482Y-454000D02*
X-356256Y-441775D01*
X-419219Y-454000D02*
X-368482D01*
X-182000Y-483000D02*
X-156000Y-457000D01*
X-168000Y-463000D02*
X-159270Y-454270D01*
X-182000Y-463000D02*
X-168000D01*
X-408744Y-484773D02*
X-401773D01*
X-397000Y-480000D01*
X-78730Y-236730D02*
X-46270Y-204270D01*
X-78730Y-352183D02*
Y-236730D01*
X-62500Y-400500D02*
X-62000Y-401000D01*
X-56289D01*
X2500Y-495500D02*
X2750Y-495750D01*
X10000Y-520000D02*
Y-510959D01*
X70000Y-953278D02*
Y-908000D01*
Y-953278D02*
X112200Y-995477D01*
X-7500Y-512047D02*
Y-495500D01*
X-269460Y-456500D02*
X-268750D01*
X-280500Y-445460D02*
Y-414000D01*
Y-445460D02*
X-269460Y-456500D01*
X-268750D02*
X-263000Y-462250D01*
X-325050Y-441505D02*
X-315250Y-431705D01*
X-325050Y-445880D02*
Y-441505D01*
X-315250Y-431705D02*
Y-413000D01*
X-35000Y-364082D02*
Y-363270D01*
X-27500Y-380500D02*
Y-352500D01*
X-28000Y-352000D02*
X-27500Y-352500D01*
X-32500Y-380500D02*
Y-366582D01*
X-40270Y-368183D02*
X-37500Y-370953D01*
X-40270Y-352117D02*
X-37500Y-349347D01*
X-35000Y-364082D02*
X-32500Y-366582D01*
X-40270Y-368183D02*
Y-352117D01*
X-24359Y-345544D02*
X-22500Y-347404D01*
Y-380500D02*
Y-347404D01*
X-24359Y-345544D02*
Y-333500D01*
X-37500Y-349347D02*
Y-333641D01*
Y-380500D02*
Y-370953D01*
X17000Y-357000D02*
Y-336000D01*
X-50000Y-363000D02*
X-49500Y-363500D01*
Y-369000D02*
X-42500Y-376000D01*
X-49500Y-369000D02*
Y-363500D01*
X17000Y-336000D02*
Y-334000D01*
X13250Y-339750D02*
X17000Y-336000D01*
X383728Y-385500D02*
X388478Y-390250D01*
X44000Y-475000D02*
X52000D01*
X32750Y-464250D02*
X33000Y-464000D01*
X32750Y-495250D02*
Y-464250D01*
X33000Y-464000D02*
X44000Y-475000D01*
X27500Y-495500D02*
Y-461577D01*
X12817Y-407270D02*
X35020D01*
X18000Y-391000D02*
Y-381000D01*
X21000Y-394000D02*
X43666D01*
X18000Y-391000D02*
X21000Y-394000D01*
X-2500Y-391953D02*
X12817Y-407270D01*
X-12500Y-391959D02*
Y-380500D01*
Y-391959D02*
X-9000Y-395459D01*
Y-403000D02*
Y-395459D01*
X-17000Y-397000D02*
Y-390326D01*
X-17500Y-389826D02*
X-17000Y-390326D01*
X-17500Y-389826D02*
Y-380500D01*
X296022Y-368000D02*
X308023Y-356000D01*
X256115Y-368000D02*
X296022D01*
X12500Y-398241D02*
X13387Y-399128D01*
X12500Y-398241D02*
Y-380500D01*
X13387Y-399304D02*
Y-399128D01*
X-2500Y-391953D02*
Y-380500D01*
X52500Y-400500D02*
X52540Y-400540D01*
X17500Y-380500D02*
X18000Y-381000D01*
X-24359Y-333500D02*
X-5500D01*
X9228Y-298000D02*
Y-263545D01*
X32000Y-334000D02*
Y-332000D01*
X32500Y-495500D02*
X32750Y-495250D01*
X32500Y-535500D02*
Y-495500D01*
X52000Y-475000D02*
X52500Y-475500D01*
X61500D01*
X20273Y-448274D02*
X21000Y-447547D01*
X35765Y-436525D02*
X46290Y-426000D01*
X22000Y-565000D02*
X49000Y-538000D01*
Y-504000D01*
X24000Y-703000D02*
Y-701918D01*
X22000Y-699918D02*
Y-565000D01*
Y-699918D02*
X24000Y-701918D01*
X18730Y-708730D02*
X19000Y-709000D01*
X18730Y-708730D02*
Y-563646D01*
X43000Y-539376D01*
Y-513000D01*
X59000Y-543918D02*
Y-513000D01*
Y-543918D02*
X62000Y-546918D01*
Y-548000D02*
Y-546918D01*
X46290Y-411000D02*
X52000D01*
X52500Y-410500D01*
X73765Y-570599D02*
X82667Y-579500D01*
X84667D01*
X33172Y-537828D02*
Y-536172D01*
X33000Y-538000D02*
X33172Y-537828D01*
X32500Y-535500D02*
X33172Y-536172D01*
X52000Y-406000D02*
X52500Y-405500D01*
X73375Y-415500D02*
X77875Y-420000D01*
X52500Y-415500D02*
X73375D01*
X52500Y-420500D02*
X70500D01*
X81250Y-431250D01*
X96250D01*
X100000Y-435000D01*
X219650Y-1041650D02*
X257000Y-1079000D01*
X443000D02*
X447000Y-1075000D01*
X257000Y-1079000D02*
X443000D01*
X186250Y-1041650D02*
X219650D01*
X461000Y-1075000D02*
Y-1045000D01*
X457500Y-1041500D02*
X461000Y-1045000D01*
X456000Y-1041500D02*
X457500D01*
X452172Y-1011828D02*
Y-1007000D01*
X451000Y-1013000D02*
X452172Y-1011828D01*
X454672Y-1004500D02*
X456000D01*
X452172Y-1007000D02*
X454672Y-1004500D01*
X309000Y-948500D02*
X313750Y-953250D01*
X315250D01*
X375000Y-1013000D01*
X451000D01*
X291000Y-983000D02*
Y-947000D01*
Y-983000D02*
X299000Y-991000D01*
X296800Y-1064800D02*
Y-1059799D01*
X213000Y-978000D02*
X215000D01*
X296800Y-1059799D01*
Y-1064800D02*
X299000Y-1067000D01*
X186250Y-1041650D02*
X191000Y-1036900D01*
Y-987500D01*
X159000Y-987000D02*
X190499D01*
X191000Y-987500D01*
X189000Y-968500D02*
X191000D01*
X159000Y-973000D02*
X184500D01*
X189000Y-968500D01*
X150272Y-458022D02*
Y-456022D01*
X143523Y-464772D02*
X150272Y-458022D01*
X-95500Y-876000D02*
Y-874750D01*
X46290Y-426000D02*
X52000D01*
X52500Y-425500D01*
X46290Y-421000D02*
X52000D01*
X52500Y-420500D01*
X24000Y-532000D02*
Y-524223D01*
X21960Y-522183D02*
X24000Y-524223D01*
X17500Y-509210D02*
X21960Y-513670D01*
X26915Y-519684D02*
Y-514000D01*
X21960Y-522183D02*
Y-513670D01*
X12500Y-508834D02*
X17000Y-513334D01*
X22500Y-509586D02*
X26915Y-514000D01*
Y-519684D02*
X27230Y-520000D01*
X156000Y-431287D02*
X156713Y-432000D01*
X76169Y-1077000D02*
X112622D01*
X39716D02*
X76169D01*
X3264D02*
X39716D01*
X-33189D02*
X3264D01*
X-69642D02*
X-33189D01*
X-106094D02*
X-69642D01*
X112200Y-1056578D02*
Y-1018977D01*
Y-1056578D02*
X112622Y-1057000D01*
X75800Y-1056631D02*
X76169Y-1057000D01*
X75800Y-1056631D02*
Y-1018977D01*
X39400Y-1056684D02*
X39716Y-1057000D01*
X39400Y-1056684D02*
Y-1018977D01*
X3000Y-1056736D02*
Y-1018977D01*
Y-1056736D02*
X3264Y-1057000D01*
X-33400Y-1056789D02*
Y-1018977D01*
Y-1056789D02*
X-33189Y-1057000D01*
X-69800Y-1056842D02*
X-69642Y-1057000D01*
X-69800Y-1056842D02*
Y-1018977D01*
X-106200Y-1056895D02*
X-106094Y-1057000D01*
X-106200Y-1056895D02*
Y-1018977D01*
X115000Y-504773D02*
Y-492000D01*
X52500Y-470500D02*
X53000Y-471000D01*
X449379Y-1039379D02*
X453879D01*
X456000Y-1041500D01*
X437000Y-1027000D02*
X449379Y-1039379D01*
X22500Y-509586D02*
Y-495500D01*
X242082Y-539000D02*
X245082Y-542000D01*
X265000D01*
X241000Y-539000D02*
X242082D01*
X17500Y-509210D02*
Y-495500D01*
X408082Y-485000D02*
X409560Y-483522D01*
X422250D01*
X407000Y-485000D02*
X408082D01*
X12500Y-508834D02*
Y-495500D01*
X-2500Y-484500D02*
X10500D01*
X-2500Y-495500D02*
Y-484500D01*
X10500Y-484500D02*
X12000Y-486000D01*
Y-495000D02*
Y-486000D01*
X-263000Y-542000D02*
X-263000Y-542000D01*
X-325050Y-445880D02*
X-325000Y-445930D01*
X7500Y-508459D02*
Y-495500D01*
Y-508459D02*
X10000Y-510959D01*
X12000Y-495000D02*
X12500Y-495500D01*
X-419257Y-454000D02*
X-419219D01*
X-421256Y-456000D02*
X-419257Y-454000D01*
X-421256Y-484773D02*
Y-456000D01*
X-408000Y-426031D02*
Y-425000D01*
X-419219Y-434000D02*
X-415969D01*
X-408000Y-426031D01*
X115000Y-504773D02*
X143523D01*
X150272Y-511522D01*
Y-513522D02*
Y-511522D01*
X-27917Y-186000D02*
X-9000D01*
X-33000Y-180918D02*
Y-180000D01*
Y-180918D02*
X-27917Y-186000D01*
X-24235Y-178765D02*
Y-174765D01*
X-25000Y-174000D02*
X-24235Y-174765D01*
Y-178765D02*
X-22000Y-181000D01*
X-7750D01*
X-37000Y-199000D02*
X-26293D01*
X-37000Y-188000D02*
X-35918D01*
X-32918Y-191000D02*
X-9000D01*
X-35918Y-188000D02*
X-32918Y-191000D01*
X100000Y-435000D02*
X128046D01*
X129375Y-433671D01*
X-2000Y-219835D02*
X1208Y-223043D01*
X-8773Y-298273D02*
Y-263545D01*
Y-229273D01*
X-23669Y-201000D02*
X-9000D01*
X-26293Y-199000D02*
X-23294Y-196000D01*
X-46270Y-204270D02*
X-26939D01*
X-23669Y-201000D01*
X-23294Y-196000D02*
X-9000D01*
X-13523Y-223023D02*
X-8773Y-227773D01*
X-15023Y-223023D02*
X-13523D01*
X-35000Y-217000D02*
X-21045D01*
X-8773Y-229273D02*
Y-227773D01*
X-21045Y-217000D02*
X-15023Y-223023D01*
X-39773Y-231000D02*
X-29000D01*
X-40545Y-231772D02*
X-39773Y-231000D01*
X-40545Y-258372D02*
Y-249772D01*
Y-258372D02*
X-39000Y-259918D01*
Y-261000D02*
Y-259918D01*
X41000Y-249772D02*
X41000Y-249772D01*
X9000Y-243545D02*
X9228Y-243772D01*
X9000Y-244000D02*
X9228Y-244228D01*
X9000Y-243545D02*
Y-229500D01*
X9228Y-263545D02*
Y-244228D01*
X9000Y-229500D02*
X9228Y-229273D01*
X27500Y-380500D02*
Y-362500D01*
X17000Y-357000D02*
X22500Y-362500D01*
Y-380500D02*
Y-362500D01*
X27500Y-362500D02*
X33000Y-357000D01*
X7500Y-367582D02*
X11000Y-364082D01*
X7500Y-380500D02*
Y-367582D01*
X2500Y-380500D02*
Y-360399D01*
X3135Y-215135D02*
X3270Y-215270D01*
X3135Y-215135D02*
Y-203135D01*
X32500Y-363500D02*
X41000Y-355000D01*
X32500Y-380500D02*
Y-363500D01*
X33000Y-357000D02*
Y-335000D01*
X3000Y-203000D02*
X3135Y-203135D01*
X-2000Y-219835D02*
Y-203000D01*
X9228Y-229273D02*
Y-205478D01*
X8000Y-204250D02*
X9228Y-205478D01*
X8000Y-204250D02*
Y-203000D01*
X38500Y-229273D02*
X41000Y-231772D01*
X9228Y-229273D02*
X38500D01*
X-7250Y-180500D02*
Y-180172D01*
X-6078Y-179000D02*
X-2000D01*
X-7750Y-181000D02*
X-7250Y-180500D01*
Y-180172D02*
X-6078Y-179000D01*
X-2000D02*
X3000D01*
X2000Y-165000D02*
X8000Y-171000D01*
Y-179000D02*
Y-171000D01*
X2000Y-165000D02*
X2000D01*
X-8773Y-154228D02*
Y-152728D01*
Y-154228D02*
X2000Y-165000D01*
X9228Y-154228D02*
X15000Y-160000D01*
Y-181000D02*
Y-160000D01*
X9228Y-154228D02*
Y-152728D01*
X13250Y-201500D02*
X13750Y-201000D01*
X13250Y-201828D02*
Y-201500D01*
X12079Y-203000D02*
X13250Y-201828D01*
X13750Y-201000D02*
X15000D01*
X8000Y-203000D02*
X12079D01*
X15000Y-201000D02*
Y-196000D01*
Y-191000D01*
Y-186000D01*
Y-181000D01*
X32000Y-334000D02*
X33000Y-335000D01*
X-37641Y-333500D02*
X-37500Y-333641D01*
D17*
X52500Y-475500D02*
D03*
Y-470500D02*
D03*
Y-465500D02*
D03*
Y-460500D02*
D03*
Y-455500D02*
D03*
Y-450500D02*
D03*
Y-445500D02*
D03*
Y-440500D02*
D03*
Y-435500D02*
D03*
Y-430500D02*
D03*
Y-425500D02*
D03*
Y-420500D02*
D03*
Y-415500D02*
D03*
Y-410500D02*
D03*
Y-405500D02*
D03*
Y-400500D02*
D03*
X-62500D02*
D03*
Y-405500D02*
D03*
Y-410500D02*
D03*
Y-415500D02*
D03*
Y-420500D02*
D03*
Y-425500D02*
D03*
Y-430500D02*
D03*
Y-435500D02*
D03*
Y-440500D02*
D03*
Y-445500D02*
D03*
Y-450500D02*
D03*
Y-455500D02*
D03*
Y-460500D02*
D03*
Y-465500D02*
D03*
Y-470500D02*
D03*
Y-475500D02*
D03*
D18*
X32500Y-380500D02*
D03*
X27500D02*
D03*
X22500D02*
D03*
X17500D02*
D03*
X12500D02*
D03*
X7500D02*
D03*
X2500D02*
D03*
X-2500D02*
D03*
X-7500D02*
D03*
X-12500D02*
D03*
X-17500D02*
D03*
X-22500D02*
D03*
X-27500D02*
D03*
X-32500D02*
D03*
X-37500D02*
D03*
X-42500D02*
D03*
Y-495500D02*
D03*
X-37500D02*
D03*
X-32500D02*
D03*
X-27500D02*
D03*
X-22500D02*
D03*
X-17500D02*
D03*
X-12500D02*
D03*
X-7500D02*
D03*
X-2500D02*
D03*
X2500D02*
D03*
X7500D02*
D03*
X12500D02*
D03*
X17500D02*
D03*
X22500D02*
D03*
X27500D02*
D03*
X32500D02*
D03*
D19*
X261478Y-834250D02*
D03*
X284978D02*
D03*
X-284977Y-834250D02*
D03*
X-261477D02*
D03*
X411978Y-390250D02*
D03*
X388478D02*
D03*
X-417977D02*
D03*
X-394477D02*
D03*
D20*
X343000Y-834000D02*
D03*
X323000D02*
D03*
X450000Y-390000D02*
D03*
X470000D02*
D03*
X-323000Y-834000D02*
D03*
X-343000D02*
D03*
X-456000Y-390000D02*
D03*
X-476000D02*
D03*
D21*
X-9000Y-181000D02*
D03*
Y-186000D02*
D03*
Y-191000D02*
D03*
Y-196000D02*
D03*
Y-201000D02*
D03*
X15000D02*
D03*
Y-196000D02*
D03*
Y-191000D02*
D03*
Y-186000D02*
D03*
Y-181000D02*
D03*
D22*
X-2000Y-203000D02*
D03*
X3000D02*
D03*
X8000D02*
D03*
Y-179000D02*
D03*
X3000D02*
D03*
X-2000D02*
D03*
D23*
X-24359Y-333500D02*
D03*
X-37641D02*
D03*
D24*
X32000Y-334000D02*
D03*
X17000D02*
D03*
X257500Y-414000D02*
D03*
X272500D02*
D03*
X-265500D02*
D03*
X-280500D02*
D03*
X111000Y-538295D02*
D03*
X96000D02*
D03*
X165273Y-513522D02*
D03*
X150272D02*
D03*
X165273Y-456022D02*
D03*
X150272D02*
D03*
D25*
X159000Y-987000D02*
D03*
Y-973000D02*
D03*
X265000Y-556000D02*
D03*
Y-542000D02*
D03*
X-263000Y-556000D02*
D03*
Y-542000D02*
D03*
D26*
X191000Y-968500D02*
D03*
Y-987500D02*
D03*
X213000Y-978000D02*
D03*
D27*
X-40545Y-231772D02*
D03*
Y-249772D02*
D03*
X41000Y-231772D02*
D03*
Y-249772D02*
D03*
D28*
X9228Y-152728D02*
D03*
X-8773D02*
D03*
X9228Y-298273D02*
D03*
X-8773D02*
D03*
X9228Y-263545D02*
D03*
X-8773D02*
D03*
X9228Y-229273D02*
D03*
X-8773D02*
D03*
X-108290Y-905022D02*
D03*
X-126291D02*
D03*
X291000Y-947000D02*
D03*
X309000D02*
D03*
D29*
X363000Y-441775D02*
D03*
Y-454288D02*
D03*
X339000Y-407744D02*
D03*
Y-420257D02*
D03*
X-356000Y-441775D02*
D03*
Y-454288D02*
D03*
X-338000Y-420257D02*
D03*
Y-407744D02*
D03*
X156000Y-418774D02*
D03*
Y-431287D02*
D03*
D30*
X312000Y-413000D02*
D03*
X298000D02*
D03*
X-301250D02*
D03*
X-315250D02*
D03*
X447000Y-1075000D02*
D03*
X461000D02*
D03*
X422250Y-483522D02*
D03*
X436250D02*
D03*
D31*
X233000Y-487000D02*
D03*
Y-515000D02*
D03*
X-229250Y-487000D02*
D03*
Y-515000D02*
D03*
X-252978Y-926750D02*
D03*
Y-898750D02*
D03*
X-228000Y-926750D02*
D03*
Y-898750D02*
D03*
X-210250Y-994061D02*
D03*
Y-966061D02*
D03*
X-186000Y-994061D02*
D03*
Y-966061D02*
D03*
D32*
X233000Y-446000D02*
D03*
Y-462000D02*
D03*
X-230000Y-446000D02*
D03*
Y-462000D02*
D03*
D33*
X267000Y-445750D02*
D03*
Y-462250D02*
D03*
Y-492750D02*
D03*
Y-509250D02*
D03*
X-263000Y-445750D02*
D03*
Y-462250D02*
D03*
Y-492750D02*
D03*
Y-509250D02*
D03*
D34*
X-286950Y-500120D02*
D03*
X-299650D02*
D03*
X-312350D02*
D03*
X-325050D02*
D03*
Y-445880D02*
D03*
X-312350D02*
D03*
X-299650D02*
D03*
X-286950D02*
D03*
X330050Y-500120D02*
D03*
X317350D02*
D03*
X304650D02*
D03*
X291950D02*
D03*
Y-445880D02*
D03*
X304650D02*
D03*
X317350D02*
D03*
X330050D02*
D03*
D35*
X-287200Y-538000D02*
D03*
X-299900D02*
D03*
X-312600D02*
D03*
X-325300D02*
D03*
Y-592000D02*
D03*
X-312600D02*
D03*
X-299900D02*
D03*
X-287200D02*
D03*
X330300Y-538000D02*
D03*
X317600D02*
D03*
X304900D02*
D03*
X292200D02*
D03*
Y-592000D02*
D03*
X304900D02*
D03*
X317600D02*
D03*
X330300D02*
D03*
D36*
X-83730Y-933000D02*
D03*
X-128270D02*
D03*
D37*
X-119000Y-876000D02*
D03*
X-95500D02*
D03*
D38*
X-282000Y-955250D02*
D03*
X-310000D02*
D03*
D39*
X-339000Y-959461D02*
D03*
Y-944918D02*
D03*
X-161000Y-994272D02*
D03*
Y-979728D02*
D03*
D40*
X-369000Y-924000D02*
D03*
Y-958000D02*
D03*
X-239000Y-958811D02*
D03*
Y-992811D02*
D03*
D41*
X-315750Y-922000D02*
D03*
Y-903000D02*
D03*
X-286250D02*
D03*
Y-912500D02*
D03*
Y-922000D02*
D03*
D42*
X-203250Y-898950D02*
D03*
Y-911650D02*
D03*
Y-924350D02*
D03*
Y-937050D02*
D03*
X-150750Y-898950D02*
D03*
Y-911650D02*
D03*
Y-924350D02*
D03*
Y-937050D02*
D03*
D43*
X-322000Y-1070400D02*
D03*
Y-999400D02*
D03*
D44*
X396000Y-1004500D02*
D03*
X456000D02*
D03*
X396000Y-1041500D02*
D03*
X456000D02*
D03*
D45*
X426000Y-998000D02*
D03*
Y-1048000D02*
D03*
D46*
X129375Y-433671D02*
D03*
Y-420390D02*
D03*
X112000Y-594110D02*
D03*
Y-580829D02*
D03*
X-106000Y-492281D02*
D03*
Y-479000D02*
D03*
D47*
X100000Y-435000D02*
D03*
Y-420000D02*
D03*
X-108000Y-600500D02*
D03*
Y-585500D02*
D03*
X-81167Y-600500D02*
D03*
Y-585500D02*
D03*
X84667Y-594500D02*
D03*
Y-579500D02*
D03*
D48*
X-451719Y-434000D02*
D03*
X-419219D02*
D03*
X-451719Y-454000D02*
D03*
X-419219D02*
D03*
X428750Y-432000D02*
D03*
X461250D02*
D03*
X428750Y-452000D02*
D03*
X461250D02*
D03*
D49*
X-435469Y-427500D02*
D03*
Y-460500D02*
D03*
X445000Y-425500D02*
D03*
Y-458500D02*
D03*
D50*
X-421256Y-484773D02*
D03*
X-408744D02*
D03*
D51*
X115000Y-504773D02*
D03*
Y-464772D02*
D03*
D52*
X112622Y-1057000D02*
D03*
Y-1077000D02*
D03*
X76169Y-1057000D02*
D03*
Y-1077000D02*
D03*
X39716Y-1057000D02*
D03*
Y-1077000D02*
D03*
X3264Y-1057000D02*
D03*
Y-1077000D02*
D03*
X-33189Y-1057000D02*
D03*
Y-1077000D02*
D03*
X-69642Y-1057000D02*
D03*
Y-1077000D02*
D03*
X-106094Y-1057000D02*
D03*
Y-1077000D02*
D03*
D53*
X-387000Y-1079250D02*
D03*
Y-1060250D02*
D03*
D54*
X-411000Y-1077500D02*
D03*
Y-1042500D02*
D03*
D55*
X112200Y-1018977D02*
D03*
Y-995477D02*
D03*
X75800Y-1018977D02*
D03*
Y-995477D02*
D03*
X39400Y-1018977D02*
D03*
Y-995477D02*
D03*
X3000Y-1018977D02*
D03*
Y-995477D02*
D03*
X-33400Y-1018977D02*
D03*
Y-995477D02*
D03*
X-69800Y-1018977D02*
D03*
Y-995477D02*
D03*
X-106200Y-1018977D02*
D03*
Y-995477D02*
D03*
D88*
X299000Y-1067000D02*
D03*
X-182000Y-443000D02*
D03*
Y-463000D02*
D03*
Y-483000D02*
D03*
Y-503000D02*
D03*
Y-523000D02*
D03*
Y-543000D02*
D03*
D89*
X299000Y-991000D02*
D03*
X-182000Y-423000D02*
D03*
D98*
X-158000Y-419000D02*
Y-400000D01*
X-182000Y-443000D02*
X-158000Y-419000D01*
X-195790Y-567784D02*
X-145574Y-618000D01*
X-195790Y-567784D02*
Y-529878D01*
X-145574Y-618000D02*
X-126259D01*
X-223250Y-502418D02*
X-195790Y-529878D01*
X-126259Y-618000D02*
X-47000D01*
X349230Y-564071D02*
Y-486230D01*
X346301Y-567000D02*
X349230Y-564071D01*
X328000Y-567000D02*
X346301D01*
X311000Y-481000D02*
X344000D01*
X349230Y-486230D01*
X-83570Y-913962D02*
X-83410Y-913802D01*
X-83730Y-933000D02*
X-83570Y-932840D01*
Y-913962D01*
X-79330Y-634270D02*
X-48000Y-665600D01*
X-226000Y-628000D02*
X-60200D01*
X-303730Y-634270D02*
X-79330D01*
X-60200Y-628000D02*
X-48000Y-640200D01*
X-322000Y-1060400D02*
Y-1035561D01*
Y-1070400D02*
Y-1060400D01*
X-245250Y-958811D02*
X-239000D01*
X-322000Y-1035561D02*
X-245250Y-958811D01*
X318000Y-577000D02*
X328000Y-567000D01*
X331000Y-612000D02*
Y-611729D01*
X330300Y-611029D02*
X331000Y-611729D01*
X330300Y-611029D02*
Y-592000D01*
X317600Y-556800D02*
Y-538000D01*
X288000Y-568000D02*
X306400D01*
X317600Y-556800D01*
X331000Y-555000D02*
Y-554729D01*
X330300Y-554029D02*
Y-538000D01*
Y-554029D02*
X331000Y-554729D01*
X292100Y-611900D02*
Y-592100D01*
X292000Y-612000D02*
X292100Y-611900D01*
Y-592100D02*
X292200Y-592000D01*
X281000Y-643000D02*
X304900Y-619100D01*
Y-592000D01*
X64600Y-643000D02*
X281000D01*
X-67000Y-892000D02*
Y-812000D01*
X-79327Y-904327D02*
X-67000Y-892000D01*
X-161000Y-979728D02*
X-101728D01*
X-147250Y-911650D02*
X-139929Y-918971D01*
X-150750Y-911650D02*
X-147250D01*
X-139929Y-944494D02*
X-134622Y-949801D01*
X-118722D01*
X-139929Y-944494D02*
Y-918971D01*
X-101728Y-979728D02*
X-67000Y-945000D01*
X-170311Y-979728D02*
X-161000D01*
X-299900Y-554100D02*
X-226000Y-628000D01*
X-312600Y-625400D02*
Y-592000D01*
Y-625400D02*
X-303730Y-634270D01*
X217000Y-487000D02*
X229250D01*
X-225500D02*
X-223250Y-489250D01*
X-225625Y-486875D02*
X-225500Y-487000D01*
X-244500Y-486875D02*
X-225625D01*
X-223250Y-502418D02*
Y-489250D01*
X227000D02*
X229250Y-487000D01*
X227000Y-502418D02*
Y-489250D01*
X59000Y-622000D02*
X113746D01*
X229250Y-487000D02*
X233000D01*
X191770Y-537648D02*
X227000Y-502418D01*
X191770Y-543976D02*
Y-537648D01*
X113746Y-622000D02*
X191770Y-543976D01*
X219270Y-636730D02*
X288000Y-568000D01*
X292000Y-554000D02*
X292200Y-553800D01*
Y-538000D01*
X292075Y-537875D02*
Y-500245D01*
Y-537875D02*
X292200Y-538000D01*
X291950Y-500120D02*
X292075Y-500245D01*
X318000Y-591600D02*
Y-577000D01*
X317600Y-592000D02*
X318000Y-591600D01*
X304650Y-487350D02*
X311000Y-481000D01*
X304650Y-500120D02*
Y-487350D01*
X317350Y-513350D02*
X330000Y-526000D01*
Y-537700D02*
Y-526000D01*
Y-537700D02*
X330300Y-538000D01*
X317350Y-513350D02*
Y-500120D01*
X318246Y-440755D02*
X338744Y-420257D01*
X318100Y-440755D02*
X318246D01*
X317350Y-445880D02*
Y-441505D01*
X338744Y-420257D02*
X339000D01*
X317350Y-441505D02*
X318100Y-440755D01*
X45470Y-636730D02*
X219270D01*
X42000Y-665600D02*
X64600Y-643000D01*
X42000Y-640200D02*
X45470Y-636730D01*
X209000Y-479000D02*
X217000Y-487000D01*
X216000Y-446000D02*
X233000D01*
X209000Y-479000D02*
Y-453000D01*
X216000Y-446000D01*
X234500Y-488500D02*
X262750D01*
X233000Y-487000D02*
X234500Y-488500D01*
X262750D02*
X267000Y-492750D01*
X267500D02*
X271750Y-488500D01*
Y-488000D01*
X276750Y-483000D01*
X299000D01*
X304644Y-488644D01*
X233000Y-446000D02*
X233125Y-445875D01*
X266875D02*
X267000Y-445750D01*
X233125Y-445875D02*
X266875D01*
X257500Y-436750D02*
X266500Y-445750D01*
X267000D01*
X257500Y-436750D02*
Y-414000D01*
X-301605Y-485000D02*
X-270679D01*
X-267750Y-488500D02*
Y-487929D01*
X-312350Y-495745D02*
X-301605Y-485000D01*
X-263500Y-492750D02*
X-263000D01*
X-270679Y-485000D02*
X-267750Y-487929D01*
X-263000Y-492750D02*
X-250375D01*
X-325300Y-613429D02*
X-325000Y-613729D01*
Y-614000D02*
Y-613729D01*
X-325300Y-613429D02*
Y-592000D01*
X-287000Y-612000D02*
Y-592200D01*
X-287200Y-592000D02*
X-287000Y-592200D01*
X-325300Y-556029D02*
Y-538000D01*
X-326000Y-557000D02*
Y-556729D01*
X-325300Y-556029D01*
X-287100Y-552900D02*
Y-538100D01*
X-287200Y-538000D02*
X-287100Y-538100D01*
Y-552900D02*
X-287000Y-553000D01*
X-299900Y-554100D02*
Y-538000D01*
X-203250Y-898950D02*
Y-803999D01*
X-260000Y-747249D02*
X-203250Y-803999D01*
X-260000Y-747249D02*
Y-652000D01*
X-107268Y-904000D02*
X-79000D01*
X-108290Y-905022D02*
X-107268Y-904000D01*
X-67000Y-945000D02*
Y-916000D01*
X-79000Y-904000D02*
X-67000Y-916000D01*
X-150750Y-911650D02*
Y-898950D01*
X-203350Y-898850D02*
X-203250Y-898950D01*
Y-911650D02*
Y-898950D01*
X-227900Y-898850D02*
X-203350D01*
X-228000Y-898750D02*
X-227900Y-898850D01*
X-296506Y-903000D02*
X-260977D01*
X-307000Y-913000D02*
X-298000Y-922000D01*
X-321046Y-913000D02*
X-307000D01*
X-305286Y-911780D02*
X-296506Y-903000D01*
X-339000Y-930954D02*
X-321046Y-913000D01*
X-339000Y-944918D02*
Y-930954D01*
X-298000Y-922000D02*
X-286250D01*
X-252978Y-898750D02*
X-228000D01*
X-260977Y-903000D02*
X-256728Y-898750D01*
X-252978D01*
X-310000Y-955250D02*
Y-951500D01*
X-319308Y-942191D02*
X-310000Y-951500D01*
X-321809Y-942191D02*
X-319308D01*
X-322000Y-942000D02*
X-321809Y-942191D01*
X-335000Y-907000D02*
X-331000Y-903000D01*
X-315750D01*
X-344122Y-942629D02*
X-341289D01*
X-369000Y-924000D02*
X-362750D01*
X-344122Y-942629D01*
X-341289D02*
X-339000Y-944918D01*
X-318000Y-933000D02*
Y-924250D01*
X-315750Y-922000D01*
X-198000Y-955000D02*
X-197061D01*
X-186000Y-966061D01*
X-182250D02*
X-178500Y-969811D01*
Y-971539D02*
X-170311Y-979728D01*
X-178500Y-971539D02*
Y-969811D01*
X-186000Y-966061D02*
X-182250D01*
X-118722Y-949801D02*
X-101921Y-933000D01*
X-83730D01*
X-164500Y-911650D02*
X-150750D01*
X-182324Y-929474D02*
X-164500Y-911650D01*
X-182324Y-930166D02*
Y-929474D01*
X-200148Y-947990D02*
X-182324Y-930166D01*
X-221929Y-947990D02*
X-200148D01*
X-232750Y-958811D02*
X-221929Y-947990D01*
X-239000Y-958811D02*
X-232750D01*
X-229000Y-962561D01*
Y-963132D02*
Y-962561D01*
Y-963132D02*
X-226071Y-966061D01*
X-210250D01*
X-237977Y-1041650D02*
X-212977Y-1066650D01*
X-173000D01*
X166130Y-1086770D02*
X186250Y-1066650D01*
X-217857Y-1086770D02*
X166130D01*
X-237977Y-1066650D02*
X-217857Y-1086770D01*
X-354290Y-1073442D02*
X-333562Y-1094170D01*
X-407500Y-1006500D02*
X-354290Y-1059710D01*
Y-1073442D02*
Y-1059710D01*
X-333562Y-1094170D02*
X-265497D01*
X-423633Y-981500D02*
X-352233Y-1052900D01*
X-459000Y-981500D02*
X-423633D01*
X-459000Y-1006500D02*
X-407500D01*
X-352233Y-1052900D02*
X-329500D01*
X-417438Y-924000D02*
X-369000D01*
X-470270Y-976832D02*
X-417438Y-924000D01*
X-470270Y-1011168D02*
Y-976832D01*
Y-1011168D02*
X-461208Y-1020230D01*
X-412938D02*
X-387000Y-1046168D01*
Y-1060250D02*
Y-1046168D01*
X-461208Y-1020230D02*
X-412938D01*
X-411000Y-1077500D02*
X-409250Y-1079250D01*
X-387000D01*
X-265497Y-1094170D02*
X-237977Y-1066650D01*
X-329500Y-1052900D02*
X-322000Y-1060400D01*
X-287200Y-538000D02*
X-287000Y-537800D01*
Y-525000D01*
X-299650Y-512350D02*
X-287000Y-525000D01*
X-299650Y-512350D02*
Y-500120D01*
X-334000Y-563000D02*
X-327000Y-570000D01*
X-299900Y-592000D02*
Y-580100D01*
X-327000Y-570000D02*
X-310000D01*
X-299900Y-580100D01*
X-334000Y-488000D02*
X-328000Y-482000D01*
X-321000D02*
X-313100Y-489900D01*
X-334000Y-563000D02*
Y-488000D01*
X-328000Y-482000D02*
X-321000D01*
X-313100Y-494995D02*
X-312350Y-495745D01*
X-313100Y-494995D02*
Y-489900D01*
X-312350Y-500120D02*
Y-495745D01*
X-325175Y-537875D02*
Y-500245D01*
X-325300Y-538000D02*
X-325175Y-537875D01*
Y-500245D02*
X-325050Y-500120D01*
X-230000Y-446000D02*
X-227321Y-448679D01*
X-230125Y-445875D02*
X-230000Y-446000D01*
X-227321Y-448679D02*
X-215250D01*
X-212000Y-451929D01*
X-225500Y-487000D02*
X-212000Y-473500D01*
Y-451929D01*
X-250375Y-492750D02*
X-244500Y-486875D01*
X-267750Y-488500D02*
X-263500Y-492750D01*
X-263000Y-445750D02*
X-262875Y-445875D01*
X-230125D01*
X-264250Y-444500D02*
X-263000Y-445750D01*
X-265500Y-414000D02*
X-264250Y-415250D01*
Y-444500D02*
Y-415250D01*
D99*
X333022Y-356000D02*
D03*
X308023D02*
D03*
X220000D02*
D03*
X195000D02*
D03*
X-174978D02*
D03*
X-199977D02*
D03*
X-288000D02*
D03*
X-313000D02*
D03*
D100*
X283022D02*
D03*
X170000D02*
D03*
X-224977D02*
D03*
X-338000D02*
D03*
D101*
X-173000Y-1066650D02*
D03*
X186250D02*
D03*
X-237977D02*
D03*
D102*
X-173000Y-1041650D02*
D03*
X186250D02*
D03*
X-237977D02*
D03*
D103*
X42000Y-640200D02*
D03*
X-48000D02*
D03*
D104*
X42000Y-665600D02*
D03*
Y-691000D02*
D03*
Y-716400D02*
D03*
Y-741800D02*
D03*
Y-767200D02*
D03*
X-48000Y-665600D02*
D03*
Y-691000D02*
D03*
Y-716400D02*
D03*
Y-741800D02*
D03*
Y-767200D02*
D03*
X-84600Y-555000D02*
D03*
X-110000Y-529600D02*
D03*
Y-555000D02*
D03*
X-135400Y-529600D02*
D03*
Y-555000D02*
D03*
D105*
X-459000Y-1031500D02*
D03*
Y-1006500D02*
D03*
Y-981500D02*
D03*
D106*
X-84600Y-529600D02*
D03*
D107*
X-109000Y-421800D02*
D03*
D108*
Y-396400D02*
D03*
Y-371000D02*
D03*
Y-345600D02*
D03*
D109*
X-192500Y-610000D02*
D03*
Y-790000D02*
D03*
X192500D02*
D03*
Y-610000D02*
D03*
D110*
X-392250Y-978364D02*
D03*
Y-967615D02*
D03*
Y-956864D02*
D03*
Y-935365D02*
D03*
Y-946115D02*
D03*
X-401250D02*
D03*
D03*
Y-978364D02*
D03*
D03*
Y-967615D02*
D03*
Y-956864D02*
D03*
Y-935365D02*
D03*
X-350249Y-526365D02*
D03*
Y-515615D02*
D03*
Y-504865D02*
D03*
Y-483365D02*
D03*
Y-494115D02*
D03*
X-359249D02*
D03*
D03*
Y-526365D02*
D03*
D03*
Y-515615D02*
D03*
Y-504865D02*
D03*
Y-483365D02*
D03*
X-6250Y-419365D02*
D03*
Y-440864D02*
D03*
Y-451614D02*
D03*
Y-430115D02*
D03*
D03*
X2750D02*
D03*
Y-419365D02*
D03*
Y-440864D02*
D03*
X232635Y-561750D02*
D03*
X211136D02*
D03*
X200385D02*
D03*
X189636D02*
D03*
D03*
X221885D02*
D03*
D03*
Y-570750D02*
D03*
X232635D02*
D03*
X211136D02*
D03*
X200385D02*
D03*
X189636D02*
D03*
X142635Y-300750D02*
D03*
X121136D02*
D03*
X110386D02*
D03*
X99635D02*
D03*
D03*
X131885D02*
D03*
D03*
Y-309750D02*
D03*
X142635D02*
D03*
X121136D02*
D03*
X110386D02*
D03*
X99635D02*
D03*
X-115365Y-283750D02*
D03*
X-136865D02*
D03*
X-147614D02*
D03*
X-158364D02*
D03*
D03*
X-126115D02*
D03*
D03*
Y-292750D02*
D03*
X-115365D02*
D03*
X-136865D02*
D03*
X-147614D02*
D03*
X-158364D02*
D03*
X434635Y-296750D02*
D03*
X413135D02*
D03*
X402385D02*
D03*
X391636D02*
D03*
D03*
X423885D02*
D03*
D03*
Y-305750D02*
D03*
X434635D02*
D03*
X413135D02*
D03*
X402385D02*
D03*
X391636D02*
D03*
X-392365Y-285750D02*
D03*
X-413865D02*
D03*
X-424614D02*
D03*
X-435364D02*
D03*
D03*
X-403115D02*
D03*
D03*
Y-294750D02*
D03*
X-392365D02*
D03*
X-413865D02*
D03*
X-424614D02*
D03*
X-435364D02*
D03*
X-87365Y-701000D02*
D03*
X-107121D02*
D03*
X-117000D02*
D03*
X-97243D02*
D03*
D03*
Y-711000D02*
D03*
X-87365D02*
D03*
X-107121D02*
D03*
X-117000D02*
D03*
X126635Y-669750D02*
D03*
X105135D02*
D03*
X94385D02*
D03*
X83636D02*
D03*
D03*
X115885D02*
D03*
D03*
Y-678750D02*
D03*
X126635D02*
D03*
X105135D02*
D03*
X94385D02*
D03*
X83636D02*
D03*
X449635Y-941750D02*
D03*
X428135D02*
D03*
X417385D02*
D03*
X406636D02*
D03*
D03*
X438885D02*
D03*
D03*
Y-950750D02*
D03*
X449635D02*
D03*
X428135D02*
D03*
X417385D02*
D03*
X406636D02*
D03*
X225635Y-892750D02*
D03*
X204135D02*
D03*
X193386D02*
D03*
X182636D02*
D03*
D03*
X214885D02*
D03*
D03*
Y-901750D02*
D03*
X225635D02*
D03*
X204135D02*
D03*
X193386D02*
D03*
X182636D02*
D03*
X320635Y-723750D02*
D03*
X299135D02*
D03*
X288386D02*
D03*
X277635D02*
D03*
D03*
X309885D02*
D03*
D03*
Y-732750D02*
D03*
X320635D02*
D03*
X299135D02*
D03*
X288386D02*
D03*
X277635D02*
D03*
X-290365Y-701750D02*
D03*
X-311864D02*
D03*
X-322615D02*
D03*
X-333364D02*
D03*
D03*
X-301115D02*
D03*
D03*
Y-710750D02*
D03*
X-290365D02*
D03*
X-311864D02*
D03*
X-322615D02*
D03*
X-333364D02*
D03*
X246635Y-145750D02*
D03*
X225135D02*
D03*
X214386D02*
D03*
X203636D02*
D03*
D03*
X235885D02*
D03*
D03*
Y-154750D02*
D03*
X246635D02*
D03*
X225135D02*
D03*
X214386D02*
D03*
X203636D02*
D03*
X19635Y-38750D02*
D03*
X-1865D02*
D03*
X-12615D02*
D03*
X-23365D02*
D03*
D03*
X8885D02*
D03*
D03*
Y-47751D02*
D03*
X19635D02*
D03*
X-1865D02*
D03*
X-12615D02*
D03*
X-23365D02*
D03*
X-261000Y-134000D02*
D03*
X-250250D02*
D03*
X-239500D02*
D03*
X-218000D02*
D03*
X-228750D02*
D03*
Y-125000D02*
D03*
D03*
X-261000D02*
D03*
D03*
X-250250D02*
D03*
X-239500D02*
D03*
X-218000D02*
D03*
X-248000Y-574000D02*
D03*
X-28000Y-445000D02*
D03*
X-45000Y-471000D02*
D03*
X-88000Y-419000D02*
D03*
X17000Y-526000D02*
D03*
X3000Y-514000D02*
D03*
X-11000Y-516000D02*
D03*
X-76000Y-390000D02*
D03*
X-84000Y-400000D02*
D03*
X-86000Y-411000D02*
D03*
X-140648Y-416352D02*
D03*
X-144000Y-434000D02*
D03*
Y-426000D02*
D03*
X-158000Y-400000D02*
D03*
X-183000Y-385000D02*
D03*
X-124000Y-598000D02*
D03*
X-97000Y-563000D02*
D03*
X67620Y-429419D02*
D03*
X74000Y-436000D02*
D03*
X79970Y-443599D02*
D03*
X-244000Y-811000D02*
D03*
X304000Y-427000D02*
D03*
X278158Y-431199D02*
D03*
X356000Y-412000D02*
D03*
X326000Y-384000D02*
D03*
X-132000Y-888000D02*
D03*
X-165000Y-924000D02*
D03*
X-28000Y-471000D02*
D03*
X-68000Y-307000D02*
D03*
X-187000Y-564000D02*
D03*
X304000Y-925000D02*
D03*
X166774Y-416226D02*
D03*
X70000Y-400000D02*
D03*
X80000Y-411000D02*
D03*
X72000Y-387000D02*
D03*
X79000Y-369000D02*
D03*
X78000Y-339000D02*
D03*
X6751Y-321249D02*
D03*
X45000Y-314000D02*
D03*
X15000Y-402000D02*
D03*
X35000Y-440000D02*
D03*
X7000Y-355000D02*
D03*
X2000Y-340000D02*
D03*
X-83410Y-913802D02*
D03*
X-126259Y-618000D02*
D03*
X-41961Y-601961D02*
D03*
X-12000Y-593000D02*
D03*
X331000Y-612000D02*
D03*
Y-555000D02*
D03*
X292000Y-612000D02*
D03*
X165774Y-431774D02*
D03*
X317000Y-465000D02*
D03*
X60000Y-806000D02*
D03*
X52000Y-833000D02*
D03*
X5000Y-837000D02*
D03*
X-99000Y-835000D02*
D03*
X-12000Y-572000D02*
D03*
X-66000Y-683000D02*
D03*
X-47000Y-618000D02*
D03*
X-145000Y-609000D02*
D03*
X-82000Y-573000D02*
D03*
X59000Y-622000D02*
D03*
X187000Y-524000D02*
D03*
X293000Y-465000D02*
D03*
X292000Y-554000D02*
D03*
X282000Y-520000D02*
D03*
X75000Y-465000D02*
D03*
X69000Y-483000D02*
D03*
X-294000Y-461000D02*
D03*
X-245000Y-503000D02*
D03*
X-88000Y-325000D02*
D03*
X-325000Y-614000D02*
D03*
X-287000Y-612000D02*
D03*
X-326000Y-557000D02*
D03*
X-287000Y-553000D02*
D03*
X-325000Y-465000D02*
D03*
X-240000Y-542000D02*
D03*
X-260000Y-652000D02*
D03*
X-67000Y-812000D02*
D03*
X-322000Y-942000D02*
D03*
X-335000Y-907000D02*
D03*
X-318000Y-933000D02*
D03*
X-198000Y-955000D02*
D03*
X48000Y-578000D02*
D03*
X-11000Y-918000D02*
D03*
X-45730Y-528000D02*
D03*
X-43000Y-516000D02*
D03*
X-397000Y-480000D02*
D03*
X10000Y-520000D02*
D03*
X70000Y-908000D02*
D03*
X-35000Y-363270D02*
D03*
X-28000Y-352000D02*
D03*
X-50000Y-363000D02*
D03*
X366000Y-376000D02*
D03*
X33000Y-464000D02*
D03*
X-9000Y-403000D02*
D03*
X-17000Y-397000D02*
D03*
X-85000Y-351000D02*
D03*
X-84000Y-340000D02*
D03*
X10000Y-298000D02*
D03*
X17000Y-459000D02*
D03*
X20273Y-448274D02*
D03*
X49000Y-504000D02*
D03*
X19000Y-709000D02*
D03*
X24000Y-703000D02*
D03*
X59000Y-513000D02*
D03*
X43000D02*
D03*
X73000Y-568000D02*
D03*
X33000Y-538000D02*
D03*
X-79000Y-904000D02*
D03*
X-57000Y-493000D02*
D03*
X24000Y-532000D02*
D03*
X27230Y-520000D02*
D03*
X247000Y-783000D02*
D03*
X62000Y-548000D02*
D03*
X67000Y-540000D02*
D03*
X437000Y-1027000D02*
D03*
X241000Y-539000D02*
D03*
X407000Y-485000D02*
D03*
X-408000Y-425000D02*
D03*
X-33000Y-180000D02*
D03*
X-25000Y-174000D02*
D03*
X-37000Y-199000D02*
D03*
Y-188000D02*
D03*
X-35000Y-217000D02*
D03*
X-29000Y-231000D02*
D03*
X-39000Y-261000D02*
D03*
X41000Y-259000D02*
D03*
X9000Y-244000D02*
D03*
X11000Y-364082D02*
D03*
X3270Y-215270D02*
D03*
X41000Y-355000D02*
D03*
M02*
