G04*
G04 #@! TF.GenerationSoftware,Altium Limited,Altium Designer,22.1.2 (22)*
G04*
G04 Layer_Color=16711935*
%FSLAX44Y44*%
%MOMM*%
G71*
G04*
G04 #@! TF.SameCoordinates,E4277ABF-2EF0-4229-B20A-5B57AAE43606*
G04*
G04*
G04 #@! TF.FilePolarity,Positive*
G04*
G01*
G75*
%ADD13C,0.1000*%
%ADD98C,0.5000*%
%ADD111C,0.0600*%
D13*
X-163030Y-921458D02*
Y-916460D01*
X-164030Y-915460D01*
X-166029D01*
X-167029Y-916460D01*
Y-921458D01*
X-173027Y-915460D02*
X-169028D01*
X-173027Y-919459D01*
Y-920458D01*
X-172027Y-921458D01*
X-170028D01*
X-169028Y-920458D01*
D98*
X476000Y-1100000D02*
G03*
X500000Y-1076000I0J24000D01*
G01*
Y-920000D02*
G03*
X480000Y-900000I-20000J0D01*
G01*
X481000Y-500000D02*
G03*
X500000Y-481000I0J19000D01*
G01*
X370000Y-870000D02*
G03*
X400000Y-900000I30000J0D01*
G01*
X400000Y-500000D02*
G03*
X370000Y-530000I0J-30000D01*
G01*
X-400000Y-900000D02*
G03*
X-370000Y-870000I0J30000D01*
G01*
X-370045Y-530181D02*
G03*
X-400182Y-500238I-30040J-97D01*
G01*
X-500000Y-1077000D02*
G03*
X-477000Y-1100000I23000J0D01*
G01*
X-483000Y-900000D02*
G03*
X-500000Y-917000I0J-17000D01*
G01*
X-500000Y-481000D02*
G03*
X-480991Y-500009I19009J0D01*
G01*
X-250000Y0D02*
G03*
X-500118Y-400000I248742J-433736D01*
G01*
X499607Y-400026D02*
G03*
X250000Y0I-498883J-33403D01*
G01*
X500000Y-1076000D02*
Y-920000D01*
X-477000Y-1100000D02*
X476000D01*
X400000Y-900000D02*
X480000D01*
X500000Y-481000D02*
Y-400000D01*
X400000Y-500000D02*
X481000D01*
X370000Y-870000D02*
Y-530000D01*
X-370045Y-530181D02*
X-370000Y-870000D01*
X-500000Y-1077000D02*
Y-917000D01*
Y-481000D02*
Y-400000D01*
X-480991Y-500009D02*
X-400182Y-500238D01*
X-483000Y-900000D02*
X-400000D01*
X-250000Y0D02*
X250000D01*
D111*
X-294650Y-915229D02*
Y-911896D01*
X-295317Y-911230D01*
X-296649D01*
X-297316Y-911896D01*
Y-915229D01*
X-298649Y-914562D02*
X-299315Y-915229D01*
X-300648D01*
X-301315Y-914562D01*
Y-913896D01*
X-300648Y-913229D01*
X-299982D01*
X-300648D01*
X-301315Y-912563D01*
Y-911896D01*
X-300648Y-911230D01*
X-299315D01*
X-298649Y-911896D01*
M02*
