G04*
G04 #@! TF.GenerationSoftware,Altium Limited,Altium Designer,22.1.2 (22)*
G04*
G04 Layer_Color=32768*
%FSLAX44Y44*%
%MOMM*%
G71*
G04*
G04 #@! TF.SameCoordinates,E4277ABF-2EF0-4229-B20A-5B57AAE43606*
G04*
G04*
G04 #@! TF.FilePolarity,Positive*
G04*
G01*
G75*
%ADD12C,0.2000*%
%ADD13C,0.1000*%
%ADD112C,0.0500*%
D12*
X299000Y-967000D02*
G03*
X299000Y-1091000I0J-62000D01*
G01*
D02*
G03*
X299000Y-967000I0J62000D01*
G01*
X-44531Y-341750D02*
Y-325250D01*
Y-341750D02*
X-17469D01*
Y-325250D01*
X-44531D02*
X-17469D01*
X10500Y-342500D02*
Y-325500D01*
Y-342500D02*
X38500D01*
Y-325500D01*
X10500D02*
X38500D01*
X357000Y-459562D02*
X369000D01*
Y-436500D01*
X357000D02*
X369000D01*
X357000Y-459562D02*
Y-436500D01*
X333000Y-425531D02*
X345000D01*
Y-402469D01*
X333000D02*
X345000D01*
X333000Y-425531D02*
Y-402469D01*
X279000Y-422500D02*
Y-405500D01*
X251000D02*
X279000D01*
X251000Y-422500D02*
Y-405500D01*
Y-422500D02*
X279000D01*
X223000Y-521000D02*
X243000D01*
Y-481000D01*
X223000D02*
X243000D01*
X223000Y-521000D02*
Y-481000D01*
X-362000Y-459562D02*
X-350000D01*
Y-436500D01*
X-362000D02*
X-350000D01*
X-362000Y-459562D02*
Y-436500D01*
X-344000Y-402469D02*
X-332000D01*
X-344000Y-425531D02*
Y-402469D01*
Y-425531D02*
X-332000D01*
Y-402469D01*
X-287000Y-422500D02*
Y-405500D01*
Y-422500D02*
X-259000D01*
Y-405500D01*
X-287000D02*
X-259000D01*
X-239250Y-521000D02*
X-219250D01*
Y-481000D01*
X-239250D02*
X-219250D01*
X-239250Y-521000D02*
Y-481000D01*
X-134061Y-947500D02*
Y-918500D01*
Y-947500D02*
X-77940D01*
Y-918500D01*
X-134061D02*
X-77940D01*
X-316000Y-965250D02*
Y-945250D01*
Y-965250D02*
X-276000D01*
Y-945250D01*
X-316000D02*
X-276000D01*
X-346750Y-939128D02*
X-331250D01*
X-346750Y-965250D02*
Y-939128D01*
Y-965250D02*
X-331250D01*
Y-939128D01*
X-384000Y-965250D02*
X-354000D01*
Y-916750D01*
X-384000D02*
X-354000D01*
X-384000Y-965250D02*
Y-916750D01*
X-262978Y-892750D02*
X-242978D01*
X-262978Y-932750D02*
Y-892750D01*
Y-932750D02*
X-242978D01*
Y-892750D01*
X-238000D02*
X-218000D01*
X-238000Y-932750D02*
Y-892750D01*
Y-932750D02*
X-218000D01*
Y-892750D01*
X-254000Y-1000061D02*
X-224000D01*
Y-951561D01*
X-254000D02*
X-224000D01*
X-254000Y-1000061D02*
Y-951561D01*
X-168750Y-973939D02*
X-153250D01*
X-168750Y-1000061D02*
Y-973939D01*
Y-1000061D02*
X-153250D01*
Y-973939D01*
X-220250Y-960061D02*
X-200250D01*
X-220250Y-1000061D02*
Y-960061D01*
Y-1000061D02*
X-200250D01*
Y-960061D01*
X-196000D02*
X-176000D01*
X-196000Y-1000061D02*
Y-960061D01*
Y-1000061D02*
X-176000D01*
Y-960061D01*
X-367000Y-976900D02*
X-277000D01*
X-367000Y-1092900D02*
Y-976900D01*
Y-1092900D02*
X-277000D01*
Y-976900D01*
X89500Y-546795D02*
Y-529795D01*
Y-546795D02*
X117500D01*
Y-529795D01*
X89500D02*
X117500D01*
X150000Y-436562D02*
X162000D01*
Y-413500D01*
X150000D02*
X162000D01*
X150000Y-436562D02*
Y-413500D01*
X121125D02*
X137625D01*
X121125Y-440562D02*
Y-413500D01*
Y-440562D02*
X137625D01*
Y-413500D01*
X91500D02*
X108500D01*
X91500Y-441500D02*
Y-413500D01*
Y-441500D02*
X108500D01*
Y-413500D01*
X-403469Y-490773D02*
Y-478773D01*
X-426531D02*
X-403469D01*
X-426531Y-490773D02*
Y-478773D01*
Y-490773D02*
X-403469D01*
X143773Y-522022D02*
Y-505023D01*
Y-522022D02*
X171772D01*
Y-505023D01*
X143773D02*
X171772D01*
X143773Y-464522D02*
Y-447523D01*
Y-464522D02*
X171772D01*
Y-447523D01*
X143773D02*
X171772D01*
X-116500Y-579000D02*
X-99500D01*
X-116500Y-607000D02*
Y-579000D01*
Y-607000D02*
X-99500D01*
Y-579000D01*
X103750Y-573938D02*
X120250D01*
X103750Y-601000D02*
Y-573938D01*
Y-601000D02*
X120250D01*
Y-573938D01*
X-89667Y-579000D02*
X-72667D01*
X-89667Y-607000D02*
Y-579000D01*
Y-607000D02*
X-72667D01*
Y-579000D01*
X76167Y-573000D02*
X93167D01*
X76167Y-601000D02*
Y-573000D01*
Y-601000D02*
X93167D01*
Y-573000D01*
X-420500Y-1034000D02*
X-401500D01*
X-420500Y-1086000D02*
Y-1034000D01*
Y-1086000D02*
X-401500D01*
Y-1034000D01*
X-114250Y-472110D02*
X-97750D01*
X-114250Y-499171D02*
Y-472110D01*
Y-499171D02*
X-97750D01*
Y-472110D01*
D13*
X-10000Y-438000D02*
X-0D01*
X-5000Y-443000D02*
Y-433000D01*
X359000Y-850250D02*
Y-817750D01*
X307000D02*
X359000D01*
X307000Y-850250D02*
Y-817750D01*
Y-850250D02*
X359000D01*
X-17000Y-171000D02*
X23000D01*
Y-211000D02*
Y-171000D01*
X-17000Y-211000D02*
X23000D01*
X-17000D02*
Y-171000D01*
X159000Y-985000D02*
Y-975000D01*
X154000Y-980000D02*
X164000D01*
X197000Y-978000D02*
X207000D01*
X202000Y-983000D02*
Y-973000D01*
X265000Y-554000D02*
Y-544000D01*
X260000Y-549000D02*
X270000D01*
X300000Y-413000D02*
X310000D01*
X305000Y-418000D02*
Y-408000D01*
X228000Y-454000D02*
X238000D01*
X233000Y-459000D02*
Y-449000D01*
X262000Y-454000D02*
X272000D01*
X267000Y-459000D02*
Y-449000D01*
X262000Y-501000D02*
X272000D01*
X267000Y-506000D02*
Y-496000D01*
X-313250Y-413000D02*
X-303250D01*
X-308250Y-418000D02*
Y-408000D01*
X-235000Y-454000D02*
X-225000D01*
X-230000Y-459000D02*
Y-449000D01*
X-263000Y-554000D02*
Y-544000D01*
X-268000Y-549000D02*
X-258000D01*
X-268000Y-454000D02*
X-258000D01*
X-263000Y-459000D02*
Y-449000D01*
X-268000Y-501000D02*
X-258000D01*
X-263000Y-506000D02*
Y-496000D01*
X-134750Y-859000D02*
X-79750D01*
Y-893000D02*
Y-859000D01*
X-134750Y-893000D02*
X-79750D01*
X-134750D02*
Y-859000D01*
X-301000Y-917500D02*
Y-907500D01*
X-306000Y-912500D02*
X-296000D01*
X-177000Y-923000D02*
Y-913000D01*
X-182000Y-918000D02*
X-172000D01*
X381000Y-985000D02*
X471000D01*
Y-1061000D02*
Y-985000D01*
X381000Y-1061000D02*
X471000D01*
X381000D02*
Y-985000D01*
X471000D01*
Y-1061000D02*
Y-985000D01*
X381000Y-1061000D02*
X471000D01*
X381000D02*
Y-985000D01*
X449000Y-1075000D02*
X459000D01*
X454000Y-1080000D02*
Y-1070000D01*
X-467969Y-415000D02*
X-402969D01*
Y-473000D02*
Y-415000D01*
X-467969Y-473000D02*
X-402969D01*
X-467969D02*
Y-415000D01*
X412500Y-413000D02*
X477500D01*
Y-471000D02*
Y-413000D01*
X412500Y-471000D02*
X477500D01*
X412500D02*
Y-413000D01*
X424250Y-483522D02*
X434250D01*
X429250Y-488523D02*
Y-478522D01*
X89000Y-524773D02*
Y-444772D01*
X141000D01*
Y-524773D02*
Y-444772D01*
X89000Y-524773D02*
X141000D01*
X434000Y-406250D02*
X486000D01*
X434000D02*
Y-373750D01*
X486000D01*
Y-406250D02*
Y-373750D01*
X96372Y-1093000D02*
Y-1041000D01*
X128872D01*
Y-1093000D02*
Y-1041000D01*
X96372Y-1093000D02*
X128872D01*
X59919D02*
Y-1041000D01*
X92419D01*
Y-1093000D02*
Y-1041000D01*
X59919Y-1093000D02*
X92419D01*
X23466D02*
Y-1041000D01*
X55966D01*
Y-1093000D02*
Y-1041000D01*
X23466Y-1093000D02*
X55966D01*
X-12987D02*
Y-1041000D01*
X19514D01*
Y-1093000D02*
Y-1041000D01*
X-12987Y-1093000D02*
X19514D01*
X-49439D02*
Y-1041000D01*
X-16939D01*
Y-1093000D02*
Y-1041000D01*
X-49439Y-1093000D02*
X-16939D01*
X-85892D02*
Y-1041000D01*
X-53392D01*
Y-1093000D02*
Y-1041000D01*
X-85892Y-1093000D02*
X-53392D01*
X-122345D02*
Y-1041000D01*
X-89844D01*
Y-1093000D02*
Y-1041000D01*
X-122345Y-1093000D02*
X-89844D01*
X-359000Y-817750D02*
X-307000D01*
Y-850250D02*
Y-817750D01*
X-359000Y-850250D02*
X-307000D01*
X-359000D02*
Y-817750D01*
X-492000Y-373750D02*
X-440000D01*
Y-406250D02*
Y-373750D01*
X-492000Y-406250D02*
X-440000D01*
X-492000D02*
Y-373750D01*
X-489000Y-1086500D02*
Y-938500D01*
X-429000D01*
Y-1086500D02*
Y-938500D01*
X-489000Y-1086500D02*
X-429000D01*
D112*
X59500Y-502500D02*
Y-373500D01*
X-69500Y-502500D02*
Y-373500D01*
Y-502500D02*
X59500D01*
X-69500Y-373500D02*
X59500D01*
X304978Y-850500D02*
Y-818000D01*
X247728D02*
X304978D01*
X247728Y-850500D02*
Y-818000D01*
Y-850500D02*
X304978D01*
X256023Y-392500D02*
X360023D01*
X256023D02*
Y-330000D01*
X360023D01*
Y-392500D02*
Y-330000D01*
X143000Y-392500D02*
X247000D01*
X143000D02*
Y-330000D01*
X247000D01*
Y-392500D02*
Y-330000D01*
X-251977Y-392500D02*
X-147977D01*
X-251977D02*
Y-330000D01*
X-147977D01*
Y-392500D02*
Y-330000D01*
X-365000Y-392500D02*
X-261000D01*
X-365000D02*
Y-330000D01*
X-261000D01*
Y-392500D02*
Y-330000D01*
X148500Y-997000D02*
X169500D01*
X148500Y-963000D02*
X169500D01*
X148500Y-997000D02*
Y-963000D01*
X169500Y-997000D02*
Y-963000D01*
X183000Y-994500D02*
Y-961500D01*
X221000Y-994500D02*
Y-961500D01*
X183000D02*
X221000D01*
X183000Y-994500D02*
X221000D01*
X-24295Y-263522D02*
Y-218022D01*
X-56795Y-263522D02*
X-24295D01*
X-56795D02*
Y-218022D01*
X-24295D01*
X57250Y-263522D02*
Y-218022D01*
X24750Y-263522D02*
X57250D01*
X24750D02*
Y-218022D01*
X57250D01*
X-22522Y-168978D02*
X22977D01*
X-22522D02*
Y-136477D01*
X22977D01*
Y-168978D02*
Y-136477D01*
X-22522Y-314523D02*
X22977D01*
X-22522D02*
Y-282022D01*
X22977D01*
Y-314523D02*
Y-282022D01*
X-22522Y-279795D02*
X22977D01*
X-22522D02*
Y-247295D01*
X22977D01*
Y-279795D02*
Y-247295D01*
X-22522Y-245522D02*
X22977D01*
X-22522D02*
Y-213023D01*
X22977D01*
Y-245522D02*
Y-213023D01*
X254500Y-566000D02*
X275500D01*
X254500Y-532000D02*
X275500D01*
X254500Y-566000D02*
Y-532000D01*
X275500Y-566000D02*
Y-532000D01*
X322000Y-423500D02*
Y-402500D01*
X288000Y-423500D02*
Y-402500D01*
Y-423500D02*
X322000D01*
X288000Y-402500D02*
X322000D01*
X243000Y-471000D02*
Y-437000D01*
X223000Y-471000D02*
Y-437000D01*
X243000D01*
X223000Y-471000D02*
X243000D01*
X277000Y-471500D02*
Y-436500D01*
X257000Y-471500D02*
Y-436500D01*
X277000D01*
X257000Y-471500D02*
X277000D01*
Y-518500D02*
Y-483500D01*
X257000Y-518500D02*
Y-483500D01*
X277000D01*
X257000Y-518500D02*
X277000D01*
X-333500Y-435750D02*
X-278500D01*
X-333500Y-510250D02*
Y-435750D01*
Y-510250D02*
X-278500D01*
Y-435750D01*
X-291250Y-423500D02*
Y-402500D01*
X-325250Y-423500D02*
Y-402500D01*
Y-423500D02*
X-291250D01*
X-325250Y-402500D02*
X-291250D01*
X-220000Y-471000D02*
Y-437000D01*
X-240000Y-471000D02*
Y-437000D01*
X-220000D01*
X-240000Y-471000D02*
X-220000D01*
X-273500Y-566000D02*
X-252500D01*
X-273500Y-532000D02*
X-252500D01*
X-273500Y-566000D02*
Y-532000D01*
X-252500Y-566000D02*
Y-532000D01*
X-253000Y-471500D02*
Y-436500D01*
X-273000Y-471500D02*
Y-436500D01*
X-253000D01*
X-273000Y-471500D02*
X-253000D01*
Y-518500D02*
Y-483500D01*
X-273000Y-518500D02*
Y-483500D01*
X-253000D01*
X-273000Y-518500D02*
X-253000D01*
X-279000Y-602000D02*
Y-528000D01*
X-333500Y-602000D02*
X-279000D01*
X-333500D02*
Y-528000D01*
X-279000D01*
X283500Y-435750D02*
X338500D01*
X283500Y-510250D02*
Y-435750D01*
Y-510250D02*
X338500D01*
Y-435750D01*
Y-602000D02*
Y-528000D01*
X284000Y-602000D02*
X338500D01*
X284000D02*
Y-528000D01*
X338500D01*
X-304977Y-818000D02*
X-247727D01*
Y-850500D02*
Y-818000D01*
X-304977Y-850500D02*
X-247727D01*
X-304977D02*
Y-818000D01*
X-134541Y-915022D02*
X-100041D01*
X-134541D02*
Y-895022D01*
X-100041D01*
Y-915022D02*
Y-895022D01*
X-326500Y-892000D02*
X-275500D01*
X-326500Y-933000D02*
X-275500D01*
X-326500D02*
Y-892000D01*
X-275500Y-933000D02*
Y-892000D01*
X-209500Y-1093650D02*
X-147000D01*
Y-1014650D01*
X-209500D02*
X-147000D01*
X-209500Y-1093650D02*
Y-1014650D01*
X-210500Y-892000D02*
X-143500D01*
X-210500Y-944000D02*
X-143500D01*
X-210500D02*
Y-892000D01*
X-143500Y-944000D02*
Y-892000D01*
X149750Y-1093650D02*
X212250D01*
Y-1014650D01*
X149750D02*
X212250D01*
X149750Y-1093650D02*
Y-1014650D01*
X-274478Y-1093650D02*
X-211977D01*
Y-1014650D01*
X-274478D02*
X-211977D01*
X-274478Y-1093650D02*
Y-1014650D01*
X437000Y-1085500D02*
Y-1064500D01*
X471000Y-1085500D02*
Y-1064500D01*
X437000D02*
X471000D01*
X437000Y-1085500D02*
X471000D01*
X412250Y-494022D02*
Y-473023D01*
X446250Y-494022D02*
Y-473023D01*
X412250D02*
X446250D01*
X412250Y-494022D02*
X446250D01*
X57200Y-782400D02*
Y-625000D01*
X26800Y-782400D02*
X57200D01*
X26800D02*
Y-625000D01*
X57200D01*
X-32800Y-782400D02*
Y-625000D01*
X-63200Y-782400D02*
X-32800D01*
X-63200D02*
Y-625000D01*
X-32800D01*
X282750Y-937000D02*
X317250D01*
Y-957000D02*
Y-937000D01*
X282750Y-957000D02*
X317250D01*
X282750D02*
Y-937000D01*
X-195500Y-408750D02*
X-168500D01*
Y-557250D02*
Y-408750D01*
X-195500Y-557250D02*
X-168500D01*
X-195500D02*
Y-408750D01*
X-397000Y-1086750D02*
Y-1052750D01*
X-377000D01*
Y-1086750D02*
Y-1052750D01*
X-397000Y-1086750D02*
X-377000D01*
X-67650Y-570200D02*
Y-514400D01*
X-152350Y-570200D02*
X-67650D01*
X-152350D02*
Y-514400D01*
X-67650D01*
X-124200Y-437000D02*
X-93800D01*
X-124200D02*
Y-330400D01*
X-93800D01*
Y-437000D02*
Y-330400D01*
X374728Y-406500D02*
X431978D01*
X374728D02*
Y-374000D01*
X431978D01*
Y-406500D02*
Y-374000D01*
X95950Y-1038977D02*
Y-981727D01*
X128450D01*
Y-1038977D02*
Y-981727D01*
X95950Y-1038977D02*
X128450D01*
X59550D02*
Y-981727D01*
X92050D01*
Y-1038977D02*
Y-981727D01*
X59550Y-1038977D02*
X92050D01*
X23150D02*
Y-981727D01*
X55650D01*
Y-1038977D02*
Y-981727D01*
X23150Y-1038977D02*
X55650D01*
X-13250D02*
Y-981727D01*
X19250D01*
Y-1038977D02*
Y-981727D01*
X-13250Y-1038977D02*
X19250D01*
X-49650D02*
Y-981727D01*
X-17150D01*
Y-1038977D02*
Y-981727D01*
X-49650Y-1038977D02*
X-17150D01*
X-86050D02*
Y-981727D01*
X-53550D01*
Y-1038977D02*
Y-981727D01*
X-86050Y-1038977D02*
X-53550D01*
X-122450D02*
Y-981727D01*
X-89950D01*
Y-1038977D02*
Y-981727D01*
X-122450Y-1038977D02*
X-89950D01*
X-437977Y-374000D02*
X-380727D01*
Y-406500D02*
Y-374000D01*
X-437977Y-406500D02*
X-380727D01*
X-437977D02*
Y-374000D01*
M02*
