M48
;Layer_Color=9474304
;FILE_FORMAT=4:4
METRIC,LZ
;TYPE=PLATED
T1F00S00C0.3000
T2F00S00C0.6350
T3F00S00C0.8500
T4F00S00C0.9000
T5F00S00C1.0000
T6F00S00C1.0500
T7F00S00C1.1000
T8F00S00C2.5000
%
T01
X-0040125Y-00978364
X-0039225
Y-00967615
X-0040125
Y-00956864
X-0039225
Y-00946115
X-0040125
Y-00935365
X-0039225
X-00318Y-00933
X-00322Y-00942
X-00335Y-00907
X-00198Y-00955
X-00165Y-00924
X-00132Y-00888
X-00079Y-00904
X-0008341Y-00913802
X-00011Y-00918
X0007Y-00908
X00182636Y-0090175
Y-0089275
X00193386
Y-0090175
X00204135
Y-0089275
X00214885
Y-0090175
X00225635
Y-0089275
X00304Y-00925
X00406636Y-0094175
Y-0095075
X00417385
Y-0094175
X00428135
Y-0095075
X00438885
Y-0094175
X00449635
Y-0095075
X00437Y-01027
X00320635Y-0073275
Y-0072375
X00309885
Y-0073275
X00299135
Y-0072375
X00288386
Y-0073275
X00277635
Y-0072375
X00247Y-00783
X00292Y-00612
X00331
Y-00555
X00292Y-00554
X00282Y-0052
X00241Y-00539
X00232635Y-0056175
Y-0057075
X00221885
Y-0056175
X00211136
Y-0057075
X00200385
Y-0056175
X00189636
Y-0057075
X00187Y-00524
X00407Y-00485
X00069Y-00483
X00059Y-00513
X00043
X00049Y-00504
X0002723Y-0052
X00024Y-00532
X00017Y-00526
X0001Y-0052
X00003Y-00514
X-00011Y-00516
X-00043
X-0004573Y-00528
X-00057Y-00493
X-00082Y-00573
X-00097Y-00563
X-00124Y-00598
X-00126259Y-00618
X-00145Y-00609
X-00187Y-00564
X-00248Y-00574
X-0024Y-00542
X-00245Y-00503
X-00041961Y-00601961
X-00047Y-00618
X-00012Y-00593
Y-00572
X00048Y-00578
X00073Y-00568
X00062Y-00548
X00067Y-0054
X00033Y-00538
X00059Y-00622
X00083636Y-0066975
Y-0067875
X00094385
Y-0066975
X00105135
Y-0067875
X00115885
Y-0066975
X00126635
Y-0067875
X00024Y-00703
X00019Y-00709
X-00087365Y-00711
X-00097243
X-00107121
X-00117
Y-00701
X-00107121
X-00097243
X-00087365
X-00066Y-00683
X-00067Y-00812
X-00099Y-00835
X00005Y-00837
X00052Y-00833
X0006Y-00806
X-00244Y-00811
X-00290365Y-0071075
Y-0070175
X-00301115
Y-0071075
X-00311864
Y-0070175
X-00322615
Y-0071075
X-00333364
Y-0070175
X-00325Y-00614
X-00287Y-00612
Y-00553
X-00326Y-00557
X-00350249Y-00526365
X-00359249
Y-00515615
X-00350249
Y-00504865
X-00359249
Y-00494115
X-00350249
Y-00483365
X-00359249
X-00397Y-0048
X-0026Y-00652
X-00294Y-00461
X-00325Y-00465
X-00408Y-00425
X-00403115Y-0029475
Y-0028575
X-00392365
Y-0029475
X-00413865
Y-0028575
X-00424614
Y-0029475
X-00435364
Y-0028575
X-00261Y-00134
Y-00125
X-0025025
Y-00134
X-002395
Y-00125
X-0022875
Y-00134
X-00218
Y-00125
X-00158364Y-0028375
Y-0029275
X-00147614
Y-0028375
X-00136865
Y-0029275
X-00126115
Y-0028375
X-00115365
Y-0029275
X-00088Y-00325
X-00084Y-0034
X-00085Y-00351
X-0005Y-00363
X-00035Y-0036327
X-00028Y-00352
X00007Y-00355
X00011Y-00364082
X00002Y-0034
X00006751Y-00321249
X0001Y-00298
X00045Y-00314
X00041Y-00355
X00079Y-00369
X00072Y-00387
X0007Y-004
X0008Y-00411
X0006762Y-00429419
X00074Y-00436
X0007997Y-00443599
X00075Y-00465
X00033Y-00464
X00017Y-00459
X00020273Y-00448274
X00035Y-0044
X0000275Y-00440864
X-0000625
Y-00451614
Y-00430115
X0000275
Y-00419365
X-0000625
X-00009Y-00403
X-00017Y-00397
X00015Y-00402
X-00028Y-00445
Y-00471
X-00045
X-00088Y-00419
X-00086Y-00411
X-00084Y-004
X-00076Y-0039
X-00068Y-00307
X-00039Y-00261
X-00029Y-00231
X-00035Y-00217
X-00037Y-00199
Y-00188
X-00033Y-0018
X-00025Y-00174
X0000327Y-0021527
X00009Y-00244
X00041Y-00259
X00099635Y-0030075
Y-0030975
X00110386
Y-0030075
X00121136
Y-0030975
X00131885
Y-0030075
X00078Y-00339
X-00140648Y-00416352
X-00144Y-00426
Y-00434
X-00158Y-004
X-00183Y-00385
X00166774Y-00416226
X00165774Y-00431774
X00278158Y-00431199
X00304Y-00427
X00293Y-00465
X00317
X00326Y-00384
X00366Y-00376
X00356Y-00412
X00391636Y-0030575
Y-0029675
X00402385
Y-0030575
X00413135
Y-0029675
X00423885
Y-0030575
X00434635
Y-0029675
X00142635Y-0030075
Y-0030975
X00203636Y-0015475
Y-0014575
X00214386
Y-0015475
X00225135
Y-0014575
X00235885
Y-0015475
X00246635
Y-0014575
X00019635Y-00047751
Y-0003875
X00008885
Y-00047751
X-00001865
Y-0003875
X-00012615
Y-00047751
X-00023365
Y-0003875
T02
X-00109Y-004218
Y-003964
Y-00371
Y-003456
T03
X00299Y-01067
Y-00991
T04
X-00182Y-00543
Y-00523
Y-00503
Y-00483
Y-00463
Y-00443
Y-00423
T05
X-00459Y-010315
Y-010065
Y-009815
X-00338Y-00356
X-00313
X-00288
X-00224977
X-00199977
X-00174978
X0017
X00195
X0022
X00283022
X00308023
X00333022
T06
X-00237977Y-0106665
Y-0104165
X-00173
Y-0106665
X0018625
Y-0104165
T07
X-00048Y-007672
Y-007418
Y-007164
Y-00691
Y-006656
Y-006402
X00042
Y-006656
Y-00691
Y-007164
Y-007418
Y-007672
X-000846Y-00555
Y-005296
X-0011
Y-00555
X-001354
Y-005296
T08
X001925Y-0079
Y-0061
X-001925
Y-0079
M30
